<?xml version="1.0" standalone="no"?>
<!DOCTYPE svg PUBLIC "-//W3C//DTD SVG 20010904//EN"
 "http://www.w3.org/TR/2001/REC-SVG-20010904/DTD/svg10.dtd">
<svg version="1.0" xmlns="http://www.w3.org/2000/svg"
 width="1040.000000pt" height="176.000000pt" viewBox="0 0 1040.000000 176.000000"
 preserveAspectRatio="xMidYMid meet">

<g transform="translate(0.000000,176.000000) scale(0.100000,-0.100000)"
fill="#000000" stroke="none">
<path d="M360 1631 c-69 -21 -130 -73 -166 -141 -18 -33 -19 -69 -19 -615 l0
-580 29 -53 c16 -28 44 -63 62 -77 73 -56 59 -55 813 -55 l696 0 50 24 c59 27
106 77 129 137 15 40 16 103 14 619 l-3 575 -28 47 c-15 26 -43 59 -62 74 -71
54 -71 54 -809 53 -375 0 -692 -4 -706 -8z m1113 -492 c52 -14 104 -63 118
-110 7 -22 9 -42 5 -47 -4 -4 -43 -9 -86 -10 -77 -4 -78 -4 -91 24 -25 52
-129 56 -129 5 0 -28 16 -36 117 -61 110 -26 178 -66 199 -115 44 -106 -18
-222 -135 -255 -53 -15 -180 -12 -237 5 -56 16 -96 52 -118 107 -32 75 -16 88
105 88 43 0 46 -2 62 -39 21 -47 62 -68 109 -55 38 11 53 33 45 66 -7 28 -29
39 -127 63 -127 32 -190 89 -190 173 0 72 44 131 117 157 45 17 183 19 236 4z
m-413 -64 l0 -65 -90 0 -90 0 0 -220 0 -220 -90 0 -90 0 0 220 0 220 -90 0
-90 0 0 65 0 65 270 0 270 0 0 -65z"/>
<path d="M6867 1250 c-123 -31 -198 -117 -198 -230 -1 -70 20 -118 67 -160 51
-44 100 -66 226 -100 128 -35 150 -50 146 -94 -6 -66 -119 -86 -173 -31 -13
12 -29 42 -35 65 l-12 43 -96 -6 c-53 -4 -111 -7 -128 -7 l-31 0 9 -52 c19
-106 79 -185 166 -220 49 -19 76 -22 192 -23 82 0 151 5 177 13 54 16 119 66
158 121 28 40 30 48 30 136 0 89 -1 95 -31 132 -59 73 -118 102 -297 144 -43
11 -87 24 -98 29 -50 27 3 87 67 77 44 -7 63 -23 81 -64 12 -30 17 -33 56 -33
97 0 207 13 207 25 0 37 -36 121 -66 154 -57 64 -119 85 -259 88 -66 1 -137
-2 -158 -7z"/>
<path d="M2040 1150 l0 -100 125 0 125 0 0 -305 0 -305 135 0 135 0 0 305 0
305 125 0 125 0 0 100 0 100 -385 0 -385 0 0 -100z"/>
<path d="M4110 1165 l0 -85 125 0 125 0 0 85 0 85 -125 0 -125 0 0 -85z"/>
<path d="M3886 1015 c-34 -23 -36 -23 -36 -5 0 19 -7 20 -115 20 l-115 0 0
-295 0 -295 120 0 120 0 0 135 c0 244 27 293 141 259 13 -3 25 16 53 80 20 46
36 87 36 91 0 13 -72 35 -118 35 -36 0 -59 -7 -86 -25z"/>
<path d="M4785 1021 c-22 -10 -46 -25 -54 -34 -20 -25 -31 -21 -31 13 l0 30
-115 0 -115 0 0 -295 0 -295 124 0 125 0 3 186 c3 181 4 186 27 205 13 10 31
19 41 19 10 0 28 -9 41 -19 23 -19 24 -24 27 -205 l3 -186 120 0 119 0 0 223
0 223 -27 54 c-37 72 -88 100 -182 100 -42 0 -81 -7 -106 -19z"/>
<path d="M5335 1030 c-44 -14 -102 -66 -127 -113 -30 -58 -37 -213 -14 -285
21 -62 78 -129 130 -153 61 -28 151 -25 210 6 l46 24 0 -42 c0 -23 -4 -47 -8
-53 -26 -39 -109 -41 -135 -3 -11 15 -33 22 -98 29 -46 6 -99 10 -116 10 -31
0 -33 -2 -33 -37 0 -21 9 -56 19 -78 45 -98 131 -130 321 -123 78 3 129 11
158 23 52 21 114 90 130 143 8 26 12 140 12 346 l0 306 -115 0 -115 0 0 -25 0
-25 -42 27 c-35 24 -53 28 -117 30 -42 1 -89 -2 -106 -7z m208 -180 c32 -25
49 -81 41 -131 -11 -69 -71 -106 -120 -75 -34 23 -47 61 -40 126 4 43 11 60
31 78 32 27 55 28 88 2z"/>
<path d="M6125 1027 c-87 -29 -151 -82 -191 -159 -27 -50 -31 -186 -9 -245 24
-63 94 -135 158 -164 45 -21 67 -24 167 -24 101 1 121 4 165 25 113 55 167
145 168 276 1 68 -3 89 -26 137 -32 64 -81 111 -146 140 -58 26 -224 34 -286
14z m158 -168 c53 -24 75 -127 43 -203 -17 -40 -62 -62 -102 -49 -89 30 -98
208 -14 250 31 16 43 16 73 2z"/>
<path d="M7764 1021 c-23 -10 -45 -24 -48 -30 -12 -19 -26 -12 -26 14 l0 25
-115 0 -115 0 0 -405 0 -405 125 0 125 0 0 124 0 124 50 -19 c112 -43 242 -10
302 76 58 84 72 231 33 347 -21 59 -78 126 -129 149 -54 25 -148 24 -202 0z
m73 -175 c24 -21 28 -32 31 -92 4 -80 -7 -116 -42 -139 -57 -37 -116 23 -116
118 0 81 33 134 87 136 7 1 24 -10 40 -23z"/>
<path d="M8357 1030 c-82 -21 -136 -67 -162 -139 -8 -24 -14 -46 -11 -48 4 -5
163 -23 201 -23 23 0 34 7 46 29 26 45 128 55 143 14 11 -29 6 -31 -239 -87
-78 -18 -109 -37 -143 -87 -20 -28 -23 -44 -20 -94 5 -75 26 -106 96 -141 47
-24 61 -26 140 -22 72 3 97 9 136 31 27 15 50 26 51 25 1 -2 8 -13 14 -25 11
-22 18 -23 126 -23 63 0 115 1 115 3 0 1 -7 20 -15 42 -10 29 -14 89 -15 216
0 171 -1 177 -27 229 -23 44 -37 59 -77 80 -45 22 -63 25 -185 27 -75 1 -153
-2 -174 -7z m223 -359 c0 -39 -34 -78 -80 -92 -33 -10 -43 -9 -65 5 -49 32
-29 61 61 92 38 13 72 24 77 24 4 0 7 -13 7 -29z"/>
<path d="M9103 1021 c-92 -31 -155 -95 -183 -185 -8 -23 -11 -73 -8 -125 3
-72 9 -95 30 -132 35 -59 73 -93 133 -121 44 -20 66 -23 180 -23 115 0 135 3
176 22 59 30 105 75 135 135 41 81 40 82 -118 94 -59 4 -88 3 -88 -4 0 -23
-53 -72 -84 -78 -70 -13 -126 45 -126 128 0 66 27 110 77 128 38 13 46 12 77
-2 19 -9 37 -26 41 -37 4 -13 15 -21 28 -21 34 0 198 28 205 35 4 3 -7 31 -23
62 -33 64 -86 106 -158 128 -71 21 -228 19 -294 -4z"/>
<path d="M9834 1022 c-75 -27 -128 -73 -163 -144 -27 -52 -31 -72 -31 -138 0
-106 21 -163 85 -227 71 -70 128 -87 279 -81 122 5 186 25 239 76 33 32 72 91
64 98 -3 3 -55 10 -115 16 -107 10 -110 10 -141 -13 -46 -34 -106 -32 -137 4
-48 56 -45 57 191 57 l215 0 0 58 c0 128 -55 226 -154 276 -51 27 -69 30 -169
33 -89 3 -122 0 -163 -15z m214 -168 c41 -47 32 -54 -68 -54 -97 0 -104 5 -74
48 34 48 102 51 142 6z"/>
<path d="M2880 822 c0 -247 9 -290 69 -345 45 -41 85 -51 171 -45 43 3 72 12
109 36 l51 31 0 -29 0 -30 115 0 115 0 0 295 0 295 -119 0 -119 0 -4 -173 c-2
-144 -6 -177 -21 -200 -23 -35 -60 -44 -92 -23 l-25 16 0 190 0 190 -125 0
-125 0 0 -208z"/>
<path d="M4110 735 l0 -295 125 0 125 0 0 295 0 295 -125 0 -125 0 0 -295z"/>
</g>
</svg>
