<svg version="1.1" id="Layer_1" xmlns="http://www.w3.org/2000/svg" xmlns:xlink="http://www.w3.org/1999/xlink" x="0px" y="0px"
	 width="100%" viewBox="0 0 1215 209" enable-background="new 0 0 1215 209" xml:space="preserve">
<path fill="#FEFEFE" opacity="1.000000" stroke="none" 
	d="
M926.000000,210.000000 
	C617.333313,210.000000 309.166656,210.000000 1.000000,210.000000 
	C1.000000,140.333328 1.000000,70.666664 1.000000,1.000000 
	C406.000000,1.000000 811.000000,1.000000 1216.000000,1.000000 
	C1216.000000,70.666664 1216.000000,140.333328 1216.000000,210.000000 
	C1119.500000,210.000000 1023.000000,210.000000 926.000000,210.000000 
M11.360588,125.499847 
	C11.360605,139.494644 11.523593,153.491791 11.323256,167.483719 
	C11.005830,189.653503 29.006800,200.707413 44.164352,200.479965 
	C85.806107,199.855087 127.472420,199.757782 169.110260,200.501633 
	C186.967316,200.820633 203.293777,188.106110 203.103531,166.513596 
	C202.746872,126.031837 203.002792,85.544708 203.000092,45.059811 
	C202.998703,24.099478 189.975937,11.001481 169.134659,10.999973 
	C127.983345,10.996997 86.832031,10.998768 45.680714,10.999229 
	C24.062016,10.999472 11.369054,23.763344 11.362470,45.529301 
	C11.354506,71.852814 11.360607,98.176331 11.360588,125.499847 
M612.520081,198.003525 
	C617.330627,197.658249 622.183533,197.604950 626.944214,196.915649 
	C644.692993,194.345764 654.635010,182.750076 654.646667,164.872513 
	C654.661255,142.544693 654.650269,120.216881 654.650269,97.889069 
	C654.650269,96.319008 654.650269,94.748940 654.650269,92.996460 
	C649.051331,92.996460 644.225037,92.996460 639.398804,92.996460 
	C634.632263,92.996460 629.865723,92.996460 625.117737,92.996460 
	C625.010010,95.290489 624.928894,97.016838 624.818237,99.372406 
	C623.627136,98.353493 623.043396,97.820915 622.426025,97.330811 
	C605.341064,83.768997 579.746216,92.048317 573.889893,113.055412 
	C571.094238,123.083740 571.231689,133.168686 574.121033,143.111771 
	C578.962830,159.774292 594.229431,168.902557 610.825256,164.899933 
	C615.019043,163.888474 618.885620,161.520065 623.116699,159.682175 
	C622.165833,165.870880 625.679016,173.769089 616.712341,176.705078 
	C610.766479,178.651917 606.919128,176.420868 603.585754,170.192688 
	C593.861023,169.105469 584.154480,168.020279 574.456299,166.936035 
	C572.372559,182.661987 579.320129,193.001633 594.246460,196.018219 
	C599.919983,197.164841 605.783936,197.369537 612.520081,198.003525 
M866.502686,92.999809 
	C862.041077,92.999809 857.579468,92.999809 852.945679,92.999809 
	C852.945679,127.484322 852.945679,161.537094 852.945679,195.720825 
	C863.389343,195.720825 873.617249,195.720825 884.372131,195.720825 
	C884.372131,185.613251 884.372131,175.776428 884.372131,165.519821 
	C885.997925,166.326096 887.023987,166.826736 888.042969,167.341492 
	C906.741333,176.787476 927.520386,167.602310 933.103638,147.369766 
	C936.050598,136.690735 936.062805,125.901184 932.835693,115.362053 
	C928.807739,102.207588 920.987915,92.678772 906.251038,91.160316 
	C897.259155,90.233803 889.311523,93.001373 881.915649,99.814804 
	C881.915649,96.928833 881.915649,95.072540 881.915649,93.439545 
	C881.291321,93.170807 881.142151,93.050987 880.992310,93.050186 
	C876.494385,93.026169 871.996460,93.013916 866.502686,92.999809 
M790.119873,110.683693 
	C790.712158,109.116219 790.846558,106.813461 791.976746,106.109657 
	C796.657471,103.194756 804.301086,105.410995 807.401306,109.956650 
	C808.066284,110.931610 809.597473,111.972557 810.668579,111.911598 
	C820.739624,111.338409 830.797363,110.532379 841.150757,109.772156 
	C837.229797,96.987473 829.988586,87.893776 816.562683,85.414413 
	C803.849060,83.066582 791.001465,82.923531 778.458984,86.332306 
	C769.012451,88.899666 761.635742,94.429512 758.980713,104.470970 
	C756.392944,114.258286 758.975586,122.987526 766.905334,129.023453 
	C771.348145,132.405228 777.154968,134.389450 782.650391,135.901123 
	C790.791138,138.140503 799.230957,139.274246 807.468323,141.199844 
	C808.875183,141.528717 810.838806,143.443466 810.862000,144.657745 
	C810.887512,145.992111 809.245239,147.882736 807.847656,148.631454 
	C800.866516,152.371384 793.113464,149.592224 789.267578,142.542862 
	C788.614014,141.344940 786.623718,140.035965 785.364990,140.141296 
	C775.132629,140.997391 764.927490,142.178101 754.470764,143.285721 
	C756.630127,155.750534 763.273560,164.266220 775.186951,167.980392 
	C786.623901,171.546036 798.434753,171.618820 810.283325,170.449921 
	C818.189880,169.669907 825.714355,167.733200 832.146667,162.894485 
	C840.205505,156.832306 844.206299,148.630814 842.923523,138.563354 
	C841.676453,128.776413 835.655090,122.357704 826.583862,118.904472 
	C823.043030,117.556534 819.302063,116.642570 815.580872,115.878952 
	C807.315002,114.182770 799.004028,112.706383 790.119873,110.683693 
M1025.595215,162.746506 
	C1025.064087,159.835190 1024.124146,156.930786 1024.074585,154.011307 
	C1023.891296,143.194412 1024.094116,132.371536 1023.979614,121.552734 
	C1023.813965,105.899857 1016.834778,95.584694 1004.185547,93.006897 
	C990.538452,90.225754 976.761230,90.050095 963.104431,93.091820 
	C951.267944,95.728111 943.933960,104.241661 943.358887,115.702950 
	C953.028442,116.809250 962.712585,117.917229 972.271912,119.010925 
	C975.973938,111.852936 980.175110,109.849297 988.273193,111.079521 
	C991.356934,111.547997 993.066895,113.108864 992.837036,116.932930 
	C989.681396,117.909134 986.428223,119.062630 983.098328,119.917534 
	C973.791077,122.307083 964.273010,124.030830 955.173950,127.034492 
	C945.312378,130.289856 940.876831,137.691849 940.998230,148.080963 
	C941.109192,157.569763 946.789612,166.157104 956.044434,168.761292 
	C961.671021,170.344589 967.953247,171.225876 973.672546,170.448334 
	C981.172119,169.428772 988.407166,166.463120 995.491943,164.410965 
	C996.735046,165.541122 998.555176,168.644501 1000.553406,168.763672 
	C1009.598267,169.303177 1018.693481,168.999603 1028.256226,168.999603 
	C1027.312256,166.779877 1026.613892,165.137939 1025.595215,162.746506 
M522.917358,94.232300 
	C519.993042,96.309181 517.068726,98.386063 513.895935,100.639389 
	C513.718811,98.043320 513.556091,95.658096 513.389893,93.221275 
	C503.639771,93.221275 494.220978,93.221275 484.592773,93.221275 
	C484.592773,118.499672 484.592773,143.550293 484.592773,168.635635 
	C495.033752,168.635635 505.222656,168.635635 515.655029,168.635635 
	C515.655029,163.791733 515.610474,159.313919 515.664185,154.837280 
	C515.779846,145.190369 515.655273,135.527695 516.197327,125.903465 
	C516.538940,119.838173 520.285950,116.755112 525.480896,117.012581 
	C530.225769,117.247742 532.287964,120.010117 532.324463,126.648331 
	C532.394104,139.299820 532.336365,151.951996 532.356934,164.603836 
	C532.359253,166.018250 532.526367,167.432419 532.607117,168.691452 
	C543.349487,168.691452 553.588623,168.691452 564.002930,168.691452 
	C564.002930,152.079330 564.324768,135.773239 563.915405,119.485519 
	C563.477295,102.052071 556.169556,92.861053 541.114563,91.407532 
	C535.414429,90.857193 529.453613,93.007057 522.917358,94.232300 
M1137.279785,162.253006 
	C1142.148071,164.616028 1146.798340,167.776596 1151.929321,169.178772 
	C1163.195190,172.257599 1174.736816,171.621078 1185.983887,168.799759 
	C1197.348511,165.948959 1204.665527,158.118439 1210.106689,147.390274 
	C1201.171875,146.441574 1192.767334,145.794434 1184.452393,144.549316 
	C1180.979004,144.029190 1178.693359,144.369827 1176.348755,147.266129 
	C1173.083496,151.299728 1168.369995,151.983200 1163.615601,150.330887 
	C1158.992798,148.724335 1156.671753,145.135147 1156.223999,139.832550 
	C1174.432495,139.832550 1192.350952,139.832550 1210.816772,139.832550 
	C1210.552124,134.661575 1210.597778,129.852798 1210.010254,125.122673 
	C1208.168579,110.296333 1201.151245,99.044922 1186.512817,94.022408 
	C1175.780029,90.339958 1164.644043,89.930481 1153.550903,92.489067 
	C1138.996948,95.845863 1129.183838,104.741058 1125.508667,119.194084 
	C1121.435181,135.213272 1124.320923,149.882339 1137.279785,162.253006 
M312.407196,92.995918 
	C303.318726,92.995918 294.230286,92.995918 285.000397,92.995918 
	C285.000397,110.133728 284.579285,126.630356 285.105530,143.096710 
	C285.784119,164.329071 299.214935,174.675140 319.783783,169.817673 
	C325.149445,168.550537 329.956543,164.918320 335.102783,162.330811 
	C335.102783,164.158905 335.102783,166.423798 335.102783,168.783142 
	C345.000397,168.783142 354.592834,168.783142 364.386963,168.783142 
	C364.386963,143.492340 364.386963,118.422890 364.386963,93.201340 
	C354.027435,93.201340 343.932800,93.201340 333.348755,93.201340 
	C333.348755,105.188065 333.475433,116.978226 333.275208,128.762833 
	C333.211182,132.531616 332.795593,136.458008 331.608673,139.999893 
	C330.324158,143.832886 326.934387,145.458969 322.781555,144.957642 
	C318.749664,144.470917 317.185638,141.771408 316.786041,138.118011 
	C316.551636,135.974457 316.305481,133.817947 316.296722,131.666321 
	C316.249207,120.002708 316.269806,108.338814 316.278168,96.675011 
	C316.279602,94.672188 316.706116,92.378723 312.407196,92.995918 
M738.485901,102.013565 
	C730.872314,94.736557 721.411194,92.192642 711.270264,91.141121 
	C679.213318,87.817154 656.186707,114.553558 666.024048,144.261185 
	C671.775208,161.628922 685.200562,169.573746 702.785706,170.773865 
	C721.898865,172.078247 737.500732,165.758392 745.794250,149.810089 
	C753.650330,134.703094 750.763855,115.426918 738.485901,102.013565 
M230.795975,68.315086 
	C220.861374,71.032845 225.503708,79.530426 223.998260,86.056870 
	C220.396957,86.056870 216.820251,86.056870 213.246246,86.056870 
	C213.246246,94.959724 213.246246,103.376335 213.246246,112.314362 
	C217.035019,112.314362 220.586975,112.314362 224.901810,112.314362 
	C224.901810,124.649155 224.600571,136.470581 224.988693,148.269348 
	C225.358078,159.498444 230.663834,166.820282 240.029938,169.376358 
	C252.389206,172.749313 264.629181,170.755814 276.990662,168.105637 
	C276.000366,159.660187 275.065918,151.691071 274.137939,143.776825 
	C270.144348,144.585876 266.903839,145.684937 263.656860,145.704330 
	C262.144104,145.713364 259.341370,143.673706 259.300049,142.486877 
	C258.948853,132.405182 259.099243,122.306038 259.099243,111.804886 
	C264.837677,111.804886 270.084808,111.804886 275.305115,111.804886 
	C275.305115,102.988487 275.305115,94.593590 275.305115,85.798782 
	C269.707245,85.798782 264.450134,85.798782 258.835846,85.798782 
	C258.835846,75.013771 258.835846,64.633522 258.835846,53.699078 
	C249.360840,58.641037 240.410324,63.309425 230.795975,68.315086 
M1105.726196,98.729301 
	C1096.197266,91.626038 1085.054199,90.778511 1073.848389,91.072838 
	C1049.936890,91.700882 1035.771729,104.249878 1033.200928,126.509361 
	C1030.652710,148.573837 1042.076416,165.631165 1063.299194,169.375702 
	C1072.301758,170.964127 1081.947266,170.894547 1091.026245,169.622086 
	C1106.410767,167.465881 1118.296997,154.457581 1119.527588,140.308746 
	C1109.832031,139.191376 1100.130859,138.073334 1090.531738,136.967072 
	C1089.569458,138.997147 1088.895020,140.882584 1087.853394,142.536972 
	C1083.589478,149.309540 1073.272095,150.093155 1067.974243,144.124069 
	C1062.529175,137.989014 1062.867432,123.532249 1068.594482,117.621971 
	C1075.143311,110.863586 1084.502686,113.207687 1089.676636,123.022636 
	C1099.123657,121.904541 1108.624878,120.780014 1118.533325,119.607300 
	C1116.594116,111.106049 1112.732178,104.376793 1105.726196,98.729301 
M412.956238,120.545799 
	C417.469391,114.251312 423.006500,117.849045 428.531006,119.228012 
	C431.805542,111.553940 435.019867,104.020950 438.298462,96.337395 
	C427.249817,90.003235 416.919189,87.773643 407.280609,98.604767 
	C407.092957,96.292053 406.965027,94.715370 406.857086,93.384918 
	C396.922546,93.384918 387.375427,93.384918 377.916779,93.384918 
	C377.916779,118.695900 377.916779,143.621750 377.916779,168.752869 
	C388.324738,168.752869 398.547577,168.752869 409.094788,168.752869 
	C409.094788,158.555710 408.698700,148.581009 409.244690,138.658127 
	C409.567444,132.793030 411.380280,127.009911 412.956238,120.545799 
M441.829346,92.990013 
	C437.954132,92.902100 439.390564,95.865616 439.384064,97.636711 
	C439.302521,119.765610 439.333801,141.894928 439.336090,164.024139 
	C439.336273,165.616623 439.336151,167.209122 439.336151,168.742645 
	C450.101135,168.742645 460.183960,168.742645 470.399597,168.742645 
	C470.399597,143.433273 470.399597,118.393341 470.399597,92.988686 
	C461.018646,92.988686 451.897186,92.988686 441.829346,92.990013 
M439.985077,66.205490 
	C439.985077,73.724442 439.985077,81.243401 439.985077,88.793602 
	C450.031281,88.793602 460.110229,88.793602 470.421143,88.793602 
	C470.421143,81.188095 470.421143,73.800552 470.421143,66.006355 
	C460.422760,66.006355 450.661224,66.006355 439.985077,66.205490 
z"/>
<path fill="#191818" opacity="1.000000" stroke="none" 
	d="
M11.360605,124.999847 
	C11.360607,98.176331 11.354506,71.852814 11.362470,45.529301 
	C11.369054,23.763344 24.062016,10.999472 45.680714,10.999229 
	C86.832031,10.998768 127.983345,10.996997 169.134659,10.999973 
	C189.975937,11.001481 202.998703,24.099478 203.000092,45.059811 
	C203.002792,85.544708 202.746872,126.031837 203.103531,166.513596 
	C203.293777,188.106110 186.967316,200.820633 169.110260,200.501633 
	C127.472420,199.757782 85.806107,199.855087 44.164352,200.479965 
	C29.006800,200.707413 11.005830,189.653503 11.323256,167.483719 
	C11.523593,153.491791 11.360605,139.494644 11.360605,124.999847 
M137.704193,144.512131 
	C137.238190,144.685608 136.785507,144.923859 136.304184,145.022964 
	C127.700569,146.794342 119.917656,144.606583 112.394516,140.438492 
	C110.943253,139.634430 107.724625,139.488586 106.967384,140.402695 
	C103.721062,144.321548 106.486305,154.117340 111.263710,156.202057 
	C122.729141,161.205261 134.707474,162.035568 146.193192,157.311234 
	C151.381027,155.177353 156.557861,150.848129 159.622223,146.137497 
	C167.942245,133.347595 163.490845,117.714844 150.142395,110.135765 
	C144.377747,106.862671 138.158997,104.395393 132.347900,101.196297 
	C126.885315,98.189041 125.017967,94.223923 126.320343,89.912003 
	C127.650688,85.507439 131.322052,82.803802 137.409149,83.550743 
	C142.547058,84.181221 147.470276,86.460388 152.537338,87.829109 
	C154.104172,88.252342 156.551315,88.828560 157.356354,88.051331 
	C160.353470,85.157776 158.076126,74.467300 154.209671,72.632179 
	C144.279160,67.918915 133.983185,67.519974 123.666550,71.028824 
	C112.436752,74.848244 106.511772,84.920410 107.536552,96.720894 
	C108.527931,108.136871 115.590935,114.454742 125.066948,119.037857 
	C129.546494,121.204422 134.210739,123.064537 138.460480,125.614769 
	C146.814041,130.627640 146.683456,138.863678 137.704193,144.512131 
M40.714394,70.998993 
	C34.887585,71.093620 34.399899,71.903900 34.596836,79.357033 
	C34.702419,83.352737 35.852268,85.410545 40.447105,85.101784 
	C46.534401,84.692741 52.669895,85.000999 59.093773,85.000999 
	C59.093773,105.794289 59.000912,126.091728 59.129353,146.387756 
	C59.203831,158.156250 56.330597,157.975174 71.027336,158.059738 
	C75.647797,158.086304 77.510498,156.590515 77.456863,151.678070 
	C77.234924,131.348816 77.363808,111.015732 77.363838,90.684052 
	C77.363838,88.898727 77.363846,87.113411 77.363846,85.000977 
	C84.043205,85.000977 90.204468,84.692604 96.320015,85.089241 
	C102.225494,85.472244 101.782593,81.451828 101.830559,77.901840 
	C101.880203,74.227386 101.933228,70.772057 96.168694,70.877083 
	C78.009537,71.207893 59.840538,70.998993 40.714394,70.998993 
z"/>
<path fill="#1A1919" opacity="1.000000" stroke="none" 
	d="
M612.040588,198.003540 
	C605.783936,197.369537 599.919983,197.164841 594.246460,196.018219 
	C579.320129,193.001633 572.372559,182.661987 574.456299,166.936035 
	C584.154480,168.020279 593.861023,169.105469 603.585754,170.192688 
	C606.919128,176.420868 610.766479,178.651917 616.712341,176.705078 
	C625.679016,173.769089 622.165833,165.870880 623.116699,159.682175 
	C618.885620,161.520065 615.019043,163.888474 610.825256,164.899933 
	C594.229431,168.902557 578.962830,159.774292 574.121033,143.111771 
	C571.231689,133.168686 571.094238,123.083740 573.889893,113.055412 
	C579.746216,92.048317 605.341064,83.768997 622.426025,97.330811 
	C623.043396,97.820915 623.627136,98.353493 624.818237,99.372406 
	C624.928894,97.016838 625.010010,95.290489 625.117737,92.996460 
	C629.865723,92.996460 634.632263,92.996460 639.398804,92.996460 
	C644.225037,92.996460 649.051331,92.996460 654.650269,92.996460 
	C654.650269,94.748940 654.650269,96.319008 654.650269,97.889069 
	C654.650269,120.216881 654.661255,142.544693 654.646667,164.872513 
	C654.635010,182.750076 644.692993,194.345764 626.944214,196.915649 
	C622.183533,197.604950 617.330627,197.658249 612.040588,198.003540 
M610.142334,115.179192 
	C603.855225,118.588737 601.264893,127.443970 604.084106,136.102356 
	C605.438110,140.260849 608.108826,142.839127 612.721497,143.009445 
	C617.498108,143.185822 620.957336,140.964890 622.112732,136.524902 
	C623.044495,132.944550 623.270569,128.999207 622.911621,125.303017 
	C622.222107,118.203064 618.176086,115.027687 610.142334,115.179192 
z"/>
<path fill="#191818" opacity="1.000000" stroke="none" 
	d="
M867.000610,92.999809 
	C871.996460,93.013916 876.494385,93.026169 880.992310,93.050186 
	C881.142151,93.050987 881.291321,93.170807 881.915649,93.439545 
	C881.915649,95.072540 881.915649,96.928833 881.915649,99.814804 
	C889.311523,93.001373 897.259155,90.233803 906.251038,91.160316 
	C920.987915,92.678772 928.807739,102.207588 932.835693,115.362053 
	C936.062805,125.901184 936.050598,136.690735 933.103638,147.369766 
	C927.520386,167.602310 906.741333,176.787476 888.042969,167.341492 
	C887.023987,166.826736 885.997925,166.326096 884.372131,165.519821 
	C884.372131,175.776428 884.372131,185.613251 884.372131,195.720825 
	C873.617249,195.720825 863.389343,195.720825 852.945679,195.720825 
	C852.945679,161.537094 852.945679,127.484322 852.945679,92.999809 
	C857.579468,92.999809 862.041077,92.999809 867.000610,92.999809 
M886.078491,119.835533 
	C883.054504,126.695717 883.045776,133.761948 885.421997,140.682938 
	C886.880493,144.930695 890.258423,147.343109 895.068970,146.988388 
	C899.631958,146.651917 902.159790,143.532318 902.660095,139.635071 
	C903.345276,134.298309 903.688538,128.673325 902.687927,123.457802 
	C902.105225,120.420547 899.132568,116.949936 896.296936,115.458923 
	C892.620361,113.525772 888.935669,115.701759 886.078491,119.835533 
z"/>
<path fill="#1A1919" opacity="1.000000" stroke="none" 
	d="
M790.415649,110.912048 
	C799.004028,112.706383 807.315002,114.182770 815.580872,115.878952 
	C819.302063,116.642570 823.043030,117.556534 826.583862,118.904472 
	C835.655090,122.357704 841.676453,128.776413 842.923523,138.563354 
	C844.206299,148.630814 840.205505,156.832306 832.146667,162.894485 
	C825.714355,167.733200 818.189880,169.669907 810.283325,170.449921 
	C798.434753,171.618820 786.623901,171.546036 775.186951,167.980392 
	C763.273560,164.266220 756.630127,155.750534 754.470764,143.285721 
	C764.927490,142.178101 775.132629,140.997391 785.364990,140.141296 
	C786.623718,140.035965 788.614014,141.344940 789.267578,142.542862 
	C793.113464,149.592224 800.866516,152.371384 807.847656,148.631454 
	C809.245239,147.882736 810.887512,145.992111 810.862000,144.657745 
	C810.838806,143.443466 808.875183,141.528717 807.468323,141.199844 
	C799.230957,139.274246 790.791138,138.140503 782.650391,135.901123 
	C777.154968,134.389450 771.348145,132.405228 766.905334,129.023453 
	C758.975586,122.987526 756.392944,114.258286 758.980713,104.470970 
	C761.635742,94.429512 769.012451,88.899666 778.458984,86.332306 
	C791.001465,82.923531 803.849060,83.066582 816.562683,85.414413 
	C829.988586,87.893776 837.229797,96.987473 841.150757,109.772156 
	C830.797363,110.532379 820.739624,111.338409 810.668579,111.911598 
	C809.597473,111.972557 808.066284,110.931610 807.401306,109.956650 
	C804.301086,105.410995 796.657471,103.194756 791.976746,106.109657 
	C790.846558,106.813461 790.712158,109.116219 790.415649,110.912048 
z"/>
<path fill="#1A1919" opacity="1.000000" stroke="none" 
	d="
M1025.755371,163.121246 
	C1026.613892,165.137939 1027.312256,166.779877 1028.256226,168.999603 
	C1018.693481,168.999603 1009.598267,169.303177 1000.553406,168.763672 
	C998.555176,168.644501 996.735046,165.541122 995.491943,164.410965 
	C988.407166,166.463120 981.172119,169.428772 973.672546,170.448334 
	C967.953247,171.225876 961.671021,170.344589 956.044434,168.761292 
	C946.789612,166.157104 941.109192,157.569763 940.998230,148.080963 
	C940.876831,137.691849 945.312378,130.289856 955.173950,127.034492 
	C964.273010,124.030830 973.791077,122.307083 983.098328,119.917534 
	C986.428223,119.062630 989.681396,117.909134 992.837036,116.932930 
	C993.066895,113.108864 991.356934,111.547997 988.273193,111.079521 
	C980.175110,109.849297 975.973938,111.852936 972.271912,119.010925 
	C962.712585,117.917229 953.028442,116.809250 943.358887,115.702950 
	C943.933960,104.241661 951.267944,95.728111 963.104431,93.091820 
	C976.761230,90.050095 990.538452,90.225754 1004.185547,93.006897 
	C1016.834778,95.584694 1023.813965,105.899857 1023.979614,121.552734 
	C1024.094116,132.371536 1023.891296,143.194412 1024.074585,154.011307 
	C1024.124146,156.930786 1025.064087,159.835190 1025.755371,163.121246 
M992.010986,144.137802 
	C992.412048,141.191238 992.813049,138.244659 993.276367,134.840546 
	C989.591675,135.941986 986.882690,136.668030 984.232300,137.566895 
	C981.416565,138.521866 978.195984,139.077789 976.014404,140.862167 
	C974.193359,142.351608 972.507935,145.539062 972.840210,147.647034 
	C973.108887,149.352051 976.334595,151.506577 978.488831,151.822189 
	C984.285461,152.671417 988.662598,149.752701 992.010986,144.137802 
z"/>
<path fill="#1C1B1B" opacity="1.000000" stroke="none" 
	d="
M523.264526,94.079208 
	C529.453613,93.007057 535.414429,90.857193 541.114563,91.407532 
	C556.169556,92.861053 563.477295,102.052071 563.915405,119.485519 
	C564.324768,135.773239 564.002930,152.079330 564.002930,168.691452 
	C553.588623,168.691452 543.349487,168.691452 532.607117,168.691452 
	C532.526367,167.432419 532.359253,166.018250 532.356934,164.603836 
	C532.336365,151.951996 532.394104,139.299820 532.324463,126.648331 
	C532.287964,120.010117 530.225769,117.247742 525.480896,117.012581 
	C520.285950,116.755112 516.538940,119.838173 516.197327,125.903465 
	C515.655273,135.527695 515.779846,145.190369 515.664185,154.837280 
	C515.610474,159.313919 515.655029,163.791733 515.655029,168.635635 
	C505.222656,168.635635 495.033752,168.635635 484.592773,168.635635 
	C484.592773,143.550293 484.592773,118.499672 484.592773,93.221275 
	C494.220978,93.221275 503.639771,93.221275 513.389893,93.221275 
	C513.556091,95.658096 513.718811,98.043320 513.895935,100.639389 
	C517.068726,98.386063 519.993042,96.309181 523.264526,94.079208 
z"/>
<path fill="#1A1919" opacity="1.000000" stroke="none" 
	d="
M1137.000732,162.028442 
	C1124.320923,149.882339 1121.435181,135.213272 1125.508667,119.194084 
	C1129.183838,104.741058 1138.996948,95.845863 1153.550903,92.489067 
	C1164.644043,89.930481 1175.780029,90.339958 1186.512817,94.022408 
	C1201.151245,99.044922 1208.168579,110.296333 1210.010254,125.122673 
	C1210.597778,129.852798 1210.552124,134.661575 1210.816772,139.832550 
	C1192.350952,139.832550 1174.432495,139.832550 1156.223999,139.832550 
	C1156.671753,145.135147 1158.992798,148.724335 1163.615601,150.330887 
	C1168.369995,151.983200 1173.083496,151.299728 1176.348755,147.266129 
	C1178.693359,144.369827 1180.979004,144.029190 1184.452393,144.549316 
	C1192.767334,145.794434 1201.171875,146.441574 1210.106689,147.390274 
	C1204.665527,158.118439 1197.348511,165.948959 1185.983887,168.799759 
	C1174.736816,171.621078 1163.195190,172.257599 1151.929321,169.178772 
	C1146.798340,167.776596 1142.148071,164.616028 1137.000732,162.028442 
M1178.121338,121.771446 
	C1177.536377,114.840385 1174.251099,111.246620 1168.270508,110.995567 
	C1161.581909,110.714806 1157.759277,114.119522 1156.286865,121.989571 
	C1163.308350,121.989571 1170.265015,121.989571 1178.121338,121.771446 
z"/>
<path fill="#1B1A1A" opacity="1.000000" stroke="none" 
	d="
M312.899597,92.996101 
	C316.706116,92.378723 316.279602,94.672188 316.278168,96.675011 
	C316.269806,108.338814 316.249207,120.002708 316.296722,131.666321 
	C316.305481,133.817947 316.551636,135.974457 316.786041,138.118011 
	C317.185638,141.771408 318.749664,144.470917 322.781555,144.957642 
	C326.934387,145.458969 330.324158,143.832886 331.608673,139.999893 
	C332.795593,136.458008 333.211182,132.531616 333.275208,128.762833 
	C333.475433,116.978226 333.348755,105.188065 333.348755,93.201340 
	C343.932800,93.201340 354.027435,93.201340 364.386963,93.201340 
	C364.386963,118.422890 364.386963,143.492340 364.386963,168.783142 
	C354.592834,168.783142 345.000397,168.783142 335.102783,168.783142 
	C335.102783,166.423798 335.102783,164.158905 335.102783,162.330811 
	C329.956543,164.918320 325.149445,168.550537 319.783783,169.817673 
	C299.214935,174.675140 285.784119,164.329071 285.105530,143.096710 
	C284.579285,126.630356 285.000397,110.133728 285.000397,92.995918 
	C294.230286,92.995918 303.318726,92.995918 312.899597,92.996101 
z"/>
<path fill="#1A1919" opacity="1.000000" stroke="none" 
	d="
M738.737183,102.264801 
	C750.763855,115.426918 753.650330,134.703094 745.794250,149.810089 
	C737.500732,165.758392 721.898865,172.078247 702.785706,170.773865 
	C685.200562,169.573746 671.775208,161.628922 666.024048,144.261185 
	C656.186707,114.553558 679.213318,87.817154 711.270264,91.141121 
	C721.411194,92.192642 730.872314,94.736557 738.737183,102.264801 
M716.714905,141.960571 
	C717.114441,135.775223 718.210083,129.533356 717.713562,123.420784 
	C717.237793,117.563454 712.479797,114.052750 707.285400,113.994102 
	C702.047302,113.934975 697.279907,117.265404 696.380188,122.998466 
	C695.575317,128.126755 695.679077,133.534943 696.302673,138.708633 
	C696.844360,143.202850 699.805969,146.719177 704.467834,147.762573 
	C709.471069,148.882416 713.626587,147.234650 716.714905,141.960571 
z"/>
<path fill="#1A1919" opacity="1.000000" stroke="none" 
	d="
M231.127899,68.146454 
	C240.410324,63.309425 249.360840,58.641037 258.835846,53.699078 
	C258.835846,64.633522 258.835846,75.013771 258.835846,85.798782 
	C264.450134,85.798782 269.707245,85.798782 275.305115,85.798782 
	C275.305115,94.593590 275.305115,102.988487 275.305115,111.804886 
	C270.084808,111.804886 264.837677,111.804886 259.099243,111.804886 
	C259.099243,122.306038 258.948853,132.405182 259.300049,142.486877 
	C259.341370,143.673706 262.144104,145.713364 263.656860,145.704330 
	C266.903839,145.684937 270.144348,144.585876 274.137939,143.776825 
	C275.065918,151.691071 276.000366,159.660187 276.990662,168.105637 
	C264.629181,170.755814 252.389206,172.749313 240.029938,169.376358 
	C230.663834,166.820282 225.358078,159.498444 224.988693,148.269348 
	C224.600571,136.470581 224.901810,124.649155 224.901810,112.314362 
	C220.586975,112.314362 217.035019,112.314362 213.246246,112.314362 
	C213.246246,103.376335 213.246246,94.959724 213.246246,86.056870 
	C216.820251,86.056870 220.396957,86.056870 223.998260,86.056870 
	C225.503708,79.530426 220.861374,71.032845 231.127899,68.146454 
z"/>
<path fill="#1A1919" opacity="1.000000" stroke="none" 
	d="
M1106.021484,98.935593 
	C1112.732178,104.376793 1116.594116,111.106049 1118.533325,119.607300 
	C1108.624878,120.780014 1099.123657,121.904541 1089.676636,123.022636 
	C1084.502686,113.207687 1075.143311,110.863586 1068.594482,117.621971 
	C1062.867432,123.532249 1062.529175,137.989014 1067.974243,144.124069 
	C1073.272095,150.093155 1083.589478,149.309540 1087.853394,142.536972 
	C1088.895020,140.882584 1089.569458,138.997147 1090.531738,136.967072 
	C1100.130859,138.073334 1109.832031,139.191376 1119.527588,140.308746 
	C1118.296997,154.457581 1106.410767,167.465881 1091.026245,169.622086 
	C1081.947266,170.894547 1072.301758,170.964127 1063.299194,169.375702 
	C1042.076416,165.631165 1030.652710,148.573837 1033.200928,126.509361 
	C1035.771729,104.249878 1049.936890,91.700882 1073.848389,91.072838 
	C1085.054199,90.778511 1096.197266,91.626038 1106.021484,98.935593 
z"/>
<path fill="#191818" opacity="1.000000" stroke="none" 
	d="
M412.739624,120.867859 
	C411.380280,127.009911 409.567444,132.793030 409.244690,138.658127 
	C408.698700,148.581009 409.094788,158.555710 409.094788,168.752869 
	C398.547577,168.752869 388.324738,168.752869 377.916779,168.752869 
	C377.916779,143.621750 377.916779,118.695900 377.916779,93.384918 
	C387.375427,93.384918 396.922546,93.384918 406.857086,93.384918 
	C406.965027,94.715370 407.092957,96.292053 407.280609,98.604767 
	C416.919189,87.773643 427.249817,90.003235 438.298462,96.337395 
	C435.019867,104.020950 431.805542,111.553940 428.531006,119.228012 
	C423.006500,117.849045 417.469391,114.251312 412.739624,120.867859 
z"/>
<path fill="#1E1D1D" opacity="1.000000" stroke="none" 
	d="
M442.302521,92.989349 
	C451.897186,92.988686 461.018646,92.988686 470.399597,92.988686 
	C470.399597,118.393341 470.399597,143.433273 470.399597,168.742645 
	C460.183960,168.742645 450.101135,168.742645 439.336151,168.742645 
	C439.336151,167.209122 439.336273,165.616623 439.336090,164.024139 
	C439.333801,141.894928 439.302521,119.765610 439.384064,97.636711 
	C439.390564,95.865616 437.954132,92.902100 442.302521,92.989349 
z"/>
<path fill="#1E1D1D" opacity="1.000000" stroke="none" 
	d="
M440.442383,66.105927 
	C450.661224,66.006355 460.422760,66.006355 470.421143,66.006355 
	C470.421143,73.800552 470.421143,81.188095 470.421143,88.793602 
	C460.110229,88.793602 450.031281,88.793602 439.985077,88.793602 
	C439.985077,81.243401 439.985077,73.724442 440.442383,66.105927 
z"/>
<path fill="#FBFBFB" opacity="1.000000" stroke="none" 
	d="
M138.062012,144.348541 
	C146.683456,138.863678 146.814041,130.627640 138.460480,125.614769 
	C134.210739,123.064537 129.546494,121.204422 125.066948,119.037857 
	C115.590935,114.454742 108.527931,108.136871 107.536552,96.720894 
	C106.511772,84.920410 112.436752,74.848244 123.666550,71.028824 
	C133.983185,67.519974 144.279160,67.918915 154.209671,72.632179 
	C158.076126,74.467300 160.353470,85.157776 157.356354,88.051331 
	C156.551315,88.828560 154.104172,88.252342 152.537338,87.829109 
	C147.470276,86.460388 142.547058,84.181221 137.409149,83.550743 
	C131.322052,82.803802 127.650688,85.507439 126.320343,89.912003 
	C125.017967,94.223923 126.885315,98.189041 132.347900,101.196297 
	C138.158997,104.395393 144.377747,106.862671 150.142395,110.135765 
	C163.490845,117.714844 167.942245,133.347595 159.622223,146.137497 
	C156.557861,150.848129 151.381027,155.177353 146.193192,157.311234 
	C134.707474,162.035568 122.729141,161.205261 111.263710,156.202057 
	C106.486305,154.117340 103.721062,144.321548 106.967384,140.402695 
	C107.724625,139.488586 110.943253,139.634430 112.394516,140.438492 
	C119.917656,144.606583 127.700569,146.794342 136.304184,145.022964 
	C136.785507,144.923859 137.238190,144.685608 138.062012,144.348541 
z"/>
<path fill="#FDFDFD" opacity="1.000000" stroke="none" 
	d="
M41.194870,70.998993 
	C59.840538,70.998993 78.009537,71.207893 96.168694,70.877083 
	C101.933228,70.772057 101.880203,74.227386 101.830559,77.901840 
	C101.782593,81.451828 102.225494,85.472244 96.320015,85.089241 
	C90.204468,84.692604 84.043205,85.000977 77.363846,85.000977 
	C77.363846,87.113411 77.363838,88.898727 77.363838,90.684052 
	C77.363808,111.015732 77.234924,131.348816 77.456863,151.678070 
	C77.510498,156.590515 75.647797,158.086304 71.027336,158.059738 
	C56.330597,157.975174 59.203831,158.156250 59.129353,146.387756 
	C59.000912,126.091728 59.093773,105.794289 59.093773,85.000999 
	C52.669895,85.000999 46.534401,84.692741 40.447105,85.101784 
	C35.852268,85.410545 34.702419,83.352737 34.596836,79.357033 
	C34.399899,71.903900 34.887585,71.093620 41.194870,70.998993 
z"/>
<path fill="#FBFBFB" opacity="1.000000" stroke="none" 
	d="
M610.538696,115.121368 
	C618.176086,115.027687 622.222107,118.203064 622.911621,125.303017 
	C623.270569,128.999207 623.044495,132.944550 622.112732,136.524902 
	C620.957336,140.964890 617.498108,143.185822 612.721497,143.009445 
	C608.108826,142.839127 605.438110,140.260849 604.084106,136.102356 
	C601.264893,127.443970 603.855225,118.588737 610.538696,115.121368 
z"/>
<path fill="#FAFAFA" opacity="1.000000" stroke="none" 
	d="
M886.273926,119.501373 
	C888.935669,115.701759 892.620361,113.525772 896.296936,115.458923 
	C899.132568,116.949936 902.105225,120.420547 902.687927,123.457802 
	C903.688538,128.673325 903.345276,134.298309 902.660095,139.635071 
	C902.159790,143.532318 899.631958,146.651917 895.068970,146.988388 
	C890.258423,147.343109 886.880493,144.930695 885.421997,140.682938 
	C883.045776,133.761948 883.054504,126.695717 886.273926,119.501373 
z"/>
<path fill="#F7F7F7" opacity="1.000000" stroke="none" 
	d="
M991.884033,144.510254 
	C988.662598,149.752701 984.285461,152.671417 978.488831,151.822189 
	C976.334595,151.506577 973.108887,149.352051 972.840210,147.647034 
	C972.507935,145.539062 974.193359,142.351608 976.014404,140.862167 
	C978.195984,139.077789 981.416565,138.521866 984.232300,137.566895 
	C986.882690,136.668030 989.591675,135.941986 993.276367,134.840546 
	C992.813049,138.244659 992.412048,141.191238 991.884033,144.510254 
z"/>
<path fill="#F9F9F9" opacity="1.000000" stroke="none" 
	d="
M1177.671509,121.880508 
	C1170.265015,121.989571 1163.308350,121.989571 1156.286865,121.989571 
	C1157.759277,114.119522 1161.581909,110.714806 1168.270508,110.995567 
	C1174.251099,111.246620 1177.536377,114.840385 1177.671509,121.880508 
z"/>
<path fill="#FAFAFA" opacity="1.000000" stroke="none" 
	d="
M716.512451,142.286072 
	C713.626587,147.234650 709.471069,148.882416 704.467834,147.762573 
	C699.805969,146.719177 696.844360,143.202850 696.302673,138.708633 
	C695.679077,133.534943 695.575317,128.126755 696.380188,122.998466 
	C697.279907,117.265404 702.047302,113.934975 707.285400,113.994102 
	C712.479797,114.052750 717.237793,117.563454 717.713562,123.420784 
	C718.210083,129.533356 717.114441,135.775223 716.512451,142.286072 
z"/>
</svg>