<svg version="1.1" id="Layer_1" xmlns="http://www.w3.org/2000/svg" xmlns:xlink="http://www.w3.org/1999/xlink" x="0px" y="0px"
	 width="100%" viewBox="0 0 1040 176" enable-background="new 0 0 1040 176" xml:space="preserve">
<path fill="#000000" opacity="1.000000" stroke="none" 
	d="
M717.000000,177.000000 
	C478.048950,177.000000 239.597885,177.000000 1.073417,177.000000 
	C1.073417,118.394394 1.073417,59.788673 1.073417,1.091476 
	C347.666656,1.091476 694.333313,1.091476 1040.966309,1.091476 
	C1040.966309,59.735687 1040.966309,118.367859 1040.966309,177.000000 
	C933.121765,177.000000 825.310852,177.000000 717.000000,177.000000 
M198.383957,145.829819 
	C198.251816,145.558640 198.119675,145.287476 197.976501,144.477325 
	C197.984116,144.297791 197.991714,144.118256 198.825272,143.641037 
	C198.861664,107.447151 198.898056,71.253273 198.797577,34.575466 
	C198.531052,34.381603 198.264511,34.187740 197.997421,33.221367 
	C195.509003,23.020401 189.568268,16.229601 178.694855,13.481310 
	C178.120636,13.368146 177.546432,13.254981 176.454483,13.046205 
	C176.280563,13.022808 176.106644,12.999411 175.643173,12.147429 
	C131.083420,12.097044 86.523674,12.042685 41.963924,12.036633 
	C41.338211,12.036548 40.712418,12.642899 39.626431,13.557574 
	C35.747433,15.361002 31.868433,17.164431 27.306589,18.991985 
	C25.916374,20.091688 22.492733,19.529287 23.578890,23.196459 
	C23.300186,23.372837 23.098816,23.613834 22.321497,24.231524 
	C21.263090,27.159237 20.204685,30.086948 19.075825,33.668468 
	C19.050192,34.106136 19.024557,34.543800 18.561451,35.176273 
	C18.269279,35.374264 18.135756,35.649261 18.084297,36.552086 
	C18.062862,36.736217 18.041428,36.920345 17.165527,37.332340 
	C17.112013,71.562874 17.053267,105.793404 17.046074,140.023956 
	C17.045944,140.647797 17.660822,141.271774 18.050596,142.577881 
	C18.045078,143.034454 18.039560,143.491028 17.975456,144.733459 
	C19.630001,148.496674 21.284548,152.259872 22.976954,156.016647 
	C22.976954,156.016647 22.965809,156.053406 23.080408,156.574844 
	C23.359011,156.787430 23.637613,157.000015 24.305494,157.743729 
	C27.146461,159.864731 29.987431,161.985748 33.282883,164.696167 
	C35.202946,165.072037 37.123013,165.447891 39.583031,165.925491 
	C39.764503,165.950241 39.945976,165.974991 40.425694,166.814651 
	C85.245392,166.848236 130.065094,166.881836 175.686188,166.949310 
	C182.832733,165.489365 189.684052,163.559021 193.012650,156.005478 
	C193.012650,156.005478 193.058472,156.043320 193.728958,156.008698 
	C194.084946,155.327179 194.440933,154.645645 194.945480,153.570572 
	C194.945480,153.570572 195.129227,153.192169 195.766022,152.854492 
	C196.524750,150.584900 197.283493,148.315308 198.001785,146.020096 
	C198.001785,146.020096 198.046997,146.026932 198.383957,145.829819 
M772.861328,155.615219 
	C772.991089,147.763428 773.120789,139.911621 773.868225,132.125214 
	C776.728577,132.844681 779.598083,133.530121 782.447693,134.289810 
	C792.191589,136.887497 803.237061,132.847595 808.422302,124.191048 
	C813.893066,115.057716 814.519775,105.090355 812.435181,94.780159 
	C811.008240,87.722809 808.200256,81.105179 802.308350,77.179214 
	C792.486572,70.634674 782.006165,70.799492 771.842468,76.978035 
	C770.896118,76.061157 769.880493,74.208702 768.797363,74.168388 
	C761.707458,73.904480 754.602966,74.032524 747.093323,74.032524 
	C747.093323,101.531181 747.093323,128.315353 747.534363,155.819855 
	C755.702209,155.847153 763.869995,155.874451 772.861328,155.615219 
M327.021606,74.892479 
	C327.043732,84.883095 327.065887,94.873711 327.036835,105.689697 
	C326.711151,111.067940 323.832977,114.855255 320.002380,114.946152 
	C316.232910,115.035591 314.083130,111.742783 313.998871,105.744995 
	C313.989563,105.081337 313.998505,104.417442 313.996674,103.753670 
	C313.968933,93.797508 313.940765,83.841354 313.504730,73.133003 
	C305.324066,73.140411 297.143433,73.147820 288.136749,73.420090 
	C288.091309,86.125290 288.028107,98.830521 288.042786,111.535652 
	C288.043701,112.331718 288.653778,113.127083 288.984589,114.765511 
	C289.800690,120.800339 290.225586,127.410568 295.830933,130.956360 
	C306.772827,137.877930 317.758911,135.703339 328.470978,128.960999 
	C328.901489,130.871216 329.211914,132.248611 329.585571,133.906525 
	C336.918549,133.906525 344.033539,133.906525 352.011078,133.976089 
	C352.343292,133.172653 352.963196,132.370041 352.965515,131.565659 
	C353.019531,112.865494 353.018280,94.165108 352.964722,75.464920 
	C352.962494,74.685043 352.355865,73.906906 351.095093,73.018860 
	C346.020447,73.012917 340.942627,72.896912 335.872375,73.043343 
	C332.947662,73.127800 330.035217,73.636147 327.021606,74.892479 
M511.860046,133.581802 
	C511.903931,120.508255 511.965790,107.434677 511.948547,94.361214 
	C511.947449,93.547699 511.325989,92.735001 511.040344,91.092239 
	C511.028778,84.309807 508.428528,78.623253 502.263458,75.770020 
	C492.517578,71.259575 482.715912,70.790092 472.952271,78.010513 
	C472.466248,76.417030 471.980194,74.823547 471.425354,73.004440 
	C468.749542,73.004440 465.928467,72.905258 463.116882,73.026199 
	C458.102905,73.241890 453.094635,73.590561 448.038330,74.834488 
	C448.062469,94.262375 448.086639,113.690262 448.577362,133.811768 
	C456.682343,133.579590 464.787292,133.347397 472.956940,132.165527 
	C473.302246,121.434799 473.780060,110.705879 473.926483,99.972435 
	C473.983612,95.785141 476.796326,93.998550 479.791443,93.201805 
	C483.210571,92.292259 485.127869,94.953712 486.006622,99.021065 
	C486.006622,110.613235 486.006622,122.205406 486.006622,133.881699 
	C494.759094,133.881699 502.903076,133.881699 511.860046,133.581802 
M230.857895,133.970963 
	C239.597900,133.940231 248.337906,133.909500 257.886353,133.568604 
	C257.924194,131.084854 257.982452,128.601227 257.996582,126.117340 
	C258.097565,108.396553 258.189606,90.675728 258.576477,73.099747 
	C258.576477,73.099747 258.897675,73.044098 259.851318,73.008255 
	C261.845917,73.006531 263.844147,73.082382 265.834381,72.988129 
	C271.190369,72.734482 276.542908,72.408211 281.957886,71.161804 
	C281.940979,64.734207 281.924072,58.306606 281.470123,51.150494 
	C256.695007,51.104836 231.919876,51.052212 207.144760,51.049957 
	C206.460327,51.049892 205.775833,51.590546 205.045181,52.830059 
	C205.065475,59.258389 205.085770,65.686722 205.574997,72.807770 
	C213.093765,72.890671 220.612518,72.973579 228.435608,73.108528 
	C228.435608,73.108528 228.704483,72.956764 228.974701,73.865501 
	C228.984863,92.394302 228.974487,110.923180 229.044418,129.451752 
	C229.049988,130.925415 229.611404,132.396957 230.857895,133.970963 
M412.868958,133.979401 
	C415.692871,133.985413 418.521088,134.093491 421.339813,133.975296 
	C426.528778,133.757690 431.712219,133.407043 436.962646,132.162552 
	C436.946930,112.738037 436.931244,93.313515 436.513062,73.132278 
	C428.331757,73.132126 420.150421,73.131981 411.322327,73.148994 
	C410.669739,73.840179 410.017181,74.531364 408.576782,75.034821 
	C401.126282,71.769989 393.747131,69.478210 387.351501,76.953346 
	C384.405182,73.520531 383.636902,73.440819 362.192139,74.568886 
	C362.192139,94.311623 362.192139,114.054367 362.192139,133.881775 
	C370.763031,133.881775 378.905396,133.881775 387.861115,133.582642 
	C387.878693,124.771530 387.896301,115.960419 387.965637,106.333649 
	C388.288422,104.732048 388.588074,103.125374 388.937866,101.529701 
	C390.786194,93.098579 393.879028,91.477875 403.046265,94.990356 
	C405.349213,89.377220 407.668427,83.724457 410.810089,78.374290 
	C410.871979,95.411186 410.911469,112.448235 411.035461,129.484680 
	C411.046143,130.952957 411.616455,132.417160 412.868958,133.979401 
M436.495544,51.135098 
	C428.924805,51.093990 421.353912,51.026501 413.783539,51.061554 
	C413.173859,51.064381 412.567444,51.772228 411.997559,53.067230 
	C411.977570,58.327656 411.957581,63.588085 411.438324,69.386261 
	C419.924194,69.295433 428.410065,69.204605 436.959167,68.165749 
	C436.943390,62.737560 436.927582,57.309376 436.495544,51.135098 
M990.888550,111.033272 
	C1003.592712,111.022636 1016.297058,111.048294 1029.000610,110.957405 
	C1030.668823,110.945465 1032.332764,110.336807 1034.002686,109.091675 
	C1034.003174,107.425842 1034.116577,105.751106 1033.986328,104.095566 
	C1032.879639,90.032433 1028.006104,78.837357 1012.656921,74.504288 
	C1007.098755,72.935234 1000.955933,73.463837 995.085693,72.967102 
	C986.797485,72.265770 979.844543,75.123535 973.810669,80.667549 
	C963.854797,89.815201 963.739746,101.504677 965.787170,113.430977 
	C967.281372,122.135254 972.707336,128.169754 980.912231,131.668686 
	C992.066284,136.425232 1003.523804,135.836655 1014.857361,133.059952 
	C1023.552551,130.929657 1029.154541,124.777893 1032.991211,116.628769 
	C1031.744995,115.997757 1031.036499,115.369431 1030.274292,115.295486 
	C1023.885132,114.675705 1017.492859,113.989433 1011.085083,113.731903 
	C1009.556946,113.670502 1007.902649,115.035995 1006.418396,115.931076 
	C1002.813049,118.105309 999.027710,120.539742 994.995056,117.703506 
	C992.844177,116.190781 991.603271,113.384239 990.888550,111.033272 
M883.990479,121.943672 
	C883.967224,112.339821 883.943970,102.735962 883.879211,92.357712 
	C881.285400,80.055779 877.376526,74.515404 860.326355,73.026901 
	C853.449036,72.426506 846.344788,72.142441 839.567871,73.179085 
	C827.708313,74.993217 820.386414,79.700096 819.371948,93.595207 
	C825.327332,94.307938 831.299500,95.044083 837.277466,95.729782 
	C840.674194,96.119392 843.342773,95.980820 845.270203,91.987274 
	C847.464111,87.441429 855.752563,88.093330 858.737732,93.444954 
	C851.295410,95.013069 844.051514,96.164734 837.033203,98.124352 
	C830.124146,100.053436 821.528137,100.344391 819.128662,108.991776 
	C817.814270,113.728668 818.066406,119.116501 818.679688,124.078888 
	C818.976929,126.484032 821.263123,129.393478 823.463623,130.668640 
	C829.387512,134.101440 836.007080,136.040421 842.932373,134.787262 
	C848.936340,133.700821 854.812256,131.906509 860.916443,130.382187 
	C861.388794,130.970840 862.203674,131.986374 863.448303,133.748917 
	C870.394653,133.832001 877.341248,133.960846 884.286743,133.913696 
	C884.859741,133.909805 885.424683,132.711731 886.011536,131.281845 
	C885.312317,128.474625 884.613098,125.667419 883.990479,121.943672 
M584.988220,131.917572 
	C584.992126,114.120827 585.019775,96.323997 584.956909,78.527481 
	C584.951660,77.036156 584.338196,75.546974 583.559021,73.470398 
	C577.780701,73.648239 571.987061,73.634811 566.231445,74.096184 
	C563.862854,74.286049 561.576172,75.497688 558.246216,76.567886 
	C552.354492,71.221092 543.976135,72.185265 535.648315,73.609749 
	C526.287598,75.210938 518.232788,87.544792 518.951172,96.190369 
	C519.253357,99.827530 519.014038,103.510635 519.001526,107.172791 
	C518.976501,114.504707 521.405212,120.859795 527.137756,125.511818 
	C530.336731,128.107849 534.069641,130.045914 538.859436,133.110626 
	C533.079712,132.504410 528.621643,131.892853 524.143677,131.657059 
	C522.842712,131.588577 520.499817,132.358459 520.310608,133.146439 
	C518.892151,139.054794 521.908264,150.564453 529.269836,153.226730 
	C539.360229,156.875931 549.633484,157.880859 559.948792,156.675873 
	C576.213196,154.775940 581.971436,148.310287 584.988220,131.917572 
M676.188965,103.003784 
	C672.235840,103.356705 668.282715,103.709625 664.448120,104.051964 
	C664.675537,106.642708 664.730713,108.459030 665.008789,110.240593 
	C666.437500,119.395081 670.509827,127.094719 679.209045,130.912369 
	C687.096680,134.373917 695.671387,135.537048 704.352295,134.981445 
	C716.025146,134.234360 726.958923,132.451614 734.461487,121.558289 
	C743.393738,108.589211 739.178162,89.678238 722.685303,83.991257 
	C718.995361,82.718910 715.331604,81.370468 711.655823,80.057060 
	C718.597595,78.618179 725.296875,78.466675 731.957336,77.877296 
	C733.552307,77.736160 736.382629,76.055420 736.332458,75.222023 
	C735.832153,66.913918 729.846252,56.318588 720.435547,53.436321 
	C713.333618,51.261192 706.452515,50.165302 699.178528,51.011505 
	C693.986450,51.615517 688.610962,51.618649 683.653015,53.051407 
	C674.025085,55.833706 667.264587,65.834961 667.239502,75.979462 
	C667.215881,85.526108 674.001709,94.361382 683.977905,97.501961 
	C691.200806,99.775780 698.487427,101.848099 705.752319,103.987579 
	C710.796082,105.472954 713.815918,110.949059 710.794922,113.531784 
	C704.621277,118.809731 697.169983,118.112679 693.230896,111.116081 
	C691.802368,108.578682 691.155823,105.600998 690.207458,102.976288 
	C685.718811,102.976288 681.351074,102.976288 676.188965,103.003784 
M620.642822,134.785965 
	C629.314758,135.586044 638.013123,134.790268 645.549927,130.636917 
	C656.855652,124.406624 660.538635,113.778915 660.059448,101.206055 
	C659.631958,89.987976 654.045959,82.368912 644.758240,76.859055 
	C636.787903,72.130707 627.870300,72.528954 619.256470,72.783997 
	C611.413574,73.016220 604.197388,76.571564 599.003601,82.532616 
	C591.218567,91.467651 590.624573,102.329063 592.745239,113.425636 
	C593.284973,116.249901 594.518127,119.095032 596.045044,121.549644 
	C601.505005,130.327057 610.540649,132.810593 620.642822,134.785965 
M953.393555,109.010300 
	C951.763123,108.782433 950.137329,108.404869 948.501404,108.354073 
	C943.069336,108.185432 937.099365,105.308846 933.835876,113.276649 
	C932.221069,117.219299 926.324768,117.722458 922.384949,115.640121 
	C917.333679,112.970345 915.560364,106.428925 917.739319,98.503174 
	C919.852844,90.815506 927.970581,88.337250 933.260681,94.225601 
	C936.290466,97.598160 939.212524,98.171425 943.124634,97.058525 
	C944.201782,96.752106 945.393188,96.874985 946.511963,96.682800 
	C950.933960,95.923225 955.347839,95.116737 960.152039,94.258453 
	C956.725830,84.410637 951.609802,77.853966 941.936951,74.675270 
	C933.932373,72.044800 925.972473,72.818130 918.041748,73.026749 
	C907.281250,73.309807 899.726990,79.411072 894.633728,88.683273 
	C890.633911,95.964714 891.657593,103.935310 892.236755,111.579453 
	C893.153442,123.680580 904.176636,132.740814 913.819092,133.382858 
	C922.697693,133.974075 931.693909,134.275528 940.537170,133.520416 
	C949.940796,132.717484 960.059204,120.292244 960.455383,110.318474 
	C958.432129,109.891701 956.351196,109.452774 953.393555,109.010300 
z"/>
<path fill="#022160" opacity="1.000000" stroke="none" 
	d="
M179.010330,13.999655 
	C189.568268,16.229601 195.509003,23.020401 197.999146,33.879097 
	C198.005478,34.717712 198.010086,34.898598 197.975922,35.317421 
	C197.937134,35.555359 197.818481,36.022697 197.567383,36.349068 
	C197.211365,37.325291 197.014923,37.975098 197.014618,38.625000 
	C196.998611,72.153725 196.990311,105.682472 197.032959,139.211151 
	C197.034561,140.467545 197.548279,141.723267 197.882217,143.216431 
	C197.941086,143.453552 197.999329,143.938705 197.999329,143.938705 
	C197.991714,144.118256 197.984116,144.297791 197.990067,144.999817 
	C198.018082,145.690521 198.032547,145.858734 198.046997,146.026932 
	C198.046997,146.026932 198.001785,146.020096 197.656799,146.082062 
	C196.584274,148.493408 195.856750,150.842789 195.129211,153.192169 
	C195.129227,153.192169 194.945480,153.570572 194.574524,153.833176 
	C193.821884,154.744949 193.440170,155.394135 193.058472,156.043320 
	C193.058472,156.043320 193.012650,156.005478 192.653625,156.015366 
	C191.520172,156.261749 190.370132,156.251404 190.028015,156.772003 
	C185.340469,163.905151 178.103836,164.968567 170.512497,164.976379 
	C129.253433,165.018890 87.994278,164.983994 46.735226,165.030884 
	C44.812145,165.033066 42.889664,165.562820 40.762531,165.915237 
	C40.558159,165.983612 40.127449,165.999741 40.127449,165.999741 
	C39.945976,165.974991 39.764503,165.950241 39.236797,165.563400 
	C36.869843,164.836456 34.849121,164.471603 32.828400,164.106750 
	C29.987431,161.985748 27.146461,159.864731 24.042027,157.219788 
	C23.507645,156.481689 23.236729,156.267548 22.965811,156.053406 
	C22.965809,156.053406 22.976954,156.016647 22.981590,155.623749 
	C21.335501,151.469757 19.684771,147.708679 18.034042,143.947601 
	C18.039560,143.491028 18.045078,143.034454 18.040440,142.009155 
	C18.030283,141.440445 18.158619,141.001511 18.414391,140.675369 
	C18.780338,139.700180 18.986572,139.051178 18.986904,138.402084 
	C19.003403,106.183617 19.011765,73.965134 18.967379,41.746727 
	C18.965649,40.491287 18.440132,39.236568 18.101809,37.765762 
	C18.044937,37.550011 18.019995,37.104473 18.019995,37.104473 
	C18.041428,36.920345 18.062862,36.736217 18.310299,36.151939 
	C18.767487,35.541279 18.921694,35.284504 18.998924,34.981468 
	C19.024557,34.543800 19.050192,34.106136 19.449829,33.254181 
	C20.874147,29.866411 21.924461,26.892933 22.974775,23.919455 
	C23.098816,23.613834 23.300186,23.372837 24.128351,23.048481 
	C25.781687,21.589622 26.885561,20.278740 27.989433,18.967857 
	C31.868433,17.164431 35.747433,15.361002 40.299812,13.289095 
	C43.657131,13.069156 46.341061,13.117697 49.348949,13.420406 
	C50.322716,13.781501 50.972488,13.981750 51.622341,13.982018 
	C91.487579,13.998367 131.352844,14.005961 171.218033,13.964727 
	C172.473907,13.963428 173.729248,13.443052 175.218033,13.098514 
	C175.451218,13.032363 175.932709,12.976014 175.932709,12.976014 
	C176.106644,12.999411 176.280563,13.022808 176.751251,13.378548 
	C177.528961,14.228067 178.009888,14.745243 178.490814,15.262421 
	C178.663986,14.841500 178.837158,14.420578 179.010330,13.999655 
M89.680695,118.314934 
	C89.771553,104.495018 89.862411,90.675110 90.426994,76.750122 
	C90.426994,76.750122 90.912201,76.746071 91.344032,77.367111 
	C92.908714,76.970802 94.473396,76.574501 96.935936,76.101578 
	C99.944763,76.063278 102.953598,76.024979 106.079552,76.261299 
	C106.166794,76.309364 106.254028,76.357437 106.341270,76.405502 
	C106.222404,76.257271 106.103539,76.109032 106.333130,75.210770 
	C106.564293,73.431236 106.971962,71.654022 106.995392,69.871758 
	C107.086266,62.961269 107.040741,62.964939 100.183128,62.965294 
	C86.893616,62.965984 73.604111,62.961319 60.314598,62.958984 
	C58.394955,62.958649 56.475315,62.958939 54.395264,62.958939 
	C54.395264,67.629105 54.395264,71.532463 54.395264,76.093651 
	C60.086643,76.093651 65.517044,76.093651 70.854912,77.009979 
	C70.847061,89.871330 70.804924,102.732872 70.878601,115.593758 
	C70.886978,117.055977 71.545776,118.514473 72.846680,120.028038 
	C77.581116,120.009583 82.315544,119.991119 87.710144,120.014221 
	C88.194221,119.659355 88.678299,119.304482 89.680695,118.314934 
M143.716034,108.840240 
	C134.552338,111.437340 131.916351,110.274948 127.821655,102.178528 
	C127.387978,101.320999 125.928650,100.462036 124.964546,100.483299 
	C120.869583,100.573631 116.781921,100.995560 112.753159,101.291847 
	C111.131889,108.800102 116.215599,117.212982 123.316216,119.172501 
	C131.369293,121.394852 139.621628,122.227524 147.599014,119.854179 
	C151.726746,118.626137 156.129303,116.018066 158.828857,112.735184 
	C166.252136,103.707817 164.107162,93.161224 153.591492,88.015549 
	C146.238235,84.417358 138.060730,82.503632 129.316071,79.518265 
	C130.368942,77.546715 131.416687,73.666550 132.680832,73.594727 
	C135.854370,73.414406 140.589661,73.912315 142.081558,76.004486 
	C146.440292,82.116928 152.062973,79.783333 157.344788,79.612991 
	C158.450684,79.577332 160.604965,76.630966 160.385300,76.306694 
	C157.748825,72.414474 155.503387,67.368797 151.704315,65.332809 
	C143.100937,60.722103 133.563904,60.828911 124.335411,64.347870 
	C116.816757,67.214836 113.645576,72.730446 114.012062,81.663811 
	C114.244293,87.324577 118.545357,91.919167 125.568069,94.156143 
	C131.183228,95.944756 136.881210,97.552597 142.326187,99.771347 
	C146.768433,101.581520 147.086197,104.072952 143.716034,108.840240 
z"/>
<path fill="#232B35" opacity="1.000000" stroke="none" 
	d="
M676.586182,102.990036 
	C681.351074,102.976288 685.718811,102.976288 690.207458,102.976288 
	C691.155823,105.600998 691.802368,108.578682 693.230896,111.116081 
	C697.169983,118.112679 704.621277,118.809731 710.794922,113.531784 
	C713.815918,110.949059 710.796082,105.472954 705.752319,103.987579 
	C698.487427,101.848099 691.200806,99.775780 683.977905,97.501961 
	C674.001709,94.361382 667.215881,85.526108 667.239502,75.979462 
	C667.264587,65.834961 674.025085,55.833706 683.653015,53.051407 
	C688.610962,51.618649 693.986450,51.615517 699.178528,51.011505 
	C706.452515,50.165302 713.333618,51.261192 720.435547,53.436321 
	C729.846252,56.318588 735.832153,66.913918 736.332458,75.222023 
	C736.382629,76.055420 733.552307,77.736160 731.957336,77.877296 
	C725.296875,78.466675 718.597595,78.618179 711.655823,80.057060 
	C715.331604,81.370468 718.995361,82.718910 722.685303,83.991257 
	C739.178162,89.678238 743.393738,108.589211 734.461487,121.558289 
	C726.958923,132.451614 716.025146,134.234360 704.352295,134.981445 
	C695.671387,135.537048 687.096680,134.373917 679.209045,130.912369 
	C670.509827,127.094719 666.437500,119.395081 665.008789,110.240593 
	C664.730713,108.459030 664.675537,106.642708 664.448120,104.051964 
	C668.282715,103.709625 672.235840,103.356705 676.586182,102.990036 
M702.378357,78.008263 
	C704.592468,78.480560 706.806580,78.952858 709.007141,79.422272 
	C710.588440,73.211128 706.314087,68.368912 699.640442,69.167213 
	C697.418030,69.433052 695.429199,71.650848 693.333557,72.976295 
	C694.969482,74.359276 696.515625,75.874603 698.278809,77.069931 
	C699.173218,77.676308 700.458984,77.705635 702.378357,78.008263 
z"/>
<path fill="#232B35" opacity="1.000000" stroke="none" 
	d="
M584.886841,132.828018 
	C581.971436,148.310287 576.213196,154.775940 559.948792,156.675873 
	C549.633484,157.880859 539.360229,156.875931 529.269836,153.226730 
	C521.908264,150.564453 518.892151,139.054794 520.310608,133.146439 
	C520.499817,132.358459 522.842712,131.588577 524.143677,131.657059 
	C528.621643,131.892853 533.079712,132.504410 538.859436,133.110626 
	C534.069641,130.045914 530.336731,128.107849 527.137756,125.511818 
	C521.405212,120.859795 518.976501,114.504707 519.001526,107.172791 
	C519.014038,103.510635 519.253357,99.827530 518.951172,96.190369 
	C518.232788,87.544792 526.287598,75.210938 535.648315,73.609749 
	C543.976135,72.185265 552.354492,71.221092 558.246216,76.567886 
	C561.576172,75.497688 563.862854,74.286049 566.231445,74.096184 
	C571.987061,73.634811 577.780701,73.648239 583.782227,74.228416 
	C584.005249,92.746666 583.983765,110.506973 584.043335,128.267014 
	C584.048462,129.788269 584.592896,131.307724 584.886841,132.828018 
M539.892517,131.670486 
	C539.786743,131.629257 539.681030,131.588028 539.575256,131.546814 
	C539.698425,131.713715 539.821594,131.880615 539.997009,132.669327 
	C542.293518,133.323013 545.225281,133.002121 545.539795,136.604370 
	C545.583557,137.105927 546.720886,137.596283 547.425720,137.941208 
	C550.508606,139.449814 553.275757,139.265030 556.101990,136.965698 
	C559.286804,134.374649 559.315430,131.308655 558.916077,129.117935 
	C552.394836,130.100723 546.211792,131.032532 539.892517,131.670486 
M547.090515,92.524071 
	C541.877441,97.313469 543.973999,103.171165 544.898560,108.740868 
	C545.516907,112.465828 547.930176,113.827629 551.809265,113.080963 
	C556.235413,112.228989 559.093384,108.954887 559.777100,103.206642 
	C560.648926,95.877174 554.086792,89.825409 547.090515,92.524071 
z"/>
<path fill="#232B35" opacity="1.000000" stroke="none" 
	d="
M747.093323,155.099533 
	C747.093323,128.315353 747.093323,101.531181 747.093323,74.032524 
	C754.602966,74.032524 761.707458,73.904480 768.797363,74.168388 
	C769.880493,74.208702 770.896118,76.061157 771.842468,76.978035 
	C782.006165,70.799492 792.486572,70.634674 802.308350,77.179214 
	C808.200256,81.105179 811.008240,87.722809 812.435181,94.780159 
	C814.519775,105.090355 813.893066,115.057716 808.422302,124.191048 
	C803.237061,132.847595 792.191589,136.887497 782.447693,134.289810 
	C779.598083,133.530121 776.728577,132.844681 773.505371,131.759460 
	C772.925659,131.241806 772.708679,131.089920 772.491760,130.938019 
	C772.338379,131.185028 772.053223,131.430725 772.050781,131.679214 
	C771.975159,139.407394 771.927002,147.135834 771.416870,154.913086 
	C763.003784,155.007782 755.048584,155.053650 747.093323,155.099533 
M773.362122,97.365707 
	C773.264160,101.167816 772.272644,105.245834 773.335938,108.689384 
	C774.276550,111.736031 777.093811,115.606339 779.827393,116.340942 
	C783.239075,117.257751 786.912109,114.397270 787.236389,110.110481 
	C787.565369,105.760895 787.885193,101.149582 786.760376,97.050423 
	C786.101379,94.648956 782.880676,91.958191 780.329956,91.317139 
	C777.078674,90.500031 774.548950,93.079460 773.362122,97.365707 
z"/>
<path fill="#242B36" opacity="1.000000" stroke="none" 
	d="
M863.018555,133.001892 
	C862.203674,131.986374 861.388794,130.970840 860.916443,130.382187 
	C854.812256,131.906509 848.936340,133.700821 842.932373,134.787262 
	C836.007080,136.040421 829.387512,134.101440 823.463623,130.668640 
	C821.263123,129.393478 818.976929,126.484032 818.679688,124.078888 
	C818.066406,119.116501 817.814270,113.728668 819.128662,108.991776 
	C821.528137,100.344391 830.124146,100.053436 837.033203,98.124352 
	C844.051514,96.164734 851.295410,95.013069 858.737732,93.444954 
	C855.752563,88.093330 847.464111,87.441429 845.270203,91.987274 
	C843.342773,95.980820 840.674194,96.119392 837.277466,95.729782 
	C831.299500,95.044083 825.327332,94.307938 819.371948,93.595207 
	C820.386414,79.700096 827.708313,74.993217 839.567871,73.179085 
	C846.344788,72.142441 853.449036,72.426506 860.326355,73.026901 
	C877.376526,74.515404 881.285400,80.055779 883.529114,92.947479 
	C883.122498,100.642136 882.979736,107.747932 883.053833,114.851456 
	C883.081787,117.523743 883.612427,120.190781 883.913879,122.860214 
	C884.613098,125.667419 885.312317,128.474625 885.745361,132.010803 
	C877.992310,132.827133 870.505432,132.914520 863.018555,133.001892 
M857.513977,114.813324 
	C858.074341,112.777138 858.634644,110.740952 859.609314,107.199219 
	C853.698364,109.427475 849.312622,110.805122 845.229004,112.800896 
	C844.114014,113.345810 842.964783,116.439255 843.485779,117.149597 
	C844.469421,118.490707 846.917175,119.940643 848.285522,119.576447 
	C851.348877,118.761116 854.123413,116.860535 857.513977,114.813324 
z"/>
<path fill="#010101" opacity="1.000000" stroke="none" 
	d="
M989.951660,111.161636 
	C991.603271,113.384239 992.844177,116.190781 994.995056,117.703506 
	C999.027710,120.539742 1002.813049,118.105309 1006.418396,115.931076 
	C1007.902649,115.035995 1009.556946,113.670502 1011.085083,113.731903 
	C1017.492859,113.989433 1023.885132,114.675705 1030.274292,115.295486 
	C1031.036499,115.369431 1031.744995,115.997757 1032.991211,116.628769 
	C1029.154541,124.777893 1023.552551,130.929657 1014.857361,133.059952 
	C1003.523804,135.836655 992.066284,136.425232 980.912231,131.668686 
	C972.707336,128.169754 967.281372,122.135254 965.787170,113.430977 
	C963.739746,101.504677 963.854797,89.815201 973.810669,80.667549 
	C979.844543,75.123535 986.797485,72.265770 995.085693,72.967102 
	C1000.955933,73.463837 1007.098755,72.935234 1012.656921,74.504288 
	C1028.006104,78.837357 1032.879639,90.032433 1033.986328,104.095566 
	C1034.116577,105.751106 1034.003174,107.425842 1033.537964,109.466118 
	C1020.121948,109.824242 1007.170349,109.765343 994.219788,109.851974 
	C992.794250,109.861511 991.374207,110.704956 989.951660,111.161636 
M1000.165283,89.037270 
	C993.858582,89.354996 991.740601,91.209656 991.671631,97.107269 
	C996.860718,96.645531 1001.989746,96.189133 1007.118774,95.732742 
	C1007.385071,95.307358 1007.651367,94.881973 1007.917603,94.456589 
	C1005.591187,92.684631 1003.264709,90.912666 1000.165283,89.037270 
z"/>
<path fill="#222A35" opacity="1.000000" stroke="none" 
	d="
M228.704498,72.956764 
	C228.704483,72.956764 228.435608,73.108528 228.036835,72.720070 
	C220.127380,72.259422 212.616714,72.187241 205.106049,72.115051 
	C205.085770,65.686722 205.065475,59.258389 205.528900,52.398392 
	C231.310806,51.937489 256.608978,51.908249 281.907166,51.879009 
	C281.924072,58.306606 281.940979,64.734207 281.467682,71.596939 
	C277.812073,72.020363 274.639740,71.871391 271.482971,72.030754 
	C267.281525,72.242859 263.092194,72.695045 258.897675,73.044098 
	C258.897675,73.044098 258.576477,73.099747 257.973572,73.095726 
	C257.247559,74.901703 257.024017,76.711311 257.016907,78.521767 
	C256.945648,96.648064 256.909973,114.774498 256.405914,132.938293 
	C247.342636,132.951706 238.737732,132.927719 230.069214,132.445007 
	C230.003311,113.856972 230.032394,95.727516 229.942535,77.598633 
	C229.934875,76.049332 229.135880,74.503960 228.704498,72.956764 
z"/>
<path fill="#232A35" opacity="1.000000" stroke="none" 
	d="
M351.148499,133.906525 
	C344.033539,133.906525 336.918549,133.906525 329.585571,133.906525 
	C329.211914,132.248611 328.901489,130.871216 328.470978,128.960999 
	C317.758911,135.703339 306.772827,137.877930 295.830933,130.956360 
	C290.225586,127.410568 289.800690,120.800339 288.993439,113.880478 
	C289.030029,100.040955 289.057770,87.086464 289.545410,74.074402 
	C297.974457,73.972954 305.943573,73.929070 313.912720,73.885193 
	C313.940765,83.841354 313.968933,93.797508 313.996674,103.753670 
	C313.998505,104.417442 313.989563,105.081337 313.998871,105.744995 
	C314.083130,111.742783 316.232910,115.035591 320.002380,114.946152 
	C323.832977,114.855255 326.711151,111.067940 327.387878,105.025627 
	C327.868927,94.283615 327.998901,84.205673 328.586151,74.075134 
	C336.664825,74.063622 344.286255,74.104706 351.949188,74.603638 
	C351.993866,92.765388 352.022980,110.469391 351.962799,128.173080 
	C351.956329,130.085114 351.432373,131.995407 351.148499,133.906525 
z"/>
<path fill="#232A35" opacity="1.000000" stroke="none" 
	d="
M448.110779,133.118164 
	C448.086639,113.690262 448.062469,94.262375 448.522095,74.405975 
	C456.205322,73.977470 463.404755,73.977470 470.800415,73.977470 
	C470.934875,76.118019 471.043060,77.840332 471.191772,80.207428 
	C472.376282,79.263062 473.073975,78.706833 473.771667,78.150604 
	C482.715912,70.790092 492.517578,71.259575 502.263458,75.770020 
	C508.428528,78.623253 511.028778,84.309807 511.011292,91.981140 
	C510.948578,106.205971 510.914978,119.541916 510.422302,132.924377 
	C502.396057,132.970901 494.828888,132.970901 486.995911,132.970901 
	C486.995911,122.503304 487.040924,112.870003 486.954010,103.237892 
	C486.938507,101.522659 486.375519,99.812370 486.065369,98.099792 
	C485.127869,94.953712 483.210571,92.292259 479.791443,93.201805 
	C476.796326,93.998550 473.983612,95.785141 473.926483,99.972435 
	C473.780060,110.705879 473.302246,121.434799 472.465149,132.602295 
	C464.019165,133.065414 456.064972,133.091782 448.110779,133.118164 
z"/>
<path fill="#242B36" opacity="1.000000" stroke="none" 
	d="
M620.283630,134.656769 
	C610.540649,132.810593 601.505005,130.327057 596.045044,121.549644 
	C594.518127,119.095032 593.284973,116.249901 592.745239,113.425636 
	C590.624573,102.329063 591.218567,91.467651 599.003601,82.532616 
	C604.197388,76.571564 611.413574,73.016220 619.256470,72.783997 
	C627.870300,72.528954 636.787903,72.130707 644.758240,76.859055 
	C654.045959,82.368912 659.631958,89.987976 660.059448,101.206055 
	C660.538635,113.778915 656.855652,124.406624 645.549927,130.636917 
	C638.013123,134.790268 629.314758,135.586044 620.283630,134.656769 
M624.716492,91.040184 
	C616.901611,94.147255 613.678833,108.495590 619.861206,113.979843 
	C621.723511,115.631821 625.142761,116.986000 627.382629,116.466522 
	C632.880676,115.191414 635.488403,109.442261 635.001953,101.995377 
	C634.622864,96.192680 631.406799,92.477051 624.716492,91.040184 
z"/>
<path fill="#242B36" opacity="1.000000" stroke="none" 
	d="
M953.831909,109.012070 
	C956.351196,109.452774 958.432129,109.891701 960.455383,110.318474 
	C960.059204,120.292244 949.940796,132.717484 940.537170,133.520416 
	C931.693909,134.275528 922.697693,133.974075 913.819092,133.382858 
	C904.176636,132.740814 893.153442,123.680580 892.236755,111.579453 
	C891.657593,103.935310 890.633911,95.964714 894.633728,88.683273 
	C899.726990,79.411072 907.281250,73.309807 918.041748,73.026749 
	C925.972473,72.818130 933.932373,72.044800 941.936951,74.675270 
	C951.609802,77.853966 956.725830,84.410637 960.152039,94.258453 
	C955.347839,95.116737 950.933960,95.923225 946.511963,96.682800 
	C945.393188,96.874985 944.201782,96.752106 943.124634,97.058525 
	C939.212524,98.171425 936.290466,97.598160 933.260681,94.225601 
	C927.970581,88.337250 919.852844,90.815506 917.739319,98.503174 
	C915.560364,106.428925 917.333679,112.970345 922.384949,115.640121 
	C926.324768,117.722458 932.221069,117.219299 933.835876,113.276649 
	C937.099365,105.308846 943.069336,108.185432 948.501404,108.354073 
	C950.137329,108.404869 951.763123,108.782433 953.831909,109.012070 
z"/>
<path fill="#232A35" opacity="1.000000" stroke="none" 
	d="
M409.987610,78.071686 
	C407.668427,83.724457 405.349213,89.377220 403.046265,94.990356 
	C393.879028,91.477875 390.786194,93.098579 388.937866,101.529701 
	C388.588074,103.125374 388.288422,104.732048 387.583008,106.959335 
	C387.093292,116.015587 386.986176,124.446152 386.420166,132.923111 
	C378.414917,132.969513 370.868530,132.969513 362.890015,132.969513 
	C362.890015,112.834030 362.890015,93.469772 362.890015,74.105515 
	C383.636902,73.440819 384.405182,73.520531 387.351501,76.953346 
	C393.747131,69.478210 401.126282,71.769989 409.143341,75.382111 
	C409.802490,76.510155 409.895050,77.290916 409.987610,78.071686 
z"/>
<path fill="#222A34" opacity="1.000000" stroke="none" 
	d="
M436.915527,73.889008 
	C436.931244,93.313515 436.946930,112.738037 436.470551,132.597107 
	C428.030396,132.987320 420.082367,132.942963 412.078613,132.439331 
	C412.046204,112.702324 412.069550,93.424606 412.552490,74.090584 
	C420.979889,73.985855 428.947723,73.937431 436.915527,73.889008 
z"/>
<path fill="#222A34" opacity="1.000000" stroke="none" 
	d="
M411.937561,68.848511 
	C411.957581,63.588085 411.977570,58.327656 412.445496,52.543980 
	C420.899567,51.974216 428.905701,51.927704 436.911804,51.881187 
	C436.927582,57.309376 436.943390,62.737560 436.467834,68.600769 
	C427.963531,68.973366 419.950562,68.910942 411.937561,68.848511 
z"/>
<path fill="#0B204B" opacity="1.000000" stroke="none" 
	d="
M40.966904,165.846863 
	C42.889664,165.562820 44.812145,165.033066 46.735226,165.030884 
	C87.994278,164.983994 129.253433,165.018890 170.512497,164.976379 
	C178.103836,164.968567 185.340469,163.905151 190.028015,156.772003 
	C190.370132,156.251404 191.520172,156.261749 192.666962,156.041779 
	C189.684052,163.559021 182.832733,165.489365 175.078644,166.562714 
	C171.485947,166.118683 168.500885,166.015228 165.515656,166.010727 
	C123.999420,165.948181 82.483162,165.899185 40.966904,165.846863 
z"/>
<path fill="#D2DAEC" opacity="1.000000" stroke="none" 
	d="
M175.787933,12.561722 
	C175.932709,12.976014 175.451218,13.032363 174.754669,13.026834 
	C164.426575,13.013763 154.794998,12.987904 145.163467,13.002028 
	C113.117302,13.049026 81.071152,13.110385 49.024994,13.166238 
	C46.341061,13.117697 43.657131,13.069156 40.529930,12.993414 
	C40.712418,12.642899 41.338211,12.036548 41.963924,12.036633 
	C86.523674,12.042685 131.083420,12.097044 175.787933,12.561722 
z"/>
<path fill="#A3B2CC" opacity="1.000000" stroke="none" 
	d="
M40.762531,165.915237 
	C82.483162,165.899185 123.999420,165.948181 165.515656,166.010727 
	C168.500885,166.015228 171.485947,166.118683 174.677948,166.545776 
	C130.065094,166.881836 85.245392,166.848236 40.276573,166.407196 
	C40.127449,165.999741 40.558159,165.983612 40.762531,165.915237 
z"/>
<path fill="#A3B2CC" opacity="1.000000" stroke="none" 
	d="
M197.818481,36.022697 
	C197.818481,36.022697 197.937134,35.555359 198.205017,35.271431 
	C198.472916,34.987507 198.934448,35.059387 198.934448,35.059387 
	C198.898056,71.253273 198.861664,107.447151 198.412292,143.789871 
	C197.999329,143.938705 197.941086,143.453552 197.959244,142.753906 
	C197.924423,106.710403 197.871460,71.366554 197.818481,36.022697 
z"/>
<path fill="#CCD9F2" opacity="1.000000" stroke="none" 
	d="
M18.158619,141.001511 
	C18.158619,141.001511 18.030283,141.440445 18.009512,141.668060 
	C17.660822,141.271774 17.045944,140.647797 17.046074,140.023956 
	C17.053267,105.793404 17.112013,71.562874 17.592762,37.218407 
	C18.019995,37.104473 18.044937,37.550011 18.028080,38.232307 
	C18.060354,72.943573 18.109486,106.972542 18.158619,141.001511 
z"/>
<path fill="#797E83" opacity="1.000000" stroke="none" 
	d="
M362.541077,74.337204 
	C362.890015,93.469772 362.890015,112.834030 362.890015,132.969513 
	C370.868530,132.969513 378.414917,132.969513 386.464630,133.174011 
	C386.994568,133.546249 387.021179,133.714005 387.047760,133.881775 
	C378.905396,133.881775 370.763031,133.881775 362.192139,133.881775 
	C362.192139,114.054367 362.192139,94.311623 362.541077,74.337204 
z"/>
<path fill="#AEB1B7" opacity="1.000000" stroke="none" 
	d="
M281.688660,51.514751 
	C256.608978,51.908249 231.310806,51.937489 205.552002,51.922890 
	C205.775833,51.590546 206.460327,51.049892 207.144760,51.049957 
	C231.919876,51.052212 256.695007,51.104836 281.688660,51.514751 
z"/>
<path fill="#D7D9DF" opacity="1.000000" stroke="none" 
	d="
M412.092896,74.146889 
	C412.069550,93.424606 412.046204,112.702324 412.021210,132.684326 
	C411.988617,133.553497 411.957733,133.718384 411.926819,133.883255 
	C411.616455,132.417160 411.046143,130.952957 411.035461,129.484680 
	C410.911469,112.448235 410.871979,95.411186 410.398865,78.222992 
	C409.895050,77.290916 409.802490,76.510155 409.537262,75.475967 
	C410.017181,74.531364 410.669739,73.840179 411.671295,73.394836 
	C412.044464,73.809402 412.068695,73.978142 412.092896,74.146889 
z"/>
<path fill="#D7D9DF" opacity="1.000000" stroke="none" 
	d="
M351.579773,133.941315 
	C351.432373,131.995407 351.956329,130.085114 351.962799,128.173080 
	C352.022980,110.469391 351.993866,92.765388 351.984650,74.349747 
	C351.996002,73.467987 352.013397,73.297974 352.030823,73.127960 
	C352.355865,73.906906 352.962494,74.685043 352.964722,75.464920 
	C353.018280,94.165108 353.019531,112.865494 352.965515,131.565659 
	C352.963196,132.370041 352.343292,133.172653 351.579773,133.941315 
z"/>
<path fill="#DBDBE1" opacity="1.000000" stroke="none" 
	d="
M256.864288,132.900894 
	C256.909973,114.774498 256.945648,96.648064 257.016907,78.521767 
	C257.024017,76.711311 257.247559,74.901703 257.827576,73.023308 
	C258.189606,90.675728 258.097565,108.396553 257.996582,126.117340 
	C257.982452,128.601227 257.924194,131.084854 257.437439,133.477310 
	C256.947144,133.224304 256.905701,133.062592 256.864288,132.900894 
z"/>
<path fill="#DBDBE1" opacity="1.000000" stroke="none" 
	d="
M228.839600,73.411133 
	C229.135880,74.503960 229.934875,76.049332 229.942535,77.598633 
	C230.032394,95.727516 230.003311,113.856972 230.000992,132.683380 
	C229.996353,133.380463 229.914505,133.869492 229.914505,133.869492 
	C229.611404,132.396957 229.049988,130.925415 229.044418,129.451752 
	C228.974487,110.923180 228.984863,92.394302 228.839600,73.411133 
z"/>
<path fill="#797E83" opacity="1.000000" stroke="none" 
	d="
M486.035980,98.560425 
	C486.375519,99.812370 486.938507,101.522659 486.954010,103.237892 
	C487.040924,112.870003 486.995911,122.503304 486.995911,132.970901 
	C494.828888,132.970901 502.396057,132.970901 510.465820,133.175003 
	C510.994629,133.546631 511.020874,133.714172 511.047089,133.881699 
	C502.903076,133.881699 494.759094,133.881699 486.006622,133.881699 
	C486.006622,122.205406 486.006622,110.613235 486.035980,98.560425 
z"/>
<path fill="#AEB1B7" opacity="1.000000" stroke="none" 
	d="
M584.937500,132.372803 
	C584.592896,131.307724 584.048462,129.788269 584.043335,128.267014 
	C583.983765,110.506973 584.005249,92.746666 584.006348,74.521614 
	C584.338196,75.546974 584.951660,77.036156 584.956909,78.527481 
	C585.019775,96.323997 584.992126,114.120827 584.937500,132.372803 
z"/>
<path fill="#797E83" opacity="1.000000" stroke="none" 
	d="
M990.420105,111.097458 
	C991.374207,110.704956 992.794250,109.861511 994.219788,109.851974 
	C1007.170349,109.765343 1020.121948,109.824242 1033.535889,109.922546 
	C1032.332764,110.336807 1030.668823,110.945465 1029.000610,110.957405 
	C1016.297058,111.048294 1003.592712,111.022636 990.420105,111.097458 
z"/>
<path fill="#AEB1B7" opacity="1.000000" stroke="none" 
	d="
M511.453552,133.731750 
	C511.020874,133.714172 510.994629,133.546631 510.924866,133.128479 
	C510.914978,119.541916 510.948578,106.205971 510.987671,92.395981 
	C511.325989,92.735001 511.947449,93.547699 511.948547,94.361214 
	C511.965790,107.434677 511.903931,120.508255 511.453552,133.731750 
z"/>
<path fill="#DBDBE1" opacity="1.000000" stroke="none" 
	d="
M289.085510,74.131973 
	C289.057770,87.086464 289.030029,100.040955 288.991364,113.459106 
	C288.653778,113.127083 288.043701,112.331718 288.042786,111.535652 
	C288.028107,98.830521 288.091309,86.125290 288.566284,73.533630 
	C288.995789,73.647163 289.085480,74.131973 289.085510,74.131973 
z"/>
<path fill="#AEB1B7" opacity="1.000000" stroke="none" 
	d="
M473.361969,78.080559 
	C473.073975,78.706833 472.376282,79.263062 471.191772,80.207428 
	C471.043060,77.840332 470.934875,76.118019 470.800415,73.977470 
	C463.404755,73.977470 456.205322,73.977470 448.544922,73.930542 
	C453.094635,73.590561 458.102905,73.241890 463.116882,73.026199 
	C465.928467,72.905258 468.749542,73.004440 471.425354,73.004440 
	C471.980194,74.823547 472.466248,76.417030 473.361969,78.080559 
z"/>
<path fill="#797E83" opacity="1.000000" stroke="none" 
	d="
M328.128876,74.127731 
	C327.998901,84.205673 327.868927,94.283615 327.413513,104.612946 
	C327.065887,94.873711 327.043732,84.883095 327.322601,74.465012 
	C327.792053,74.067612 327.960480,74.097672 328.128876,74.127731 
z"/>
<path fill="#AEB1B7" opacity="1.000000" stroke="none" 
	d="
M883.952148,122.401947 
	C883.612427,120.190781 883.081787,117.523743 883.053833,114.851456 
	C882.979736,107.747932 883.122498,100.642136 883.549805,93.334679 
	C883.943970,102.735962 883.967224,112.339821 883.952148,122.401947 
z"/>
<path fill="#797E83" opacity="1.000000" stroke="none" 
	d="
M230.386200,133.920227 
	C229.914505,133.869492 229.996353,133.380463 230.064575,133.142090 
	C238.737732,132.927719 247.342636,132.951706 256.405914,132.938293 
	C256.905701,133.062592 256.947144,133.224304 257.033234,133.632385 
	C248.337906,133.909500 239.597900,133.940231 230.386200,133.920227 
z"/>
<path fill="#AEB1B7" opacity="1.000000" stroke="none" 
	d="
M387.454437,133.732208 
	C387.021179,133.714005 386.994568,133.546249 386.923523,133.127594 
	C386.986176,124.446152 387.093292,116.015587 387.557129,107.367172 
	C387.896301,115.960419 387.878693,124.771530 387.454437,133.732208 
z"/>
<path fill="#AEB1B7" opacity="1.000000" stroke="none" 
	d="
M436.703674,51.508141 
	C428.905701,51.927704 420.899567,51.974216 412.426483,52.086594 
	C412.567444,51.772228 413.173859,51.064381 413.783539,51.061554 
	C421.353912,51.026501 428.924805,51.093990 436.703674,51.508141 
z"/>
<path fill="#797E83" opacity="1.000000" stroke="none" 
	d="
M411.687927,69.117386 
	C419.950562,68.910942 427.963531,68.973366 436.436218,69.074783 
	C428.410065,69.204605 419.924194,69.295433 411.687927,69.117386 
z"/>
<path fill="#AEB1B7" opacity="1.000000" stroke="none" 
	d="
M771.874695,154.864243 
	C771.927002,147.135834 771.975159,139.407394 772.050781,131.679214 
	C772.053223,131.430725 772.338379,131.185028 772.491760,130.938019 
	C772.708679,131.089920 772.925659,131.241806 773.196533,131.726776 
	C773.120789,139.911621 772.991089,147.763428 772.403564,155.499939 
	C771.922058,155.211182 771.898376,155.037720 771.874695,154.864243 
z"/>
<path fill="#797E83" opacity="1.000000" stroke="none" 
	d="
M412.397888,133.931335 
	C411.957733,133.718384 411.988617,133.553497 412.076904,133.143616 
	C420.082367,132.942963 428.030396,132.987320 436.438202,133.071747 
	C431.712219,133.407043 426.528778,133.757690 421.339813,133.975296 
	C418.521088,134.093491 415.692871,133.985413 412.397888,133.931335 
z"/>
<path fill="#797E83" opacity="1.000000" stroke="none" 
	d="
M448.344055,133.464966 
	C456.064972,133.091782 464.019165,133.065414 472.432800,133.077133 
	C464.787292,133.347397 456.682343,133.579590 448.344055,133.464966 
z"/>
<path fill="#797E83" opacity="1.000000" stroke="none" 
	d="
M863.233398,133.375397 
	C870.505432,132.914520 877.992310,132.827133 885.736328,132.404144 
	C885.424683,132.711731 884.859741,133.909805 884.286743,133.913696 
	C877.341248,133.960846 870.394653,133.832001 863.233398,133.375397 
z"/>
<path fill="#797E83" opacity="1.000000" stroke="none" 
	d="
M771.416870,154.913086 
	C771.898376,155.037720 771.922058,155.211182 771.991821,155.643204 
	C763.869995,155.874451 755.702209,155.847153 747.313843,155.459686 
	C755.048584,155.053650 763.003784,155.007782 771.416870,154.913086 
z"/>
<path fill="#AEB1B7" opacity="1.000000" stroke="none" 
	d="
M289.545410,74.074402 
	C289.085480,74.131973 288.995789,73.647163 288.979279,73.401199 
	C297.143433,73.147820 305.324066,73.140411 313.708710,73.509094 
	C305.943573,73.929070 297.974457,73.972954 289.545410,74.074402 
z"/>
<path fill="#AEB1B7" opacity="1.000000" stroke="none" 
	d="
M328.586151,74.075134 
	C327.960480,74.097672 327.792053,74.067612 327.370422,73.995621 
	C330.035217,73.636147 332.947662,73.127800 335.872375,73.043343 
	C340.942627,72.896912 346.020447,73.012917 351.562927,73.073410 
	C352.013397,73.297974 351.996002,73.467987 351.943115,73.891899 
	C344.286255,74.104706 336.664825,74.063622 328.586151,74.075134 
z"/>
<path fill="#AEB1B7" opacity="1.000000" stroke="none" 
	d="
M412.552490,74.090584 
	C412.068695,73.978142 412.044464,73.809402 411.994690,73.386253 
	C420.150421,73.131981 428.331757,73.132126 436.714294,73.510643 
	C428.947723,73.937431 420.979889,73.985855 412.552490,74.090584 
z"/>
<path fill="#797E83" opacity="1.000000" stroke="none" 
	d="
M205.340515,72.461411 
	C212.616714,72.187241 220.127380,72.259422 227.884674,72.694046 
	C220.612518,72.973579 213.093765,72.890671 205.340515,72.461411 
z"/>
<path fill="#797E83" opacity="1.000000" stroke="none" 
	d="
M259.374512,73.026176 
	C263.092194,72.695045 267.281525,72.242859 271.482971,72.030754 
	C274.639740,71.871391 277.812073,72.020363 281.437134,72.071426 
	C276.542908,72.408211 271.190369,72.734482 265.834381,72.988129 
	C263.844147,73.082382 261.845917,73.006531 259.374512,73.026176 
z"/>
<path fill="#0F244E" opacity="1.000000" stroke="none" 
	d="
M18.004749,144.340530 
	C19.684771,147.708679 21.335501,151.469757 22.962662,155.626953 
	C21.284548,152.259872 19.630001,148.496674 18.004749,144.340530 
z"/>
<path fill="#0F244E" opacity="1.000000" stroke="none" 
	d="
M22.648136,24.075489 
	C21.924461,26.892933 20.874147,29.866411 19.485056,32.927277 
	C20.204685,30.086948 21.263090,27.159237 22.648136,24.075489 
z"/>
<path fill="#0B204B" opacity="1.000000" stroke="none" 
	d="
M195.447617,153.023331 
	C195.856750,150.842789 196.584274,148.493408 197.677017,146.094879 
	C197.283493,148.315308 196.524750,150.584900 195.447617,153.023331 
z"/>
<path fill="#0B204B" opacity="1.000000" stroke="none" 
	d="
M33.055641,164.401459 
	C34.849121,164.471603 36.869843,164.836456 38.966820,165.512543 
	C37.123013,165.447891 35.202946,165.072037 33.055641,164.401459 
z"/>
<path fill="#0F244E" opacity="1.000000" stroke="none" 
	d="
M27.648010,18.979921 
	C26.885561,20.278740 25.781687,21.589622 24.348686,22.956928 
	C22.492733,19.529287 25.916374,20.091688 27.648010,18.979921 
z"/>
<path fill="#04204F" opacity="1.000000" stroke="none" 
	d="
M178.852600,13.740482 
	C178.837158,14.420578 178.663986,14.841500 178.490814,15.262421 
	C178.009888,14.745243 177.528961,14.228067 177.010132,13.426353 
	C177.546432,13.254981 178.120636,13.368146 178.852600,13.740482 
z"/>
<path fill="#0B204B" opacity="1.000000" stroke="none" 
	d="
M193.393707,156.026001 
	C193.440170,155.394135 193.821884,154.744949 194.500244,154.029938 
	C194.440933,154.645645 194.084946,155.327179 193.393707,156.026001 
z"/>
<path fill="#0B204B" opacity="1.000000" stroke="none" 
	d="
M198.215485,145.928375 
	C198.032547,145.858734 198.018082,145.690521 197.995575,145.269302 
	C198.119675,145.287476 198.251816,145.558640 198.215485,145.928375 
z"/>
<path fill="#0F244E" opacity="1.000000" stroke="none" 
	d="
M23.023109,156.314117 
	C23.236729,156.267548 23.507645,156.481689 23.847387,156.954208 
	C23.637613,157.000015 23.359011,156.787430 23.023109,156.314117 
z"/>
<path fill="#0F244E" opacity="1.000000" stroke="none" 
	d="
M18.780188,35.078873 
	C18.921694,35.284504 18.767487,35.541279 18.348591,35.876530 
	C18.135756,35.649261 18.269279,35.374264 18.780188,35.078873 
z"/>
<path fill="#0B204B" opacity="1.000000" stroke="none" 
	d="
M198.866013,34.817429 
	C198.934448,35.059387 198.472916,34.987507 198.243805,35.033493 
	C198.010086,34.898598 198.005478,34.717712 197.999420,34.265350 
	C198.264511,34.187740 198.531052,34.381603 198.866013,34.817429 
z"/>
<path fill="#000000" opacity="1.000000" stroke="none" 
	d="
M143.964966,108.579071 
	C147.086197,104.072952 146.768433,101.581520 142.326187,99.771347 
	C136.881210,97.552597 131.183228,95.944756 125.568069,94.156143 
	C118.545357,91.919167 114.244293,87.324577 114.012062,81.663811 
	C113.645576,72.730446 116.816757,67.214836 124.335411,64.347870 
	C133.563904,60.828911 143.100937,60.722103 151.704315,65.332809 
	C155.503387,67.368797 157.748825,72.414474 160.385300,76.306694 
	C160.604965,76.630966 158.450684,79.577332 157.344788,79.612991 
	C152.062973,79.783333 146.440292,82.116928 142.081558,76.004486 
	C140.589661,73.912315 135.854370,73.414406 132.680832,73.594727 
	C131.416687,73.666550 130.368942,77.546715 129.316071,79.518265 
	C138.060730,82.503632 146.238235,84.417358 153.591492,88.015549 
	C164.107162,93.161224 166.252136,103.707817 158.828857,112.735184 
	C156.129303,116.018066 151.726746,118.626137 147.599014,119.854179 
	C139.621628,122.227524 131.369293,121.394852 123.316216,119.172501 
	C116.215599,117.212982 111.131889,108.800102 112.753159,101.291847 
	C116.781921,100.995560 120.869583,100.573631 124.964546,100.483299 
	C125.928650,100.462036 127.387978,101.320999 127.821655,102.178528 
	C131.916351,110.274948 134.552338,111.437340 143.964966,108.579071 
z"/>
<path fill="#000000" opacity="1.000000" stroke="none" 
	d="
M87.049980,119.972664 
	C82.315544,119.991119 77.581116,120.009583 72.423973,119.536514 
	C72.002808,106.151093 72.037262,93.257004 71.959396,80.363586 
	C71.950790,78.938286 71.300262,77.516869 70.947441,76.093651 
	C65.517044,76.093651 60.086643,76.093651 54.395264,76.093651 
	C54.395264,71.532463 54.395264,67.629105 54.395264,62.958939 
	C56.475315,62.958939 58.394955,62.958649 60.314598,62.958984 
	C73.604111,62.961319 86.893616,62.965984 100.183128,62.965294 
	C107.040741,62.964939 107.086266,62.961269 106.995392,69.871758 
	C106.971962,71.654022 106.564293,73.431236 106.165131,75.603043 
	C105.997124,75.995308 105.962425,75.986671 105.962425,75.986671 
	C102.953598,76.024979 99.944763,76.063278 96.104332,76.081558 
	C93.819221,76.289726 92.365707,76.517899 90.912201,76.746078 
	C90.912201,76.746071 90.426994,76.750122 90.013382,76.793831 
	C89.599777,76.837540 89.244545,76.842407 88.978256,76.549469 
	C88.475212,77.803375 88.041206,79.349213 88.033218,80.897232 
	C87.974968,92.189461 88.042648,103.482414 87.960121,114.774330 
	C87.947441,116.509232 87.367546,118.239990 87.049980,119.972664 
z"/>
<path fill="#04204F" opacity="1.000000" stroke="none" 
	d="
M49.348949,13.420406 
	C81.071152,13.110385 113.117302,13.049026 145.163467,13.002028 
	C154.794998,12.987904 164.426575,13.013763 174.521484,13.092985 
	C173.729248,13.443052 172.473907,13.963428 171.218033,13.964727 
	C131.352844,14.005961 91.487579,13.998367 51.622341,13.982018 
	C50.972488,13.981750 50.322716,13.781501 49.348949,13.420406 
z"/>
<path fill="#0B204B" opacity="1.000000" stroke="none" 
	d="
M197.567383,36.349068 
	C197.871460,71.366554 197.924423,106.710403 197.900375,142.516785 
	C197.548279,141.723267 197.034561,140.467545 197.032959,139.211151 
	C196.990311,105.682472 196.998611,72.153725 197.014618,38.625000 
	C197.014923,37.975098 197.211365,37.325291 197.567383,36.349068 
z"/>
<path fill="#0F244E" opacity="1.000000" stroke="none" 
	d="
M18.414391,140.675369 
	C18.109486,106.972542 18.060354,72.943573 18.084951,38.448059 
	C18.440132,39.236568 18.965649,40.491287 18.967379,41.746727 
	C19.011765,73.965134 19.003403,106.183617 18.986904,138.402084 
	C18.986572,139.051178 18.780338,139.700180 18.414391,140.675369 
z"/>
<path fill="#C3B8BC" opacity="1.000000" stroke="none" 
	d="
M87.380066,119.993439 
	C87.367546,118.239990 87.947441,116.509232 87.960121,114.774330 
	C88.042648,103.482414 87.974968,92.189461 88.033218,80.897232 
	C88.041206,79.349213 88.475212,77.803375 88.873512,77.023422 
	C89.077492,91.510078 89.119934,105.229843 89.162376,118.949608 
	C88.678299,119.304482 88.194221,119.659355 87.380066,119.993439 
z"/>
<path fill="#E2FFFF" opacity="1.000000" stroke="none" 
	d="
M70.901176,76.551819 
	C71.300262,77.516869 71.950790,78.938286 71.959396,80.363586 
	C72.037262,93.257004 72.002808,106.151093 71.952126,119.509842 
	C71.545776,118.514473 70.886978,117.055977 70.878601,115.593758 
	C70.804924,102.732872 70.847061,89.871330 70.901176,76.551819 
z"/>
<path fill="#0B204B" opacity="1.000000" stroke="none" 
	d="
M89.421539,118.632271 
	C89.119934,105.229843 89.077492,91.510078 89.139801,77.316360 
	C89.244545,76.842407 89.599777,76.837540 89.776520,76.846367 
	C89.862411,90.675110 89.771553,104.495018 89.421539,118.632271 
z"/>
<path fill="#0B204B" opacity="1.000000" stroke="none" 
	d="
M91.128113,77.056595 
	C92.365707,76.517899 93.819221,76.289726 95.655403,76.119873 
	C94.473396,76.574501 92.908714,76.970802 91.128113,77.056595 
z"/>
<path fill="#0B204B" opacity="1.000000" stroke="none" 
	d="
M105.990898,75.978058 
	C106.103539,76.109032 106.222404,76.257271 106.341270,76.405502 
	C106.254028,76.357437 106.166794,76.309364 106.020988,76.123985 
	C105.962425,75.986671 105.997124,75.995308 105.990898,75.978058 
z"/>
<path fill="#000000" opacity="1.000000" stroke="none" 
	d="
M701.973083,78.002045 
	C700.458984,77.705635 699.173218,77.676308 698.278809,77.069931 
	C696.515625,75.874603 694.969482,74.359276 693.333557,72.976303 
	C695.429199,71.650848 697.418030,69.433052 699.640442,69.167213 
	C706.314087,68.368912 710.588440,73.211128 709.007141,79.422272 
	C706.806580,78.952858 704.592468,78.480560 701.973083,78.002045 
z"/>
<path fill="#000000" opacity="1.000000" stroke="none" 
	d="
M547.421509,92.320694 
	C554.086792,89.825409 560.648926,95.877174 559.777100,103.206642 
	C559.093384,108.954887 556.235413,112.228989 551.809265,113.080963 
	C547.930176,113.827629 545.516907,112.465828 544.898560,108.740868 
	C543.973999,103.171165 541.877441,97.313469 547.421509,92.320694 
z"/>
<path fill="#000000" opacity="1.000000" stroke="none" 
	d="
M540.028748,131.964355 
	C546.211792,131.032532 552.394836,130.100723 558.916077,129.117935 
	C559.315430,131.308655 559.286804,134.374649 556.101990,136.965698 
	C553.275757,139.265030 550.508606,139.449814 547.425720,137.941208 
	C546.720886,137.596283 545.583557,137.105927 545.539795,136.604370 
	C545.225281,133.002121 542.293518,133.323013 539.992981,132.338745 
	C539.988953,132.008179 540.028748,131.964355 540.028748,131.964355 
z"/>
<path fill="#000000" opacity="1.000000" stroke="none" 
	d="
M539.966858,132.027847 
	C539.821594,131.880615 539.698425,131.713715 539.575256,131.546814 
	C539.681030,131.588028 539.786743,131.629257 539.960632,131.817413 
	C540.028748,131.964355 539.988953,132.008179 539.966858,132.027847 
z"/>
<path fill="#000000" opacity="1.000000" stroke="none" 
	d="
M773.534302,96.984131 
	C774.548950,93.079460 777.078674,90.500031 780.329956,91.317139 
	C782.880676,91.958191 786.101379,94.648956 786.760376,97.050423 
	C787.885193,101.149582 787.565369,105.760895 787.236389,110.110481 
	C786.912109,114.397270 783.239075,117.257751 779.827393,116.340942 
	C777.093811,115.606339 774.276550,111.736031 773.335938,108.689384 
	C772.272644,105.245834 773.264160,101.167816 773.534302,96.984131 
z"/>
<path fill="#000000" opacity="1.000000" stroke="none" 
	d="
M857.264771,115.107635 
	C854.123413,116.860535 851.348877,118.761116 848.285522,119.576447 
	C846.917175,119.940643 844.469421,118.490707 843.485779,117.149597 
	C842.964783,116.439255 844.114014,113.345810 845.229004,112.800896 
	C849.312622,110.805122 853.698364,109.427475 859.609314,107.199219 
	C858.634644,110.740952 858.074341,112.777138 857.264771,115.107635 
z"/>
<path fill="#000000" opacity="1.000000" stroke="none" 
	d="
M1000.551758,89.088989 
	C1003.264709,90.912666 1005.591187,92.684631 1007.917603,94.456589 
	C1007.651367,94.881973 1007.385071,95.307358 1007.118774,95.732742 
	C1001.989746,96.189133 996.860718,96.645531 991.671631,97.107269 
	C991.740601,91.209656 993.858582,89.354996 1000.551758,89.088989 
z"/>
<path fill="#000000" opacity="1.000000" stroke="none" 
	d="
M625.105225,91.025513 
	C631.406799,92.477051 634.622864,96.192680 635.001953,101.995377 
	C635.488403,109.442261 632.880676,115.191414 627.382629,116.466522 
	C625.142761,116.986000 621.723511,115.631821 619.861206,113.979843 
	C613.678833,108.495590 616.901611,94.147255 625.105225,91.025513 
z"/>
</svg>