<?xml version="1.0" standalone="no"?>
<!DOCTYPE svg PUBLIC "-//W3C//DTD SVG 20010904//EN"
 "http://www.w3.org/TR/2001/REC-SVG-20010904/DTD/svg10.dtd">
<svg version="1.0" xmlns="http://www.w3.org/2000/svg"
 width="1279.000000pt" height="190.000000pt" viewBox="0 0 1279.000000 190.000000"
 preserveAspectRatio="xMidYMid meet">

<g transform="translate(0.000000,190.000000) scale(0.100000,-0.100000)"
fill="#000000" stroke="none">
<path d="M263 1874 c-67 -33 -123 -88 -153 -150 -23 -47 -24 -60 -31 -354 -3
-168 -4 -492 0 -720 l6 -415 27 -57 c29 -62 92 -130 150 -159 36 -18 71 -19
945 -19 l908 0 61 40 c62 41 99 84 131 155 17 37 18 88 18 745 0 576 -3 714
-14 753 -18 63 -94 147 -163 181 l-52 26 -891 0 -891 0 -51 -26z m1445 -609
c82 -25 134 -79 152 -161 l7 -31 -60 -7 c-33 -3 -79 -6 -103 -6 -39 0 -45 3
-59 34 -35 73 -165 73 -165 1 0 -30 17 -39 106 -60 175 -40 250 -82 285 -159
57 -126 -21 -269 -170 -312 -76 -23 -248 -15 -311 13 -76 34 -132 109 -142
193 -3 23 1 26 47 32 28 3 75 7 106 7 l55 1 10 -37 c13 -50 53 -78 114 -78 57
0 90 24 90 66 0 48 -24 62 -167 99 -153 41 -233 114 -233 213 0 53 34 121 73
149 79 56 251 76 365 43z m-528 -75 l0 -80 -110 0 -110 0 0 -275 0 -275 -115
0 -115 0 0 275 0 275 -110 0 -110 0 0 80 0 80 335 0 335 0 0 -80z"/>
</g>
</svg>
