<?xml version="1.0" standalone="no"?>
<!DOCTYPE svg PUBLIC "-//W3C//DTD SVG 20010904//EN"
 "http://www.w3.org/TR/2001/REC-SVG-20010904/DTD/svg10.dtd">
<svg version="1.0" xmlns="http://www.w3.org/2000/svg"
 width="1021.000000pt" height="151.000000pt" viewBox="0 0 1021.000000 151.000000"
 preserveAspectRatio="xMidYMid meet">

<g transform="translate(0.000000,151.000000) scale(0.100000,-0.100000)"
fill="#000000" stroke="none">
<path d="M141 1479 c-20 -16 -50 -52 -67 -81 l-29 -53 -3 -535 c-2 -294 0
-558 3 -586 9 -77 58 -151 125 -191 l54 -33 716 0 c708 0 716 0 755 21 54 28
82 55 113 109 l27 45 5 395 c3 217 3 481 0 585 -5 188 -5 191 -35 244 -17 30
-47 67 -68 82 l-38 27 -760 -1 -760 -1 -38 -27z m1210 -454 c24 -9 54 -25 66
-37 26 -24 60 -105 49 -116 -4 -4 -42 -8 -84 -10 -77 -3 -77 -3 -94 27 -30 54
-128 52 -128 -4 0 -20 7 -26 43 -35 116 -30 185 -54 218 -76 102 -69 86 -224
-29 -291 -38 -22 -61 -28 -134 -31 -147 -7 -231 27 -269 112 -29 65 -26 82 19
90 20 3 58 6 84 6 44 0 47 -2 53 -31 8 -34 55 -69 95 -69 57 0 91 58 55 94 -9
9 -35 20 -58 26 -188 48 -247 93 -247 188 0 73 42 129 115 156 54 20 191 20
246 1z m-421 -60 l0 -65 -90 0 -90 0 0 -220 0 -220 -90 0 -90 0 0 220 0 220
-90 0 -90 0 0 65 0 65 270 0 270 0 0 -65z"/>
</g>
</svg>
