<svg version="1.1" id="Layer_1" xmlns="http://www.w3.org/2000/svg" xmlns:xlink="http://www.w3.org/1999/xlink" x="0px" y="0px"
	 width="100%" viewBox="0 0 406 358" enable-background="new 0 0 406 358" xml:space="preserve">
<path fill="#FFFEFE" opacity="1.000000" stroke="none" 
	d="
M230.000000,359.000000 
	C153.333344,359.000000 77.166695,359.000000 1.000031,359.000000 
	C1.000021,239.666702 1.000021,120.333405 1.000010,1.000079 
	C136.333267,1.000052 271.666534,1.000052 406.999878,1.000026 
	C406.999908,120.333252 406.999908,239.666504 406.999939,358.999878 
	C348.166656,359.000000 289.333344,359.000000 230.000000,359.000000 
M225.499893,324.673859 
	C252.157227,324.673859 278.814575,324.676788 305.471893,324.673065 
	C334.394470,324.669006 355.251770,303.903534 355.263031,275.005859 
	C355.288574,209.528305 355.295166,144.050735 355.260010,78.573212 
	C355.244537,49.745560 334.331024,28.924368 305.399048,28.911133 
	C240.088120,28.881258 174.777145,28.876799 109.466225,28.913193 
	C80.542961,28.929312 59.733051,49.788616 59.730614,78.642853 
	C59.725098,143.953796 59.727745,209.264740 59.729393,274.575684 
	C59.730141,304.167725 80.322647,324.672394 110.039116,324.673523 
	C148.192703,324.674988 186.346298,324.673798 225.499893,324.673859 
z"/>
<path fill="#AB162A" opacity="1.000000" stroke="none" 
	d="
M224.999878,324.673828 
	C186.346298,324.673798 148.192703,324.674988 110.039116,324.673523 
	C80.322647,324.672394 59.730141,304.167725 59.729393,274.575684 
	C59.727745,209.264740 59.725098,143.953796 59.730614,78.642853 
	C59.733051,49.788616 80.542961,28.929312 109.466225,28.913193 
	C174.777145,28.876799 240.088120,28.881258 305.399048,28.911133 
	C334.331024,28.924368 355.244537,49.745560 355.260010,78.573212 
	C355.295166,144.050735 355.288574,209.528305 355.263031,275.005859 
	C355.251770,303.903534 334.394470,324.669006 305.471893,324.673065 
	C278.814575,324.676788 252.157227,324.673859 224.999878,324.673828 
M271.730804,123.684395 
	C263.286316,123.847694 254.665329,122.978981 246.433624,124.386665 
	C228.666473,127.424980 217.151459,139.259323 214.322372,155.583771 
	C211.303497,173.003418 218.282547,188.005234 234.250031,197.229889 
	C240.705627,200.959381 247.740555,203.671707 254.371017,207.117874 
	C258.919098,209.481689 263.706451,211.751923 267.541016,215.047989 
	C276.463104,222.717194 274.436310,235.871353 263.413513,240.069366 
	C258.035400,242.117599 251.726868,242.500427 245.873474,242.346313 
	C236.366364,242.095963 227.910980,237.976151 219.770950,233.243225 
	C215.112350,230.534561 212.537537,231.866455 211.976715,237.198685 
	C211.612885,240.657913 211.767807,244.171082 211.677200,247.659760 
	C211.541336,252.891403 213.890091,256.564209 218.615509,258.747040 
	C239.565552,268.424683 260.874420,269.810608 281.557739,258.968658 
	C307.018127,245.622620 310.824219,210.031509 288.627167,192.721695 
	C280.776581,186.599594 270.905792,183.083389 262.010010,178.279907 
	C257.345917,175.761429 252.458939,173.472031 248.285553,170.278229 
	C243.792831,166.840073 241.944489,161.919220 243.583313,156.036957 
	C245.209274,150.200760 249.300644,147.076035 254.849716,146.049759 
	C258.552399,145.364975 262.663208,144.871826 266.209290,145.781784 
	C273.212616,147.578934 280.049377,150.166473 286.766144,152.892563 
	C291.783722,154.929001 293.743469,154.418961 294.325775,149.166046 
	C294.799316,144.894135 295.150726,140.404968 294.311676,136.264374 
	C293.771454,133.598557 291.482513,130.310959 289.093536,129.196289 
	C283.894989,126.770714 278.130859,125.557266 271.730804,123.684395 
M141.500000,124.997025 
	C131.501282,124.997025 121.502548,124.997032 111.503822,124.997032 
	C96.921066,124.997032 95.932961,126.088158 97.131660,140.868179 
	C97.158600,141.200363 97.177223,141.533539 97.216171,141.864334 
	C97.711128,146.068466 99.432976,148.288208 104.312035,148.115875 
	C114.752281,147.747101 125.214592,148.002945 136.095444,148.002945 
	C136.095444,150.239288 136.095459,152.027145 136.095459,153.815018 
	C136.095474,188.310867 136.091782,222.806732 136.099045,257.302582 
	C136.100266,263.083923 137.123611,264.409576 142.881119,264.812927 
	C147.524734,265.138245 152.212845,265.096527 156.869019,264.911072 
	C163.759354,264.636688 164.902512,263.321167 164.903122,256.490540 
	C164.906204,222.161331 164.904556,187.832123 164.904541,153.502914 
	C164.904541,151.747910 164.904556,149.992889 164.904556,148.002945 
	C173.713196,148.002945 181.859055,148.002960 190.004898,148.002945 
	C203.775772,148.002930 204.784714,146.909912 203.856232,132.968887 
	C203.800934,132.138550 203.705338,131.309326 203.591415,130.484726 
	C203.062134,126.653877 201.336899,124.838295 196.992111,124.895782 
	C178.830811,125.136055 160.664490,124.997032 141.500000,124.997025 
z"/>
<path fill="#FEFCFD" opacity="1.000000" stroke="none" 
	d="
M272.164368,123.766396 
	C278.130859,125.557266 283.894989,126.770714 289.093536,129.196289 
	C291.482513,130.310959 293.771454,133.598557 294.311676,136.264374 
	C295.150726,140.404968 294.799316,144.894135 294.325775,149.166046 
	C293.743469,154.418961 291.783722,154.929001 286.766144,152.892563 
	C280.049377,150.166473 273.212616,147.578934 266.209290,145.781784 
	C262.663208,144.871826 258.552399,145.364975 254.849716,146.049759 
	C249.300644,147.076035 245.209274,150.200760 243.583313,156.036957 
	C241.944489,161.919220 243.792831,166.840073 248.285553,170.278229 
	C252.458939,173.472031 257.345917,175.761429 262.010010,178.279907 
	C270.905792,183.083389 280.776581,186.599594 288.627167,192.721695 
	C310.824219,210.031509 307.018127,245.622620 281.557739,258.968658 
	C260.874420,269.810608 239.565552,268.424683 218.615509,258.747040 
	C213.890091,256.564209 211.541336,252.891403 211.677200,247.659760 
	C211.767807,244.171082 211.612885,240.657913 211.976715,237.198685 
	C212.537537,231.866455 215.112350,230.534561 219.770950,233.243225 
	C227.910980,237.976151 236.366364,242.095963 245.873474,242.346313 
	C251.726868,242.500427 258.035400,242.117599 263.413513,240.069366 
	C274.436310,235.871353 276.463104,222.717194 267.541016,215.047989 
	C263.706451,211.751923 258.919098,209.481689 254.371017,207.117874 
	C247.740555,203.671707 240.705627,200.959381 234.250031,197.229889 
	C218.282547,188.005234 211.303497,173.003418 214.322372,155.583771 
	C217.151459,139.259323 228.666473,127.424980 246.433624,124.386665 
	C254.665329,122.978981 263.286316,123.847694 272.164368,123.766396 
z"/>
<path fill="#FEFDFD" opacity="1.000000" stroke="none" 
	d="
M142.000000,124.997025 
	C160.664490,124.997032 178.830811,125.136055 196.992111,124.895782 
	C201.336899,124.838295 203.062134,126.653877 203.591415,130.484726 
	C203.705338,131.309326 203.800934,132.138550 203.856232,132.968887 
	C204.784714,146.909912 203.775772,148.002930 190.004898,148.002945 
	C181.859055,148.002960 173.713196,148.002945 164.904556,148.002945 
	C164.904556,149.992889 164.904541,151.747910 164.904541,153.502914 
	C164.904556,187.832123 164.906204,222.161331 164.903122,256.490540 
	C164.902512,263.321167 163.759354,264.636688 156.869019,264.911072 
	C152.212845,265.096527 147.524734,265.138245 142.881119,264.812927 
	C137.123611,264.409576 136.100266,263.083923 136.099045,257.302582 
	C136.091782,222.806732 136.095474,188.310867 136.095459,153.815018 
	C136.095459,152.027145 136.095444,150.239288 136.095444,148.002945 
	C125.214592,148.002945 114.752281,147.747101 104.312035,148.115875 
	C99.432976,148.288208 97.711128,146.068466 97.216171,141.864334 
	C97.177223,141.533539 97.158600,141.200363 97.131660,140.868179 
	C95.932961,126.088158 96.921066,124.997032 111.503822,124.997032 
	C121.502548,124.997032 131.501282,124.997025 142.000000,124.997025 
z"/>
</svg>