<svg version="1.1" id="Layer_1" xmlns="http://www.w3.org/2000/svg" xmlns:xlink="http://www.w3.org/1999/xlink" x="0px" y="0px"
	 width="100%" viewBox="0 0 1206 208" enable-background="new 0 0 1206 208" xml:space="preserve">
<path fill="#FFFEFE" opacity="1.000000" stroke="none" 
	d="
M878.000000,209.000000 
	C585.333313,209.000000 293.166656,209.000000 1.000000,209.000000 
	C1.000000,139.666672 1.000000,70.333336 1.000000,1.000000 
	C403.000000,1.000000 805.000000,1.000000 1207.000000,1.000000 
	C1207.000000,70.333336 1207.000000,139.666672 1207.000000,209.000000 
	C1097.500000,209.000000 988.000000,209.000000 878.000000,209.000000 
M777.977051,94.682182 
	C773.110168,87.669334 766.224121,83.384033 758.267212,80.995956 
	C748.417542,78.039818 738.390686,75.679176 728.477722,72.926659 
	C724.682007,71.872704 721.011963,70.279770 721.183594,65.415550 
	C721.317932,61.607166 725.617188,58.444698 730.621765,58.109451 
	C740.538635,57.445137 745.089478,60.588654 748.837219,71.018967 
	C758.737366,70.439262 768.766052,69.852020 779.090271,69.247482 
	C777.319153,55.652855 771.480652,45.615005 758.468140,41.362480 
	C743.185120,36.367954 727.565125,36.411812 712.318909,41.228168 
	C700.088318,45.091908 692.307861,53.685173 691.072510,66.888489 
	C689.930359,79.096024 696.053894,88.905220 708.893677,94.683327 
	C715.953552,97.860336 723.643860,99.634056 731.044556,102.056824 
	C735.915955,103.651604 741.153381,104.624908 745.500610,107.134621 
	C748.038330,108.599670 750.640991,112.622162 750.494751,115.348190 
	C750.334595,118.334755 747.650513,122.554817 744.973022,123.715683 
	C740.986633,125.444046 735.883789,125.925659 731.536377,125.217438 
	C722.421814,123.732597 719.388367,116.385902 717.895081,107.950371 
	C707.519653,108.649124 697.307800,109.336853 686.960938,110.033676 
	C687.350098,112.466789 687.533569,114.465561 688.000183,116.395882 
	C691.407715,130.491364 698.969299,140.907059 713.741760,144.528671 
	C727.356750,147.866501 741.117432,148.231964 754.757568,144.885040 
	C778.129700,139.150131 789.217041,115.580711 777.977051,94.682182 
M443.471252,108.949379 
	C443.974731,112.059677 444.196747,115.247284 445.026306,118.268028 
	C451.599701,142.204025 477.729492,149.689514 496.009613,132.951202 
	C496.414459,132.580536 497.016724,132.425446 497.755554,132.055237 
	C497.755554,136.794815 497.811096,141.094345 497.722107,145.390884 
	C497.694977,146.700180 497.269623,148.001205 497.026947,149.306091 
	C496.080292,154.396332 492.818420,157.107437 487.890991,157.830536 
	C481.508606,158.767166 477.337189,156.871124 474.612762,152.289932 
	C474.036591,151.321121 472.992126,150.091599 472.038208,149.970795 
	C463.342438,148.869583 454.618927,147.987305 445.919281,147.042770 
	C443.880249,160.664032 450.949768,170.884186 464.608643,173.964218 
	C476.418335,176.627289 488.394501,176.870239 500.302826,174.835510 
	C517.581604,171.883148 527.323486,160.380646 527.247681,143.676697 
	C527.166809,125.858284 527.135681,108.039635 527.093811,90.221062 
	C527.077515,83.276627 527.091125,76.332130 527.091125,68.998367 
	C522.187195,68.998367 517.728516,68.998367 513.269897,68.998367 
	C508.847260,68.998367 504.424622,68.998367 499.729248,68.998367 
	C499.729248,72.606873 499.729248,75.527992 499.729248,79.260559 
	C498.207672,77.641083 497.243103,76.603981 496.267395,75.577492 
	C481.754028,60.309124 453.739258,65.350914 446.574127,85.132118 
	C444.005951,92.222221 444.379639,100.377930 443.471252,108.949379 
M844.115906,67.278992 
	C836.162048,68.267036 830.097656,72.622856 824.327759,79.533661 
	C824.327759,75.284241 824.327759,72.379463 824.327759,69.262192 
	C815.051025,69.262192 806.149170,69.262192 797.190674,69.262192 
	C797.190674,104.245697 797.190674,138.965576 797.190674,173.627563 
	C807.031372,173.627563 816.578430,173.627563 826.571594,173.627563 
	C826.571594,161.875549 826.571594,150.494949 826.571594,138.534256 
	C828.067078,139.629181 828.985413,140.299484 829.901672,140.972641 
	C847.168762,153.658875 871.203186,146.309982 878.126160,126.041412 
	C882.113464,114.367790 882.082336,102.467522 878.437866,90.695099 
	C873.169434,73.677177 862.799316,66.465584 844.115906,67.278992 
M101.499954,39.996822 
	C76.245308,39.996822 50.990662,39.996822 25.770809,39.996822 
	C25.770809,49.027607 25.770809,57.415257 25.770809,66.123108 
	C36.761517,66.123108 47.385921,66.123108 58.476952,66.123108 
	C58.476952,92.528267 58.476952,118.606102 58.476952,144.763474 
	C69.544716,144.763474 80.135353,144.763474 91.185867,144.763474 
	C91.185867,118.462784 91.185867,92.397446 91.185867,65.872673 
	C102.382439,65.872673 113.125893,65.872673 123.766945,65.872673 
	C123.766945,57.005119 123.766945,48.607437 123.766945,39.996822 
	C116.461555,39.996822 109.480721,39.996822 101.499954,39.996822 
M908.828247,146.019089 
	C923.154785,148.464783 936.615234,147.038452 947.919189,136.805420 
	C950.166565,139.792572 948.614502,145.007156 954.038757,145.003387 
	C962.173096,144.997726 970.307434,145.001907 977.731445,145.001907 
	C976.895874,138.810211 975.591309,132.817657 975.381531,126.787003 
	C974.999634,115.809830 975.458252,104.805862 975.216675,93.820755 
	C974.907898,79.777824 968.012878,71.562416 954.303467,68.614296 
	C950.748108,67.849754 947.078857,67.464661 943.441833,67.258644 
	C932.456238,66.636353 921.467712,66.496529 910.811829,69.867424 
	C900.771790,73.043495 894.580322,80.582390 894.206848,90.002747 
	C902.426086,90.942642 910.656982,91.984596 918.915588,92.712173 
	C920.063599,92.813316 921.809082,91.658180 922.492981,90.584526 
	C926.301331,84.605995 936.714783,81.475914 942.741943,85.342621 
	C944.729797,86.617905 945.792786,89.803741 946.474731,92.332756 
	C946.656921,93.008514 944.031982,94.933434 942.419617,95.503006 
	C938.519165,96.880821 934.477173,97.882904 930.454041,98.882874 
	C921.764648,101.042656 912.925964,102.700630 904.388550,105.340622 
	C897.877808,107.353905 893.396790,112.059151 891.890442,119.051643 
	C889.122742,131.899124 894.717896,141.182068 908.828247,146.019089 
M1124.656738,128.125702 
	C1119.428589,125.010536 1117.563965,120.102097 1117.082275,113.860321 
	C1136.553833,113.860321 1155.807373,113.860321 1175.026855,113.860321 
	C1175.026855,109.566872 1175.298828,105.727844 1174.980591,101.938370 
	C1173.491821,84.208435 1163.277832,72.228783 1145.859009,68.579308 
	C1139.580811,67.263924 1132.969849,66.956085 1126.530396,67.095177 
	C1104.479858,67.571487 1089.744141,81.260979 1087.214966,103.104431 
	C1084.848999,123.536903 1097.380249,142.043213 1116.443848,145.750366 
	C1127.842896,147.967087 1139.348755,147.718292 1150.630249,144.897400 
	C1161.007812,142.302521 1168.302124,135.659348 1173.671143,126.048195 
	C1164.553589,125.040047 1155.973633,124.013069 1147.371460,123.227989 
	C1146.139038,123.115517 1144.472412,123.840897 1143.564453,124.741096 
	C1138.252686,130.007065 1132.241821,131.357208 1124.656738,128.125702 
M212.385101,69.000389 
	C204.289169,69.000389 196.193222,69.000389 187.911118,69.000389 
	C187.911118,81.939995 188.064972,94.254021 187.818359,106.560020 
	C187.743301,110.304779 187.070755,114.216034 185.767883,117.714386 
	C183.974854,122.528877 179.068344,124.700089 173.898453,123.859558 
	C169.488235,123.142532 166.525955,119.539131 166.122940,114.193230 
	C165.947998,111.872498 166.005875,109.532211 166.004120,107.200768 
	C165.994659,94.591850 165.999634,81.982933 165.999634,69.337898 
	C155.988846,69.337898 146.440079,69.337898 136.833405,69.337898 
	C136.833405,87.329147 136.614090,104.986710 136.910629,122.635612 
	C137.107910,134.378448 143.463928,143.326645 153.246704,145.786407 
	C165.495789,148.866302 176.721008,146.857101 185.796158,137.311951 
	C186.954025,136.094101 187.740829,134.523453 188.699539,133.116241 
	C189.159622,133.503601 189.619720,133.890961 190.079803,134.278336 
	C190.079803,137.726990 190.079803,141.175659 190.079803,144.643372 
	C199.236282,144.643372 208.111755,144.643372 217.088303,144.643372 
	C217.088303,120.302673 217.027512,96.317764 217.162354,72.333969 
	C217.179947,69.203972 215.899872,68.657837 212.385101,69.000389 
M348.911285,106.499985 
	C348.911285,119.254425 348.911285,132.008865 348.911285,144.732193 
	C358.954712,144.732193 368.371307,144.732193 378.088715,144.732193 
	C378.088715,133.334381 378.026581,122.201149 378.124176,111.069321 
	C378.156128,107.428314 378.245605,103.721474 378.935699,100.166451 
	C380.351715,92.871826 384.832397,89.459641 391.418640,90.102791 
	C396.947296,90.642670 399.880371,94.597984 399.944763,102.147224 
	C400.054230,114.975655 399.983368,127.805573 400.011200,140.634811 
	C400.014313,142.057571 400.166412,143.479996 400.238007,144.707458 
	C410.145844,144.707458 419.579834,144.707458 429.083923,144.707458 
	C429.083923,126.440903 429.386536,108.459175 428.974548,90.493843 
	C428.712036,79.047089 421.993439,70.351334 412.366577,68.103577 
	C400.067078,65.231766 388.903137,67.303238 379.894958,76.934258 
	C378.883667,78.015480 377.794647,79.024010 375.788452,81.009766 
	C375.788452,76.007332 375.788452,72.586792 375.788452,69.291229 
	C366.658508,69.291229 357.908112,69.291229 348.911285,69.291229 
	C348.911285,81.553589 348.911285,93.526787 348.911285,106.499985 
M557.477600,140.117432 
	C564.205566,142.331223 570.794128,145.746765 577.686157,146.545731 
	C604.122681,149.610428 626.078064,136.490448 627.728271,109.397362 
	C628.826355,91.368759 619.869751,75.684540 603.177734,70.265572 
	C596.215759,68.005440 588.525391,67.239738 581.149963,67.151062 
	C563.019409,66.933067 547.640808,77.636986 542.383118,93.189560 
	C536.392517,110.909981 541.729126,128.092133 557.477600,140.117432 
M990.941650,93.673813 
	C990.439941,96.621552 989.776672,99.552177 989.462646,102.519775 
	C987.290039,123.051155 996.740540,139.037384 1014.666809,144.382599 
	C1026.329468,147.860168 1038.324341,148.224365 1050.202148,145.438675 
	C1064.661865,142.047394 1073.375732,132.663864 1077.429688,118.041939 
	C1069.316528,117.139854 1061.548096,116.426041 1053.832031,115.340340 
	C1050.967529,114.937263 1049.442139,115.300613 1048.106689,118.218498 
	C1045.034058,124.932297 1039.146240,127.790352 1031.747681,126.851982 
	C1025.576782,126.069336 1020.228516,121.118980 1019.181946,114.352882 
	C1018.557434,110.315483 1018.538696,106.065903 1019.014832,102.001572 
	C1019.987061,93.702881 1024.833008,88.358353 1031.661133,87.226669 
	C1039.665283,85.900055 1044.555176,88.626801 1048.828979,96.991112 
	C1057.736572,95.675041 1066.738037,94.345108 1075.953979,92.983482 
	C1071.867188,80.237366 1064.066528,71.627220 1051.168823,69.041512 
	C1043.734863,67.551170 1035.954712,66.852615 1028.385620,67.159149 
	C1010.790955,67.871689 997.462891,75.501305 990.941650,93.673813 
M265.442566,75.990341 
	C264.646393,77.231651 263.850189,78.472954 263.054016,79.714264 
	C262.740265,79.543945 262.426514,79.373634 262.112762,79.203316 
	C262.112762,75.937943 262.112762,72.672569 262.112762,69.325569 
	C252.939758,69.325569 244.059525,69.325569 235.330200,69.325569 
	C235.330200,94.711304 235.330200,119.769829 235.330200,145.000458 
	C240.310654,145.000458 244.961502,145.000458 249.612335,145.000458 
	C254.393051,145.000458 259.173767,145.000458 264.240997,145.000458 
	C264.240997,136.663467 263.879883,128.840164 264.344971,121.066299 
	C264.788940,113.646133 265.424805,106.112282 267.198883,98.930405 
	C269.161224,90.986412 274.724060,88.617577 282.575928,90.974350 
	C283.654205,91.298004 284.747284,91.572495 286.147369,91.955635 
	C289.149139,85.055405 292.102325,78.266884 295.041565,71.510399 
	C282.739166,64.262360 273.143677,65.598984 265.442566,75.990341 
M300.912445,107.499985 
	C300.912445,119.905800 300.912445,132.311615 300.912445,144.769485 
	C310.893250,144.769485 320.296234,144.769485 329.892395,144.769485 
	C329.892395,119.513443 329.892395,94.486534 329.892395,69.313919 
	C320.168091,69.313919 310.641571,69.313919 300.912445,69.313919 
	C300.912445,81.916893 300.912445,94.208443 300.912445,107.499985 
M314.504364,59.998604 
	C319.596100,59.998604 324.687805,59.998604 329.833496,59.998604 
	C329.833496,53.101501 329.833496,46.724979 329.833496,40.344040 
	C320.065033,40.344040 310.554443,40.344040 301.258728,40.344040 
	C301.258728,47.071362 301.258728,53.452389 301.258728,59.998604 
	C305.571411,59.998604 309.540009,59.998604 314.504364,59.998604 
z"/>
<path fill="#AE1423" opacity="1.000000" stroke="none" 
	d="
M778.137085,95.013542 
	C789.217041,115.580711 778.129700,139.150131 754.757568,144.885040 
	C741.117432,148.231964 727.356750,147.866501 713.741760,144.528671 
	C698.969299,140.907059 691.407715,130.491364 688.000183,116.395882 
	C687.533569,114.465561 687.350098,112.466789 686.960938,110.033676 
	C697.307800,109.336853 707.519653,108.649124 717.895081,107.950371 
	C719.388367,116.385902 722.421814,123.732597 731.536377,125.217438 
	C735.883789,125.925659 740.986633,125.444046 744.973022,123.715683 
	C747.650513,122.554817 750.334595,118.334755 750.494751,115.348190 
	C750.640991,112.622162 748.038330,108.599670 745.500610,107.134621 
	C741.153381,104.624908 735.915955,103.651604 731.044556,102.056824 
	C723.643860,99.634056 715.953552,97.860336 708.893677,94.683327 
	C696.053894,88.905220 689.930359,79.096024 691.072510,66.888489 
	C692.307861,53.685173 700.088318,45.091908 712.318909,41.228168 
	C727.565125,36.411812 743.185120,36.367954 758.468140,41.362480 
	C771.480652,45.615005 777.319153,55.652855 779.090271,69.247482 
	C768.766052,69.852020 758.737366,70.439262 748.837219,71.018967 
	C745.089478,60.588654 740.538635,57.445137 730.621765,58.109451 
	C725.617188,58.444698 721.317932,61.607166 721.183594,65.415550 
	C721.011963,70.279770 724.682007,71.872704 728.477722,72.926659 
	C738.390686,75.679176 748.417542,78.039818 758.267212,80.995956 
	C766.224121,83.384033 773.110168,87.669334 778.137085,95.013542 
z"/>
<path fill="#C00202" opacity="1.000000" stroke="none" 
	d="
M443.440979,108.498337 
	C444.379639,100.377930 444.005951,92.222221 446.574127,85.132118 
	C453.739258,65.350914 481.754028,60.309124 496.267395,75.577492 
	C497.243103,76.603981 498.207672,77.641083 499.729248,79.260559 
	C499.729248,75.527992 499.729248,72.606873 499.729248,68.998367 
	C504.424622,68.998367 508.847260,68.998367 513.269897,68.998367 
	C517.728516,68.998367 522.187195,68.998367 527.091125,68.998367 
	C527.091125,76.332130 527.077515,83.276627 527.093811,90.221062 
	C527.135681,108.039635 527.166809,125.858284 527.247681,143.676697 
	C527.323486,160.380646 517.581604,171.883148 500.302826,174.835510 
	C488.394501,176.870239 476.418335,176.627289 464.608643,173.964218 
	C450.949768,170.884186 443.880249,160.664032 445.919281,147.042770 
	C454.618927,147.987305 463.342438,148.869583 472.038208,149.970795 
	C472.992126,150.091599 474.036591,151.321121 474.612762,152.289932 
	C477.337189,156.871124 481.508606,158.767166 487.890991,157.830536 
	C492.818420,157.107437 496.080292,154.396332 497.026947,149.306091 
	C497.269623,148.001205 497.694977,146.700180 497.722107,145.390884 
	C497.811096,141.094345 497.755554,136.794815 497.755554,132.055237 
	C497.016724,132.425446 496.414459,132.580536 496.009613,132.951202 
	C477.729492,149.689514 451.599701,142.204025 445.026306,118.268028 
	C444.196747,115.247284 443.974731,112.059677 443.440979,108.498337 
M472.721497,100.297783 
	C472.870392,104.417397 472.542999,108.624916 473.283173,112.635414 
	C474.315887,118.231194 478.814606,121.669128 484.166779,121.918533 
	C489.889893,122.185226 495.333679,119.306374 496.460449,113.831741 
	C497.530823,108.630943 497.705566,102.905251 496.716248,97.706848 
	C495.463470,91.124161 489.632263,87.601517 483.422241,88.089592 
	C477.625549,88.545181 474.153320,92.331673 472.721497,100.297783 
z"/>
<path fill="#AE1322" opacity="1.000000" stroke="none" 
	d="
M844.548950,67.197441 
	C862.799316,66.465584 873.169434,73.677177 878.437866,90.695099 
	C882.082336,102.467522 882.113464,114.367790 878.126160,126.041412 
	C871.203186,146.309982 847.168762,153.658875 829.901672,140.972641 
	C828.985413,140.299484 828.067078,139.629181 826.571594,138.534256 
	C826.571594,150.494949 826.571594,161.875549 826.571594,173.627563 
	C816.578430,173.627563 807.031372,173.627563 797.190674,173.627563 
	C797.190674,138.965576 797.190674,104.245697 797.190674,69.262192 
	C806.149170,69.262192 815.051025,69.262192 824.327759,69.262192 
	C824.327759,72.379463 824.327759,75.284241 824.327759,79.533661 
	C830.097656,72.622856 836.162048,68.267036 844.548950,67.197441 
M848.466614,93.198830 
	C843.619934,85.699242 833.050049,86.454140 829.085571,94.090324 
	C825.039062,101.884499 824.947083,110.170288 828.674866,118.158447 
	C830.907043,122.941582 835.056580,125.343941 840.460388,124.874107 
	C845.787903,124.410912 848.899109,121.038025 850.231812,116.196922 
	C852.310791,108.645004 852.474304,101.090385 848.466614,93.198830 
z"/>
<path fill="#C00202" opacity="1.000000" stroke="none" 
	d="
M101.999924,39.996822 
	C109.480721,39.996822 116.461555,39.996822 123.766945,39.996822 
	C123.766945,48.607437 123.766945,57.005119 123.766945,65.872673 
	C113.125893,65.872673 102.382439,65.872673 91.185867,65.872673 
	C91.185867,92.397446 91.185867,118.462784 91.185867,144.763474 
	C80.135353,144.763474 69.544716,144.763474 58.476952,144.763474 
	C58.476952,118.606102 58.476952,92.528267 58.476952,66.123108 
	C47.385921,66.123108 36.761517,66.123108 25.770809,66.123108 
	C25.770809,57.415257 25.770809,49.027607 25.770809,39.996822 
	C50.990662,39.996822 76.245308,39.996822 101.999924,39.996822 
z"/>
<path fill="#AE1423" opacity="1.000000" stroke="none" 
	d="
M908.425659,145.923645 
	C894.717896,141.182068 889.122742,131.899124 891.890442,119.051643 
	C893.396790,112.059151 897.877808,107.353905 904.388550,105.340622 
	C912.925964,102.700630 921.764648,101.042656 930.454041,98.882874 
	C934.477173,97.882904 938.519165,96.880821 942.419617,95.503006 
	C944.031982,94.933434 946.656921,93.008514 946.474731,92.332756 
	C945.792786,89.803741 944.729797,86.617905 942.741943,85.342621 
	C936.714783,81.475914 926.301331,84.605995 922.492981,90.584526 
	C921.809082,91.658180 920.063599,92.813316 918.915588,92.712173 
	C910.656982,91.984596 902.426086,90.942642 894.206848,90.002747 
	C894.580322,80.582390 900.771790,73.043495 910.811829,69.867424 
	C921.467712,66.496529 932.456238,66.636353 943.441833,67.258644 
	C947.078857,67.464661 950.748108,67.849754 954.303467,68.614296 
	C968.012878,71.562416 974.907898,79.777824 975.216675,93.820755 
	C975.458252,104.805862 974.999634,115.809830 975.381531,126.787003 
	C975.591309,132.817657 976.895874,138.810211 977.731445,145.001907 
	C970.307434,145.001907 962.173096,144.997726 954.038757,145.003387 
	C948.614502,145.007156 950.166565,139.792572 947.919189,136.805420 
	C936.615234,147.038452 923.154785,148.464783 908.425659,145.923645 
M943.037170,125.480156 
	C946.943237,120.762207 947.151550,115.239792 946.682129,108.988968 
	C939.315796,111.445320 932.182861,113.583580 925.246277,116.235435 
	C921.628967,117.618332 920.049561,120.809303 920.858643,124.775314 
	C921.679993,128.801086 924.574524,130.499344 928.361206,130.878799 
	C933.801575,131.423981 938.483643,129.606247 943.037170,125.480156 
z"/>
<path fill="#AE1423" opacity="1.000000" stroke="none" 
	d="
M1124.980713,128.334824 
	C1132.241821,131.357208 1138.252686,130.007065 1143.564453,124.741096 
	C1144.472412,123.840897 1146.139038,123.115517 1147.371460,123.227989 
	C1155.973633,124.013069 1164.553589,125.040047 1173.671143,126.048195 
	C1168.302124,135.659348 1161.007812,142.302521 1150.630249,144.897400 
	C1139.348755,147.718292 1127.842896,147.967087 1116.443848,145.750366 
	C1097.380249,142.043213 1084.848999,123.536903 1087.214966,103.104431 
	C1089.744141,81.260979 1104.479858,67.571487 1126.530396,67.095177 
	C1132.969849,66.956085 1139.580811,67.263924 1145.859009,68.579308 
	C1163.277832,72.228783 1173.491821,84.208435 1174.980591,101.938370 
	C1175.298828,105.727844 1175.026855,109.566872 1175.026855,113.860321 
	C1155.807373,113.860321 1136.553833,113.860321 1117.082275,113.860321 
	C1117.563965,120.102097 1119.428589,125.010536 1124.980713,128.334824 
M1127.437500,84.504387 
	C1120.339722,87.513802 1117.567871,91.501694 1117.564819,98.807518 
	C1126.851807,98.807518 1136.137573,98.807518 1145.447510,98.807518 
	C1143.974243,87.249306 1139.584473,83.592346 1127.437500,84.504387 
z"/>
<path fill="#C00101" opacity="1.000000" stroke="none" 
	d="
M212.871338,69.000420 
	C215.899872,68.657837 217.179947,69.203972 217.162354,72.333969 
	C217.027512,96.317764 217.088303,120.302673 217.088303,144.643372 
	C208.111755,144.643372 199.236282,144.643372 190.079803,144.643372 
	C190.079803,141.175659 190.079803,137.726990 190.079803,134.278336 
	C189.619720,133.890961 189.159622,133.503601 188.699539,133.116241 
	C187.740829,134.523453 186.954025,136.094101 185.796158,137.311951 
	C176.721008,146.857101 165.495789,148.866302 153.246704,145.786407 
	C143.463928,143.326645 137.107910,134.378448 136.910629,122.635612 
	C136.614090,104.986710 136.833405,87.329147 136.833405,69.337898 
	C146.440079,69.337898 155.988846,69.337898 165.999634,69.337898 
	C165.999634,81.982933 165.994659,94.591850 166.004120,107.200768 
	C166.005875,109.532211 165.947998,111.872498 166.122940,114.193230 
	C166.525955,119.539131 169.488235,123.142532 173.898453,123.859558 
	C179.068344,124.700089 183.974854,122.528877 185.767883,117.714386 
	C187.070755,114.216034 187.743301,110.304779 187.818359,106.560020 
	C188.064972,94.254021 187.911118,81.939995 187.911118,69.000389 
	C196.193222,69.000389 204.289169,69.000389 212.871338,69.000420 
z"/>
<path fill="#C00101" opacity="1.000000" stroke="none" 
	d="
M348.911285,105.999985 
	C348.911285,93.526787 348.911285,81.553589 348.911285,69.291229 
	C357.908112,69.291229 366.658508,69.291229 375.788452,69.291229 
	C375.788452,72.586792 375.788452,76.007332 375.788452,81.009766 
	C377.794647,79.024010 378.883667,78.015480 379.894958,76.934258 
	C388.903137,67.303238 400.067078,65.231766 412.366577,68.103577 
	C421.993439,70.351334 428.712036,79.047089 428.974548,90.493843 
	C429.386536,108.459175 429.083923,126.440903 429.083923,144.707458 
	C419.579834,144.707458 410.145844,144.707458 400.238007,144.707458 
	C400.166412,143.479996 400.014313,142.057571 400.011200,140.634811 
	C399.983368,127.805573 400.054230,114.975655 399.944763,102.147224 
	C399.880371,94.597984 396.947296,90.642670 391.418640,90.102791 
	C384.832397,89.459641 380.351715,92.871826 378.935699,100.166451 
	C378.245605,103.721474 378.156128,107.428314 378.124176,111.069321 
	C378.026581,122.201149 378.088715,133.334381 378.088715,144.732193 
	C368.371307,144.732193 358.954712,144.732193 348.911285,144.732193 
	C348.911285,132.008865 348.911285,119.254425 348.911285,105.999985 
z"/>
<path fill="#C00202" opacity="1.000000" stroke="none" 
	d="
M557.161926,139.936920 
	C541.729126,128.092133 536.392517,110.909981 542.383118,93.189560 
	C547.640808,77.636986 563.019409,66.933067 581.149963,67.151062 
	C588.525391,67.239738 596.215759,68.005440 603.177734,70.265572 
	C619.869751,75.684540 628.826355,91.368759 627.728271,109.397362 
	C626.078064,136.490448 604.122681,149.610428 577.686157,146.545731 
	C570.794128,145.746765 564.205566,142.331223 557.161926,139.936920 
M590.544861,125.374458 
	C598.112122,119.827164 601.043640,105.330612 596.489624,95.473152 
	C594.079346,90.255943 590.199280,87.065147 584.136780,87.071999 
	C578.109253,87.078819 574.069885,90.148438 571.709290,95.387337 
	C568.725647,102.008835 568.869202,109.008133 570.650391,115.844124 
	C573.084839,125.186890 580.583191,128.877655 590.544861,125.374458 
z"/>
<path fill="#AF1523" opacity="1.000000" stroke="none" 
	d="
M991.036987,93.279770 
	C997.462891,75.501305 1010.790955,67.871689 1028.385620,67.159149 
	C1035.954712,66.852615 1043.734863,67.551170 1051.168823,69.041512 
	C1064.066528,71.627220 1071.867188,80.237366 1075.953979,92.983482 
	C1066.738037,94.345108 1057.736572,95.675041 1048.828979,96.991112 
	C1044.555176,88.626801 1039.665283,85.900055 1031.661133,87.226669 
	C1024.833008,88.358353 1019.987061,93.702881 1019.014832,102.001572 
	C1018.538696,106.065903 1018.557434,110.315483 1019.181946,114.352882 
	C1020.228516,121.118980 1025.576782,126.069336 1031.747681,126.851982 
	C1039.146240,127.790352 1045.034058,124.932297 1048.106689,118.218498 
	C1049.442139,115.300613 1050.967529,114.937263 1053.832031,115.340340 
	C1061.548096,116.426041 1069.316528,117.139854 1077.429688,118.041939 
	C1073.375732,132.663864 1064.661865,142.047394 1050.202148,145.438675 
	C1038.324341,148.224365 1026.329468,147.860168 1014.666809,144.382599 
	C996.740540,139.037384 987.290039,123.051155 989.462646,102.519775 
	C989.776672,99.552177 990.439941,96.621552 991.036987,93.279770 
z"/>
<path fill="#C00101" opacity="1.000000" stroke="none" 
	d="
M265.646118,75.691986 
	C273.143677,65.598984 282.739166,64.262360 295.041565,71.510399 
	C292.102325,78.266884 289.149139,85.055405 286.147369,91.955635 
	C284.747284,91.572495 283.654205,91.298004 282.575928,90.974350 
	C274.724060,88.617577 269.161224,90.986412 267.198883,98.930405 
	C265.424805,106.112282 264.788940,113.646133 264.344971,121.066299 
	C263.879883,128.840164 264.240997,136.663467 264.240997,145.000458 
	C259.173767,145.000458 254.393051,145.000458 249.612335,145.000458 
	C244.961502,145.000458 240.310654,145.000458 235.330200,145.000458 
	C235.330200,119.769829 235.330200,94.711304 235.330200,69.325569 
	C244.059525,69.325569 252.939758,69.325569 262.112762,69.325569 
	C262.112762,72.672569 262.112762,75.937943 262.112762,79.203316 
	C262.426514,79.373634 262.740265,79.543945 263.054016,79.714264 
	C263.850189,78.472954 264.646393,77.231651 265.646118,75.691986 
z"/>
<path fill="#C00000" opacity="1.000000" stroke="none" 
	d="
M300.912445,106.999985 
	C300.912445,94.208443 300.912445,81.916893 300.912445,69.313919 
	C310.641571,69.313919 320.168091,69.313919 329.892395,69.313919 
	C329.892395,94.486534 329.892395,119.513443 329.892395,144.769485 
	C320.296234,144.769485 310.893250,144.769485 300.912445,144.769485 
	C300.912445,132.311615 300.912445,119.905800 300.912445,106.999985 
z"/>
<path fill="#C00000" opacity="1.000000" stroke="none" 
	d="
M314.006470,59.998604 
	C309.540009,59.998604 305.571411,59.998604 301.258728,59.998604 
	C301.258728,53.452389 301.258728,47.071362 301.258728,40.344040 
	C310.554443,40.344040 320.065033,40.344040 329.833496,40.344040 
	C329.833496,46.724979 329.833496,53.101501 329.833496,59.998604 
	C324.687805,59.998604 319.596100,59.998604 314.006470,59.998604 
z"/>
<path fill="#FDF9F9" opacity="1.000000" stroke="none" 
	d="
M472.842712,99.896126 
	C474.153320,92.331673 477.625549,88.545181 483.422241,88.089592 
	C489.632263,87.601517 495.463470,91.124161 496.716248,97.706848 
	C497.705566,102.905251 497.530823,108.630943 496.460449,113.831741 
	C495.333679,119.306374 489.889893,122.185226 484.166779,121.918533 
	C478.814606,121.669128 474.315887,118.231194 473.283173,112.635414 
	C472.542999,108.624916 472.870392,104.417397 472.842712,99.896126 
z"/>
<path fill="#FDFAFA" opacity="1.000000" stroke="none" 
	d="
M848.681396,93.509262 
	C852.474304,101.090385 852.310791,108.645004 850.231812,116.196922 
	C848.899109,121.038025 845.787903,124.410912 840.460388,124.874107 
	C835.056580,125.343941 830.907043,122.941582 828.674866,118.158447 
	C824.947083,110.170288 825.039062,101.884499 829.085571,94.090324 
	C833.050049,86.454140 843.619934,85.699242 848.681396,93.509262 
z"/>
<path fill="#FCF8F8" opacity="1.000000" stroke="none" 
	d="
M942.780884,125.742279 
	C938.483643,129.606247 933.801575,131.423981 928.361206,130.878799 
	C924.574524,130.499344 921.679993,128.801086 920.858643,124.775314 
	C920.049561,120.809303 921.628967,117.618332 925.246277,116.235435 
	C932.182861,113.583580 939.315796,111.445320 946.682129,108.988968 
	C947.151550,115.239792 946.943237,120.762207 942.780884,125.742279 
z"/>
<path fill="#FDFAFA" opacity="1.000000" stroke="none" 
	d="
M1127.828613,84.390961 
	C1139.584473,83.592346 1143.974243,87.249306 1145.447510,98.807518 
	C1136.137573,98.807518 1126.851807,98.807518 1117.564819,98.807518 
	C1117.567871,91.501694 1120.339722,87.513802 1127.828613,84.390961 
z"/>
<path fill="#FEFBFB" opacity="1.000000" stroke="none" 
	d="
M590.209778,125.568954 
	C580.583191,128.877655 573.084839,125.186890 570.650391,115.844124 
	C568.869202,109.008133 568.725647,102.008835 571.709290,95.387337 
	C574.069885,90.148438 578.109253,87.078819 584.136780,87.071999 
	C590.199280,87.065147 594.079346,90.255943 596.489624,95.473152 
	C601.043640,105.330612 598.112122,119.827164 590.209778,125.568954 
z"/>
</svg>