<svg version="1.1" id="Layer_1" xmlns="http://www.w3.org/2000/svg" xmlns:xlink="http://www.w3.org/1999/xlink" x="0px" y="0px"
	 width="100%" viewBox="0 0 5000 5000" enable-background="new 0 0 5000 5000" xml:space="preserve">
<path fill="#000000" opacity="1.000000" stroke="none" 
	d="
M2800.000000,5004.000000 
	C1866.666626,5004.000000 935.333313,5004.000000 4.000000,5004.000000 
	C4.000000,3337.333252 4.000000,1670.666626 4.000000,4.000001 
	C1670.666626,4.000000 3337.333252,4.000000 5004.000000,4.000000 
	C5004.000000,1670.666626 5004.000000,3337.333252 5004.000000,5004.000000 
	C4270.000000,5004.000000 3536.000000,5004.000000 2800.000000,5004.000000 
M958.426758,2357.030762 
	C962.018372,2357.852539 965.609985,2358.674316 968.623718,2363.265625 
	C968.556763,2366.593262 968.431335,2369.920898 968.431152,2373.248535 
	C968.421021,2600.274414 968.421021,2827.300293 968.420776,3054.326172 
	C968.420776,3056.989258 968.285400,3059.662354 968.468628,3062.312988 
	C968.732971,3066.135742 969.231506,3069.942383 969.644714,3073.895508 
	C977.735962,3076.919678 985.100403,3075.772461 992.258606,3075.781006 
	C1071.484619,3075.876709 1150.710571,3075.823486 1229.936646,3075.867188 
	C1238.585815,3075.871826 1247.234741,3076.231201 1259.027466,3077.201416 
	C1265.680908,3077.265381 1272.334839,3077.418457 1278.987671,3077.380127 
	C1365.472168,3076.880615 1451.956299,3075.995605 1538.441040,3075.946777 
	C1608.286621,3075.907471 1678.132202,3077.038330 1747.979126,3077.332520 
	C1807.871948,3077.584717 1867.766724,3077.401123 1927.660645,3077.349854 
	C1930.943481,3077.347168 1934.335083,3077.173340 1937.445801,3076.278809 
	C1938.465820,3075.985352 1938.755981,3073.154541 1939.489014,3067.802002 
	C1939.489014,2820.144043 1939.489014,2572.486084 1939.489014,2324.797852 
	C1934.317993,2321.333252 1930.019043,2318.258301 1925.535278,2315.481934 
	C1903.471680,2301.820557 1881.381470,2288.201172 1859.258545,2274.635498 
	C1819.554565,2250.289551 1779.820557,2225.992676 1738.182129,2199.895996 
	C1735.752441,2200.898193 1733.169434,2201.635498 1730.915039,2202.940430 
	C1667.591064,2239.593994 1604.318848,2276.336914 1540.971313,2312.949707 
	C1535.335205,2316.207520 1530.084961,2320.842773 1522.460083,2316.330078 
	C1522.410767,2259.742676 1522.361328,2203.155273 1522.311890,2146.505371 
	C1517.052612,2142.981201 1512.773804,2139.903320 1508.297607,2137.145752 
	C1428.339600,2087.887695 1348.366943,2038.652832 1268.350586,1989.489258 
	C1264.443115,1987.088379 1260.104736,1985.388794 1254.848145,1981.482910 
	C1251.891113,1983.449707 1248.934204,1985.416504 1243.309570,1987.803345 
	C1230.704468,1994.815918 1218.059326,2001.757568 1205.504639,2008.859497 
	C1191.232056,2016.933105 1177.013550,2025.103394 1162.829956,2033.332275 
	C1158.169189,2036.036255 1153.560669,2038.331909 1146.684692,2033.616211 
	C1144.058472,2029.774048 1141.639282,2025.769775 1138.775269,2022.113647 
	C1084.692627,1953.069458 1014.236084,1923.210205 927.807678,1939.856445 
	C777.642029,1968.778198 709.378662,2142.880615 797.556335,2267.393555 
	C835.996155,2321.672852 889.880066,2350.127686 958.426758,2357.030762 
M3641.635498,2551.882080 
	C3631.876465,2559.782959 3629.099854,2570.217529 3630.404297,2582.255127 
	C3631.713623,2594.338379 3637.648682,2603.818359 3647.519043,2610.316162 
	C3654.111572,2614.656250 3661.512695,2618.005859 3668.924561,2620.816406 
	C3687.112793,2627.712402 3706.185303,2630.678223 3725.498291,2632.328857 
	C3752.708252,2634.654053 3780.042969,2636.456299 3806.389160,2644.282227 
	C3815.874268,2647.099609 3825.429688,2650.609863 3833.955566,2655.531494 
	C3851.817627,2665.842529 3858.557373,2683.350586 3853.812012,2703.377686 
	C3849.265625,2722.564941 3837.545410,2736.646484 3821.757568,2747.623047 
	C3800.615967,2762.322266 3776.835205,2766.957520 3751.506348,2765.525146 
	C3733.193359,2764.489258 3716.205322,2759.805176 3700.853516,2749.299805 
	C3676.578369,2732.688232 3674.150391,2701.500000 3688.536133,2682.448242 
	C3691.744873,2678.198730 3695.018311,2673.963623 3697.812500,2669.444092 
	C3701.294678,2663.812500 3699.422607,2656.939697 3693.124023,2654.595703 
	C3689.041992,2653.075928 3683.784912,2652.324219 3679.729736,2653.519775 
	C3657.156494,2660.175781 3628.963623,2685.534424 3631.837891,2719.620850 
	C3633.391113,2738.040527 3641.617676,2752.586182 3655.463135,2764.219238 
	C3671.735840,2777.891602 3690.899902,2784.922607 3711.678223,2788.226074 
	C3745.802246,2793.651367 3779.551514,2790.447754 3812.856445,2782.843262 
	C3835.020996,2777.782227 3855.965576,2769.032227 3874.546387,2755.482422 
	C3892.755371,2742.203857 3906.924805,2725.687012 3913.740479,2703.854736 
	C3925.380859,2666.569092 3915.727295,2639.072998 3886.011719,2617.858398 
	C3875.056885,2610.037598 3863.074707,2604.322510 3850.351562,2600.213135 
	C3828.700928,2593.219971 3806.410400,2589.511230 3783.742188,2587.839600 
	C3768.459229,2586.712891 3753.112549,2585.937012 3737.952148,2583.854980 
	C3728.860352,2582.606445 3719.481934,2580.370117 3711.278076,2576.410889 
	C3696.870117,2569.457520 3695.882080,2556.238037 3708.556885,2546.279541 
	C3716.893066,2539.729492 3726.085693,2534.269531 3734.433838,2528.632812 
	C3757.672119,2533.576904 3780.279541,2534.279297 3802.888184,2532.197266 
	C3830.030518,2529.697510 3854.835693,2520.533691 3875.873291,2502.819824 
	C3909.008789,2474.919678 3915.514160,2433.920410 3893.022705,2396.845947 
	C3890.677002,2392.978760 3887.957031,2389.338623 3884.893311,2384.832031 
	C3890.475098,2380.414795 3896.064941,2376.791992 3900.640137,2372.165771 
	C3906.192383,2366.550537 3912.051758,2360.707764 3915.700195,2353.857178 
	C3922.208008,2341.637207 3915.911377,2324.779541 3904.266357,2319.801025 
	C3890.879883,2314.078369 3875.856934,2320.924561 3870.801514,2335.405273 
	C3869.061768,2340.388672 3868.666016,2345.833984 3867.021240,2350.860596 
	C3865.472656,2355.594971 3865.525879,2361.312256 3860.234131,2365.235840 
	C3830.748291,2349.762695 3799.354736,2345.927734 3767.018311,2348.094727 
	C3744.148438,2349.627441 3722.557129,2355.703125 3702.465332,2367.102051 
	C3679.495605,2380.133057 3665.323486,2399.498047 3661.467041,2425.428467 
	C3656.159668,2461.114258 3664.962402,2491.546143 3697.374512,2511.893555 
	C3699.456055,2513.200439 3701.204346,2515.038330 3703.968506,2517.349121 
	C3696.899658,2523.256836 3689.426025,2525.748535 3682.515381,2529.302490 
	C3669.521484,2535.985107 3656.778076,2543.154785 3641.635498,2551.882080 
M2454.438477,2253.891602 
	C2454.994141,2263.133057 2455.670654,2272.369141 2456.070557,2281.617188 
	C2456.444824,2290.268311 2455.687500,2299.051270 2456.899170,2307.566895 
	C2460.102051,2330.082275 2481.838867,2342.712158 2503.072021,2334.781494 
	C2509.605957,2332.341064 2514.564209,2327.729980 2516.109375,2320.686279 
	C2517.386963,2314.862793 2518.407959,2308.863037 2518.509033,2302.923828 
	C2518.815674,2284.930664 2518.654053,2266.928223 2518.588623,2248.929932 
	C2518.576416,2245.613281 2518.392822,2242.262207 2517.887451,2238.989014 
	C2516.661865,2231.050049 2512.527344,2225.154053 2504.393311,2223.510010 
	C2496.614990,2221.937744 2488.656738,2220.353271 2480.774170,2220.336914 
	C2380.782227,2220.129395 2280.789307,2220.175293 2180.796875,2220.279541 
	C2174.844727,2220.285645 2168.768311,2220.757568 2162.966064,2222.012451 
	C2148.343506,2225.175781 2144.123047,2230.278076 2143.906250,2245.465088 
	C2143.611572,2266.125977 2143.660156,2286.797363 2144.003662,2307.457031 
	C2144.089844,2312.656250 2145.430420,2317.958252 2146.965576,2322.977783 
	C2148.843262,2329.118408 2153.661621,2332.857910 2159.582520,2334.895996 
	C2181.508057,2342.442627 2202.467041,2329.856445 2204.796875,2306.948486 
	C2206.140869,2293.735840 2205.437744,2280.323242 2205.928223,2267.010498 
	C2206.093262,2262.531494 2207.097656,2258.083740 2207.683350,2253.872070 
	C2235.137939,2251.556641 2281.605713,2252.221680 2297.108398,2255.274170 
	C2297.302734,2262.173096 2297.680664,2269.394287 2297.683105,2276.615234 
	C2297.720947,2387.273682 2297.703857,2497.932129 2297.725586,2608.590576 
	C2297.726807,2615.252441 2297.527100,2621.953613 2298.146973,2628.568604 
	C2299.977051,2648.097656 2308.585449,2655.820312 2327.920654,2655.705566 
	C2331.241211,2655.685791 2334.609131,2655.522461 2337.869385,2654.942383 
	C2354.676270,2651.952393 2362.251465,2643.909424 2363.817139,2626.923096 
	C2364.426514,2620.305664 2364.212402,2613.603760 2364.213623,2606.940186 
	C2364.233887,2495.615234 2364.200684,2384.290039 2364.300537,2272.965088 
	C2364.306396,2266.560303 2362.719482,2259.829102 2366.594482,2252.879639 
	C2394.556152,2252.879639 2422.509766,2252.879639 2454.438477,2253.891602 
M3537.800293,2652.871582 
	C3548.361084,2647.052734 3548.615479,2636.825684 3548.623047,2626.753418 
	C3548.671631,2562.090576 3548.820312,2497.426025 3548.316162,2432.766846 
	C3548.229248,2421.590576 3546.451904,2410.059082 3543.253174,2399.349609 
	C3535.871582,2374.636230 3519.712891,2357.541992 3494.101807,2351.645264 
	C3446.524170,2340.691406 3404.283203,2350.603516 3369.214600,2385.895020 
	C3365.141846,2389.993408 3361.272217,2394.293213 3356.903320,2398.929688 
	C3351.330078,2392.219727 3353.204102,2385.188477 3351.889160,2378.945312 
	C3347.134033,2356.368408 3332.308350,2345.187256 3310.489746,2347.948730 
	C3298.781982,2349.430420 3292.953613,2355.353027 3291.668213,2367.449219 
	C3291.246826,2371.412598 3291.307861,2375.437500 3291.306885,2379.434082 
	C3291.290283,2460.096680 3291.282471,2540.759521 3291.329346,2621.422119 
	C3291.332520,2626.745361 3291.322266,2632.139893 3292.125244,2637.377197 
	C3293.801270,2648.310791 3299.693115,2654.578369 3310.433838,2655.197021 
	C3318.262939,2655.647461 3326.335449,2654.551270 3334.084717,2653.042480 
	C3344.168213,2651.079346 3350.692871,2644.470459 3352.347656,2634.240234 
	C3353.830078,2625.079590 3355.090576,2615.764893 3355.144531,2606.510742 
	C3355.424072,2558.514648 3355.634277,2510.512695 3355.130615,2462.520508 
	C3354.910645,2441.539795 3363.359375,2425.234863 3378.231689,2411.513916 
	C3390.795410,2399.922607 3405.664551,2392.661377 3422.359131,2389.463379 
	C3453.891113,2383.423096 3479.679443,2402.070068 3483.664551,2433.898682 
	C3484.736572,2442.459717 3484.654053,2451.196045 3484.671875,2459.852783 
	C3484.766846,2506.517090 3484.555176,2553.182861 3484.870361,2599.844971 
	C3484.937256,2609.766113 3485.881348,2619.862793 3487.960449,2629.547852 
	C3491.352539,2645.348877 3500.949463,2653.539551 3517.085693,2655.228760 
	C3522.926025,2655.840088 3528.956543,2654.634277 3537.800293,2652.871582 
M2555.691162,2347.818359 
	C2530.262939,2348.025635 2524.971191,2353.029541 2524.233643,2377.568848 
	C2524.213623,2378.234619 2524.219482,2378.901611 2524.219727,2379.567871 
	C2524.230957,2441.537842 2524.034424,2503.509521 2524.446289,2565.476807 
	C2524.520752,2576.695068 2525.962646,2588.182373 2528.721924,2599.051025 
	C2536.081543,2628.041016 2554.221191,2646.891357 2584.179932,2652.637695 
	C2633.120117,2662.024902 2675.077881,2649.555664 2708.849609,2611.969238 
	C2711.533447,2608.982178 2712.408203,2602.590088 2718.441895,2604.669434 
	C2720.172363,2614.137695 2720.942383,2623.502441 2723.675537,2632.253906 
	C2729.693359,2651.521729 2749.332031,2660.597656 2768.445312,2653.888184 
	C2775.305176,2651.479980 2779.972412,2647.055176 2780.864258,2639.707031 
	C2781.743896,2632.462891 2782.452881,2625.143555 2782.463623,2617.856201 
	C2782.575928,2541.226562 2782.533691,2464.596680 2782.530029,2387.967041 
	C2782.529785,2384.635498 2782.618164,2381.297607 2782.450439,2377.973389 
	C2781.095703,2351.140381 2774.557129,2345.278076 2745.356445,2348.217529 
	C2744.037598,2348.350098 2742.721191,2348.624268 2741.436035,2348.958252 
	C2730.106445,2351.904785 2722.628906,2358.789795 2720.398438,2370.479736 
	C2719.404053,2375.690918 2718.985352,2381.055908 2718.804688,2386.368164 
	C2718.510498,2395.021973 2718.579834,2403.689453 2718.575928,2412.351318 
	C2718.556152,2453.664795 2718.514404,2494.978027 2718.589355,2536.291504 
	C2718.614014,2549.828857 2716.939941,2562.887939 2709.295898,2574.508057 
	C2693.645264,2598.300049 2671.453857,2612.200195 2643.268311,2614.148926 
	C2616.075195,2616.029053 2596.050049,2600.939453 2591.551514,2577.091797 
	C2589.713623,2567.347900 2588.483643,2557.336670 2588.416992,2547.437256 
	C2588.093262,2499.462646 2588.307129,2451.484375 2588.203369,2403.507568 
	C2588.186035,2395.526611 2588.234863,2387.441650 2587.040283,2379.589111 
	C2584.529541,2363.085693 2576.600830,2350.892090 2555.691162,2347.818359 
M3984.872070,2438.935303 
	C3982.488281,2454.018066 3979.206543,2469.024414 3977.912354,2484.200195 
	C3975.404785,2513.602295 3978.099365,2542.665527 3987.422119,2570.848633 
	C4000.730713,2611.083008 4027.737793,2637.263428 4068.516113,2648.996338 
	C4100.598633,2658.227295 4132.913086,2658.338135 4165.037109,2649.704346 
	C4207.501953,2638.291260 4235.263672,2611.195801 4249.058105,2569.393799 
	C4254.964355,2551.496338 4257.232422,2533.068359 4258.289062,2514.500732 
	C4259.886230,2486.429688 4257.401855,2458.680176 4248.467773,2431.807373 
	C4235.599121,2393.098633 4209.493164,2367.829834 4170.817871,2355.057861 
	C4148.257324,2347.607178 4125.117188,2346.442871 4101.796875,2348.083252 
	C4042.444336,2352.258545 4000.895508,2384.758789 3984.872070,2438.935303 
M2906.518066,2655.725098 
	C2911.771484,2655.009277 2917.080322,2654.568359 2922.266846,2653.521240 
	C2933.227051,2651.308105 2940.087402,2644.441650 2942.026855,2633.548584 
	C2943.417480,2625.736328 2944.111084,2617.706055 2944.166504,2609.766113 
	C2944.400146,2576.437500 2944.273193,2543.106201 2944.284180,2509.775879 
	C2944.288330,2497.776855 2944.032959,2485.770264 2944.373779,2473.780518 
	C2945.482178,2434.796143 2971.242432,2405.707275 3010.005859,2400.117432 
	C3021.179688,2398.505859 3032.573730,2398.390381 3043.874023,2397.703613 
	C3049.854248,2397.340332 3055.932617,2397.742432 3061.808105,2396.805176 
	C3065.555908,2396.207275 3069.762695,2394.582520 3072.457764,2392.035645 
	C3079.973389,2384.933838 3080.786133,2375.822998 3078.239990,2366.177246 
	C3075.849609,2357.121094 3070.896729,2349.810059 3061.252686,2348.631348 
	C3034.022949,2345.303467 3007.537354,2347.543701 2985.989258,2366.769043 
	C2974.628662,2376.904785 2964.991211,2388.987061 2954.730713,2400.330322 
	C2951.804932,2403.564697 2949.420654,2407.288574 2946.689941,2410.918213 
	C2941.965332,2406.939941 2943.915039,2402.791260 2943.382812,2399.179932 
	C2942.123291,2390.633301 2941.835693,2381.831055 2939.567139,2373.568359 
	C2934.465820,2354.988281 2921.368164,2346.370850 2902.236572,2347.759033 
	C2888.415771,2348.761963 2881.969971,2354.918701 2880.511230,2368.986328 
	C2880.031738,2373.608887 2880.233887,2378.308838 2880.233154,2382.973389 
	C2880.219482,2460.966553 2880.219482,2538.959473 2880.230713,2616.952637 
	C2880.231445,2621.617920 2879.590576,2626.452881 2880.590088,2630.907959 
	C2882.013428,2637.250488 2883.695068,2643.936523 2887.096924,2649.318848 
	C2890.386719,2654.524170 2897.012695,2655.577881 2906.518066,2655.725098 
M3189.725830,2616.196533 
	C3189.752930,2542.901123 3189.821045,2469.605469 3189.743896,2396.310059 
	C3189.736084,2389.006348 3189.465332,2381.597168 3188.234619,2374.422607 
	C3185.717041,2359.742676 3176.376221,2350.580078 3161.788086,2348.363770 
	C3155.926270,2347.472900 3149.786865,2347.502686 3143.870850,2348.090088 
	C3134.822998,2348.988525 3129.413330,2353.935791 3127.737793,2363.161377 
	C3126.437012,2370.323242 3125.917969,2377.717529 3125.906494,2385.009521 
	C3125.784180,2462.969482 3125.831055,2540.929443 3125.838867,2618.889404 
	C3125.839111,2621.553955 3125.816406,2624.224854 3125.976074,2626.882324 
	C3127.446533,2651.338623 3136.125732,2658.450928 3160.677734,2655.360840 
	C3161.998291,2655.194580 3163.321533,2655.014404 3164.625244,2654.751709 
	C3180.382812,2651.577637 3185.851318,2645.902832 3188.569336,2629.682129 
	C3189.118408,2626.405029 3189.230713,2623.054688 3189.725830,2616.196533 
M3119.229492,2263.939209 
	C3119.271729,2267.901611 3118.830811,2271.939453 3119.437256,2275.813477 
	C3122.548340,2295.690674 3141.219971,2309.878662 3160.812744,2307.520020 
	C3179.356445,2305.287598 3194.940918,2287.925781 3194.999512,2269.433594 
	C3195.062012,2249.708496 3178.698730,2232.598877 3158.873291,2231.658447 
	C3139.495361,2230.739502 3127.982666,2239.346924 3119.229492,2263.939209 
z"/>
<path fill="#777777" opacity="1.000000" stroke="none" 
	d="
M1255.883789,3076.426025 
	C1247.234741,3076.231201 1238.585815,3075.871826 1229.936646,3075.867188 
	C1150.710571,3075.823486 1071.484619,3075.876709 992.258606,3075.781006 
	C985.100403,3075.772461 977.735962,3076.919678 969.644714,3073.895508 
	C969.231506,3069.942383 968.732971,3066.135742 968.468628,3062.312988 
	C968.285400,3059.662354 968.420776,3056.989258 968.420776,3054.326172 
	C968.421021,2827.300293 968.421021,2600.274414 968.431152,2373.248535 
	C968.431335,2369.920898 968.556763,2366.593262 969.593872,2360.790527 
	C972.211060,2355.661865 971.167175,2353.792236 968.599487,2350.422363 
	C968.457031,2282.155029 968.526062,2215.770264 968.621460,2149.385498 
	C968.622375,2148.750244 968.938660,2148.101807 969.173645,2147.484619 
	C969.402954,2146.882568 969.716980,2146.312744 970.348206,2144.980957 
	C976.546265,2141.208740 983.260986,2136.947021 990.137756,2132.965332 
	C1026.319702,2112.015625 1062.549316,2091.148438 1098.747925,2070.228027 
	C1113.112305,2061.926514 1127.372070,2053.440918 1141.829468,2045.306030 
	C1145.730347,2043.111084 1147.736206,2040.239380 1148.056519,2035.950439 
	C1153.560669,2038.331909 1158.169189,2036.036255 1162.829956,2033.332275 
	C1177.013550,2025.103394 1191.232056,2016.933105 1205.504639,2008.859497 
	C1218.059326,2001.757568 1230.704468,1994.815918 1245.964233,1987.749146 
	C1250.369995,1987.806641 1252.121216,1987.918457 1254.322510,1989.847168 
	C1254.869629,1999.650635 1255.051392,2007.636963 1255.051636,2015.623413 
	C1255.065796,2359.814697 1255.060181,2704.005859 1255.085205,3048.197021 
	C1255.085815,3056.844971 1255.403442,3065.492676 1255.689941,3074.706543 
	C1255.806763,3075.272461 1255.883789,3076.426025 1255.883789,3076.426025 
z"/>
<path fill="#FFFFFF" opacity="1.000000" stroke="none" 
	d="
M1255.573120,3074.140625 
	C1255.403442,3065.492676 1255.085815,3056.844971 1255.085205,3048.197021 
	C1255.060181,2704.005859 1255.065796,2359.814697 1255.051636,2015.623413 
	C1255.051392,2007.636963 1254.869629,1999.650635 1254.979126,1988.739502 
	C1255.446045,1984.997559 1255.706543,1984.180176 1255.967041,1983.362671 
	C1260.104736,1985.388794 1264.443115,1987.088379 1268.350586,1989.489258 
	C1348.366943,2038.652832 1428.339600,2087.887695 1508.297607,2137.145752 
	C1512.773804,2139.903320 1517.052612,2142.981201 1522.311890,2146.505371 
	C1522.361328,2203.155273 1522.410767,2259.742676 1521.836914,2319.611328 
	C1521.264038,2327.557617 1521.358398,2332.222412 1521.358643,2336.887451 
	C1521.367554,2574.819092 1521.369019,2812.750732 1521.367065,3050.682373 
	C1521.366943,3054.680908 1521.680298,3058.725586 1521.182373,3062.664551 
	C1520.713867,3066.368652 1519.363892,3069.960938 1518.418457,3073.539307 
	C1514.752319,3073.907959 1512.119751,3074.405029 1509.487549,3074.403320 
	C1424.849365,3074.345459 1340.211304,3074.239502 1255.573120,3074.140625 
z"/>
<path fill="#787878" opacity="1.000000" stroke="none" 
	d="
M1255.689941,3074.706543 
	C1340.211304,3074.239502 1424.849365,3074.345459 1509.487549,3074.403320 
	C1512.119751,3074.405029 1514.752319,3073.907959 1518.418457,3073.539307 
	C1519.363892,3069.960938 1520.713867,3066.368652 1521.182373,3062.664551 
	C1521.680298,3058.725586 1521.366943,3054.680908 1521.367065,3050.682373 
	C1521.369019,2812.750732 1521.367554,2574.819092 1521.358643,2336.887451 
	C1521.358398,2332.222412 1521.264038,2327.557617 1522.009399,2321.483398 
	C1530.084961,2320.842773 1535.335205,2316.207520 1540.971313,2312.949707 
	C1604.318848,2276.336914 1667.591064,2239.593994 1730.915039,2202.940430 
	C1733.169434,2201.635498 1735.752441,2200.898193 1738.377197,2202.698975 
	C1738.323120,2212.814697 1737.857422,2220.127686 1737.856445,2227.440430 
	C1737.819336,2500.559326 1737.824463,2773.677979 1737.829590,3046.796875 
	C1737.829712,3052.125488 1737.505493,3057.495850 1738.069946,3062.768066 
	C1738.464478,3066.454834 1740.118164,3070.006592 1741.108521,3073.284424 
	C1744.166016,3073.762207 1746.128540,3074.334717 1748.091919,3074.337402 
	C1807.378052,3074.418701 1866.664429,3074.508545 1925.950073,3074.348145 
	C1930.429321,3074.336182 1934.903564,3072.481934 1939.380127,3071.484131 
	C1938.755981,3073.154541 1938.465820,3075.985352 1937.445801,3076.278809 
	C1934.335083,3077.173340 1930.943481,3077.347168 1927.660645,3077.349854 
	C1867.766724,3077.401123 1807.871948,3077.584717 1747.979126,3077.332520 
	C1678.132202,3077.038330 1608.286621,3075.907471 1538.441040,3075.946777 
	C1451.956299,3075.995605 1365.472168,3076.880615 1278.987671,3077.380127 
	C1272.334839,3077.418457 1265.680908,3077.265381 1257.455566,3076.813721 
	C1255.883789,3076.426025 1255.806763,3075.272461 1255.689941,3074.706543 
z"/>
<path fill="#FCFCFC" opacity="1.000000" stroke="none" 
	d="
M1939.434570,3069.643066 
	C1934.903564,3072.481934 1930.429321,3074.336182 1925.950073,3074.348145 
	C1866.664429,3074.508545 1807.378052,3074.418701 1748.091919,3074.337402 
	C1746.128540,3074.334717 1744.166016,3073.762207 1741.108521,3073.284424 
	C1740.118164,3070.006592 1738.464478,3066.454834 1738.069946,3062.768066 
	C1737.505493,3057.495850 1737.829712,3052.125488 1737.829590,3046.796875 
	C1737.824463,2773.677979 1737.819336,2500.559326 1737.856445,2227.440430 
	C1737.857422,2220.127686 1738.323120,2212.814697 1739.335693,2203.588623 
	C1779.820557,2225.992676 1819.554565,2250.289551 1859.258545,2274.635498 
	C1881.381470,2288.201172 1903.471680,2301.820557 1925.535278,2315.481934 
	C1930.019043,2318.258301 1934.317993,2321.333252 1939.489014,2324.797852 
	C1939.489014,2572.486084 1939.489014,2820.144043 1939.434570,3069.643066 
z"/>
<path fill="#FDFDFD" opacity="1.000000" stroke="none" 
	d="
M1147.370605,2034.783325 
	C1147.736206,2040.239380 1145.730347,2043.111084 1141.829468,2045.306030 
	C1127.372070,2053.440918 1113.112305,2061.926514 1098.747925,2070.228027 
	C1062.549316,2091.148438 1026.319702,2112.015625 990.137756,2132.965332 
	C983.260986,2136.947021 976.546265,2141.208740 970.348206,2144.980957 
	C969.716980,2146.312744 969.402954,2146.882568 969.173645,2147.484619 
	C968.938660,2148.101807 968.622375,2148.750244 968.621460,2149.385498 
	C968.526062,2215.770264 968.457031,2282.155029 967.446167,2351.151855 
	C963.001099,2354.413330 959.496338,2355.062988 955.991638,2355.712402 
	C889.880066,2350.127686 835.996155,2321.672852 797.556335,2267.393555 
	C709.378662,2142.880615 777.642029,1968.778198 927.807678,1939.856445 
	C1014.236084,1923.210205 1084.692627,1953.069458 1138.775269,2022.113647 
	C1141.639282,2025.769775 1144.058472,2029.774048 1147.370605,2034.783325 
z"/>
<path fill="#F8F8F8" opacity="1.000000" stroke="none" 
	d="
M3642.783203,2551.001953 
	C3656.778076,2543.154785 3669.521484,2535.985107 3682.515381,2529.302490 
	C3689.426025,2525.748535 3696.899658,2523.256836 3703.968506,2517.349121 
	C3701.204346,2515.038330 3699.456055,2513.200439 3697.374512,2511.893555 
	C3664.962402,2491.546143 3656.159668,2461.114258 3661.467041,2425.428467 
	C3665.323486,2399.498047 3679.495605,2380.133057 3702.465332,2367.102051 
	C3722.557129,2355.703125 3744.148438,2349.627441 3767.018311,2348.094727 
	C3799.354736,2345.927734 3830.748291,2349.762695 3860.234131,2365.235840 
	C3865.525879,2361.312256 3865.472656,2355.594971 3867.021240,2350.860596 
	C3868.666016,2345.833984 3869.061768,2340.388672 3870.801514,2335.405273 
	C3875.856934,2320.924561 3890.879883,2314.078369 3904.266357,2319.801025 
	C3915.911377,2324.779541 3922.208008,2341.637207 3915.700195,2353.857178 
	C3912.051758,2360.707764 3906.192383,2366.550537 3900.640137,2372.165771 
	C3896.064941,2376.791992 3890.475098,2380.414795 3884.893311,2384.832031 
	C3887.957031,2389.338623 3890.677002,2392.978760 3893.022705,2396.845947 
	C3915.514160,2433.920410 3909.008789,2474.919678 3875.873291,2502.819824 
	C3854.835693,2520.533691 3830.030518,2529.697510 3802.888184,2532.197266 
	C3780.279541,2534.279297 3757.672119,2533.576904 3734.433838,2528.632812 
	C3726.085693,2534.269531 3716.893066,2539.729492 3708.556885,2546.279541 
	C3695.882080,2556.238037 3696.870117,2569.457520 3711.278076,2576.410889 
	C3719.481934,2580.370117 3728.860352,2582.606445 3737.952148,2583.854980 
	C3753.112549,2585.937012 3768.459229,2586.712891 3783.742188,2587.839600 
	C3806.410400,2589.511230 3828.700928,2593.219971 3850.351562,2600.213135 
	C3863.074707,2604.322510 3875.056885,2610.037598 3886.011719,2617.858398 
	C3915.727295,2639.072998 3925.380859,2666.569092 3913.740479,2703.854736 
	C3906.924805,2725.687012 3892.755371,2742.203857 3874.546387,2755.482422 
	C3855.965576,2769.032227 3835.020996,2777.782227 3812.856445,2782.843262 
	C3779.551514,2790.447754 3745.802246,2793.651367 3711.678223,2788.226074 
	C3690.899902,2784.922607 3671.735840,2777.891602 3655.463135,2764.219238 
	C3641.617676,2752.586182 3633.391113,2738.040527 3631.837891,2719.620850 
	C3628.963623,2685.534424 3657.156494,2660.175781 3679.729736,2653.519775 
	C3683.784912,2652.324219 3689.041992,2653.075928 3693.124023,2654.595703 
	C3699.422607,2656.939697 3701.294678,2663.812500 3697.812500,2669.444092 
	C3695.018311,2673.963623 3691.744873,2678.198730 3688.536133,2682.448242 
	C3674.150391,2701.500000 3676.578369,2732.688232 3700.853516,2749.299805 
	C3716.205322,2759.805176 3733.193359,2764.489258 3751.506348,2765.525146 
	C3776.835205,2766.957520 3800.615967,2762.322266 3821.757568,2747.623047 
	C3837.545410,2736.646484 3849.265625,2722.564941 3853.812012,2703.377686 
	C3858.557373,2683.350586 3851.817627,2665.842529 3833.955566,2655.531494 
	C3825.429688,2650.609863 3815.874268,2647.099609 3806.389160,2644.282227 
	C3780.042969,2636.456299 3752.708252,2634.654053 3725.498291,2632.328857 
	C3706.185303,2630.678223 3687.112793,2627.712402 3668.924561,2620.816406 
	C3661.512695,2618.005859 3654.111572,2614.656250 3647.519043,2610.316162 
	C3637.648682,2603.818359 3631.713623,2594.338379 3630.404297,2582.255127 
	C3629.099854,2570.217529 3631.876465,2559.782959 3642.783203,2551.001953 
M3832.458496,2398.367432 
	C3831.357666,2396.708252 3830.354248,2394.974365 3829.141846,2393.401367 
	C3813.950928,2373.687256 3793.160889,2369.083740 3770.224121,2373.367676 
	C3747.997070,2377.518799 3734.212402,2391.950684 3727.428223,2413.384033 
	C3722.270508,2429.679199 3721.922607,2446.333496 3725.615479,2462.650635 
	C3730.466064,2484.084717 3742.642334,2500.768311 3764.850098,2506.255615 
	C3805.186035,2516.221924 3831.468262,2495.704346 3839.992676,2463.059082 
	C3845.568359,2441.705322 3843.860352,2420.892090 3832.458496,2398.367432 
z"/>
<path fill="#F7F7F7" opacity="1.000000" stroke="none" 
	d="
M2452.450928,2253.385742 
	C2422.509766,2252.879639 2394.556152,2252.879639 2366.594482,2252.879639 
	C2362.719482,2259.829102 2364.306396,2266.560303 2364.300537,2272.965088 
	C2364.200684,2384.290039 2364.233887,2495.615234 2364.213623,2606.940186 
	C2364.212402,2613.603760 2364.426514,2620.305664 2363.817139,2626.923096 
	C2362.251465,2643.909424 2354.676270,2651.952393 2337.869385,2654.942383 
	C2334.609131,2655.522461 2331.241211,2655.685791 2327.920654,2655.705566 
	C2308.585449,2655.820312 2299.977051,2648.097656 2298.146973,2628.568604 
	C2297.527100,2621.953613 2297.726807,2615.252441 2297.725586,2608.590576 
	C2297.703857,2497.932129 2297.720947,2387.273682 2297.683105,2276.615234 
	C2297.680664,2269.394287 2297.302734,2262.173096 2297.108398,2255.274170 
	C2281.605713,2252.221680 2235.137939,2251.556641 2207.683350,2253.872070 
	C2207.097656,2258.083740 2206.093262,2262.531494 2205.928223,2267.010498 
	C2205.437744,2280.323242 2206.140869,2293.735840 2204.796875,2306.948486 
	C2202.467041,2329.856445 2181.508057,2342.442627 2159.582520,2334.895996 
	C2153.661621,2332.857910 2148.843262,2329.118408 2146.965576,2322.977783 
	C2145.430420,2317.958252 2144.089844,2312.656250 2144.003662,2307.457031 
	C2143.660156,2286.797363 2143.611572,2266.125977 2143.906250,2245.465088 
	C2144.123047,2230.278076 2148.343506,2225.175781 2162.966064,2222.012451 
	C2168.768311,2220.757568 2174.844727,2220.285645 2180.796875,2220.279541 
	C2280.789307,2220.175293 2380.782227,2220.129395 2480.774170,2220.336914 
	C2488.656738,2220.353271 2496.614990,2221.937744 2504.393311,2223.510010 
	C2512.527344,2225.154053 2516.661865,2231.050049 2517.887451,2238.989014 
	C2518.392822,2242.262207 2518.576416,2245.613281 2518.588623,2248.929932 
	C2518.654053,2266.928223 2518.815674,2284.930664 2518.509033,2302.923828 
	C2518.407959,2308.863037 2517.386963,2314.862793 2516.109375,2320.686279 
	C2514.564209,2327.729980 2509.605957,2332.341064 2503.072021,2334.781494 
	C2481.838867,2342.712158 2460.102051,2330.082275 2456.899170,2307.566895 
	C2455.687500,2299.051270 2456.444824,2290.268311 2456.070557,2281.617188 
	C2455.670654,2272.369141 2454.994141,2263.133057 2452.450928,2253.385742 
z"/>
<path fill="#F9F9F9" opacity="1.000000" stroke="none" 
	d="
M3536.350342,2653.564453 
	C3528.956543,2654.634277 3522.926025,2655.840088 3517.085693,2655.228760 
	C3500.949463,2653.539551 3491.352539,2645.348877 3487.960449,2629.547852 
	C3485.881348,2619.862793 3484.937256,2609.766113 3484.870361,2599.844971 
	C3484.555176,2553.182861 3484.766846,2506.517090 3484.671875,2459.852783 
	C3484.654053,2451.196045 3484.736572,2442.459717 3483.664551,2433.898682 
	C3479.679443,2402.070068 3453.891113,2383.423096 3422.359131,2389.463379 
	C3405.664551,2392.661377 3390.795410,2399.922607 3378.231689,2411.513916 
	C3363.359375,2425.234863 3354.910645,2441.539795 3355.130615,2462.520508 
	C3355.634277,2510.512695 3355.424072,2558.514648 3355.144531,2606.510742 
	C3355.090576,2615.764893 3353.830078,2625.079590 3352.347656,2634.240234 
	C3350.692871,2644.470459 3344.168213,2651.079346 3334.084717,2653.042480 
	C3326.335449,2654.551270 3318.262939,2655.647461 3310.433838,2655.197021 
	C3299.693115,2654.578369 3293.801270,2648.310791 3292.125244,2637.377197 
	C3291.322266,2632.139893 3291.332520,2626.745361 3291.329346,2621.422119 
	C3291.282471,2540.759521 3291.290283,2460.096680 3291.306885,2379.434082 
	C3291.307861,2375.437500 3291.246826,2371.412598 3291.668213,2367.449219 
	C3292.953613,2355.353027 3298.781982,2349.430420 3310.489746,2347.948730 
	C3332.308350,2345.187256 3347.134033,2356.368408 3351.889160,2378.945312 
	C3353.204102,2385.188477 3351.330078,2392.219727 3356.903320,2398.929688 
	C3361.272217,2394.293213 3365.141846,2389.993408 3369.214600,2385.895020 
	C3404.283203,2350.603516 3446.524170,2340.691406 3494.101807,2351.645264 
	C3519.712891,2357.541992 3535.871582,2374.636230 3543.253174,2399.349609 
	C3546.451904,2410.059082 3548.229248,2421.590576 3548.316162,2432.766846 
	C3548.820312,2497.426025 3548.671631,2562.090576 3548.623047,2626.753418 
	C3548.615479,2636.825684 3548.361084,2647.052734 3536.350342,2653.564453 
z"/>
<path fill="#F8F8F8" opacity="1.000000" stroke="none" 
	d="
M2557.148438,2347.952881 
	C2576.600830,2350.892090 2584.529541,2363.085693 2587.040283,2379.589111 
	C2588.234863,2387.441650 2588.186035,2395.526611 2588.203369,2403.507568 
	C2588.307129,2451.484375 2588.093262,2499.462646 2588.416992,2547.437256 
	C2588.483643,2557.336670 2589.713623,2567.347900 2591.551514,2577.091797 
	C2596.050049,2600.939453 2616.075195,2616.029053 2643.268311,2614.148926 
	C2671.453857,2612.200195 2693.645264,2598.300049 2709.295898,2574.508057 
	C2716.939941,2562.887939 2718.614014,2549.828857 2718.589355,2536.291504 
	C2718.514404,2494.978027 2718.556152,2453.664795 2718.575928,2412.351318 
	C2718.579834,2403.689453 2718.510498,2395.021973 2718.804688,2386.368164 
	C2718.985352,2381.055908 2719.404053,2375.690918 2720.398438,2370.479736 
	C2722.628906,2358.789795 2730.106445,2351.904785 2741.436035,2348.958252 
	C2742.721191,2348.624268 2744.037598,2348.350098 2745.356445,2348.217529 
	C2774.557129,2345.278076 2781.095703,2351.140381 2782.450439,2377.973389 
	C2782.618164,2381.297607 2782.529785,2384.635498 2782.530029,2387.967041 
	C2782.533691,2464.596680 2782.575928,2541.226562 2782.463623,2617.856201 
	C2782.452881,2625.143555 2781.743896,2632.462891 2780.864258,2639.707031 
	C2779.972412,2647.055176 2775.305176,2651.479980 2768.445312,2653.888184 
	C2749.332031,2660.597656 2729.693359,2651.521729 2723.675537,2632.253906 
	C2720.942383,2623.502441 2720.172363,2614.137695 2718.441895,2604.669434 
	C2712.408203,2602.590088 2711.533447,2608.982178 2708.849609,2611.969238 
	C2675.077881,2649.555664 2633.120117,2662.024902 2584.179932,2652.637695 
	C2554.221191,2646.891357 2536.081543,2628.041016 2528.721924,2599.051025 
	C2525.962646,2588.182373 2524.520752,2576.695068 2524.446289,2565.476807 
	C2524.034424,2503.509521 2524.230957,2441.537842 2524.219727,2379.567871 
	C2524.219482,2378.901611 2524.213623,2378.234619 2524.233643,2377.568848 
	C2524.971191,2353.029541 2530.262939,2348.025635 2557.148438,2347.952881 
z"/>
<path fill="#F8F8F8" opacity="1.000000" stroke="none" 
	d="
M3985.416016,2437.427979 
	C4000.895508,2384.758789 4042.444336,2352.258545 4101.796875,2348.083252 
	C4125.117188,2346.442871 4148.257324,2347.607178 4170.817871,2355.057861 
	C4209.493164,2367.829834 4235.599121,2393.098633 4248.467773,2431.807373 
	C4257.401855,2458.680176 4259.886230,2486.429688 4258.289062,2514.500732 
	C4257.232422,2533.068359 4254.964355,2551.496338 4249.058105,2569.393799 
	C4235.263672,2611.195801 4207.501953,2638.291260 4165.037109,2649.704346 
	C4132.913086,2658.338135 4100.598633,2658.227295 4068.516113,2648.996338 
	C4027.737793,2637.263428 4000.730713,2611.083008 3987.422119,2570.848633 
	C3978.099365,2542.665527 3975.404785,2513.602295 3977.912354,2484.200195 
	C3979.206543,2469.024414 3982.488281,2454.018066 3985.416016,2437.427979 
M4095.474365,2375.784424 
	C4073.798096,2383.818359 4061.086182,2400.200928 4053.830811,2421.295654 
	C4051.246338,2428.809814 4049.540283,2436.686523 4048.085693,2444.518555 
	C4042.442383,2474.902832 4042.930908,2505.599854 4044.961426,2536.205811 
	C4046.148682,2554.103271 4048.791504,2571.984375 4055.679443,2588.864258 
	C4064.936768,2611.550049 4081.054932,2625.882324 4105.582031,2630.070068 
	C4135.215332,2635.130371 4167.968750,2622.929688 4180.581543,2587.916992 
	C4183.279297,2580.427246 4185.861816,2572.743896 4187.159180,2564.927490 
	C4193.193359,2528.558105 4194.153320,2491.994141 4189.277344,2455.416260 
	C4187.786133,2444.234863 4185.948730,2432.928467 4182.611328,2422.195312 
	C4169.767090,2380.889893 4133.688965,2364.491455 4095.474365,2375.784424 
z"/>
<path fill="#F8F8F8" opacity="1.000000" stroke="none" 
	d="
M2904.865723,2655.717773 
	C2897.012695,2655.577881 2890.386719,2654.524170 2887.096924,2649.318848 
	C2883.695068,2643.936523 2882.013428,2637.250488 2880.590088,2630.907959 
	C2879.590576,2626.452881 2880.231445,2621.617920 2880.230713,2616.952637 
	C2880.219482,2538.959473 2880.219482,2460.966553 2880.233154,2382.973389 
	C2880.233887,2378.308838 2880.031738,2373.608887 2880.511230,2368.986328 
	C2881.969971,2354.918701 2888.415771,2348.761963 2902.236572,2347.759033 
	C2921.368164,2346.370850 2934.465820,2354.988281 2939.567139,2373.568359 
	C2941.835693,2381.831055 2942.123291,2390.633301 2943.382812,2399.179932 
	C2943.915039,2402.791260 2941.965332,2406.939941 2946.689941,2410.918213 
	C2949.420654,2407.288574 2951.804932,2403.564697 2954.730713,2400.330322 
	C2964.991211,2388.987061 2974.628662,2376.904785 2985.989258,2366.769043 
	C3007.537354,2347.543701 3034.022949,2345.303467 3061.252686,2348.631348 
	C3070.896729,2349.810059 3075.849609,2357.121094 3078.239990,2366.177246 
	C3080.786133,2375.822998 3079.973389,2384.933838 3072.457764,2392.035645 
	C3069.762695,2394.582520 3065.555908,2396.207275 3061.808105,2396.805176 
	C3055.932617,2397.742432 3049.854248,2397.340332 3043.874023,2397.703613 
	C3032.573730,2398.390381 3021.179688,2398.505859 3010.005859,2400.117432 
	C2971.242432,2405.707275 2945.482178,2434.796143 2944.373779,2473.780518 
	C2944.032959,2485.770264 2944.288330,2497.776855 2944.284180,2509.775879 
	C2944.273193,2543.106201 2944.400146,2576.437500 2944.166504,2609.766113 
	C2944.111084,2617.706055 2943.417480,2625.736328 2942.026855,2633.548584 
	C2940.087402,2644.441650 2933.227051,2651.308105 2922.266846,2653.521240 
	C2917.080322,2654.568359 2911.771484,2655.009277 2904.865723,2655.717773 
z"/>
<path fill="#F7F7F7" opacity="1.000000" stroke="none" 
	d="
M3189.635010,2617.967285 
	C3189.230713,2623.054688 3189.118408,2626.405029 3188.569336,2629.682129 
	C3185.851318,2645.902832 3180.382812,2651.577637 3164.625244,2654.751709 
	C3163.321533,2655.014404 3161.998291,2655.194580 3160.677734,2655.360840 
	C3136.125732,2658.450928 3127.446533,2651.338623 3125.976074,2626.882324 
	C3125.816406,2624.224854 3125.839111,2621.553955 3125.838867,2618.889404 
	C3125.831055,2540.929443 3125.784180,2462.969482 3125.906494,2385.009521 
	C3125.917969,2377.717529 3126.437012,2370.323242 3127.737793,2363.161377 
	C3129.413330,2353.935791 3134.822998,2348.988525 3143.870850,2348.090088 
	C3149.786865,2347.502686 3155.926270,2347.472900 3161.788086,2348.363770 
	C3176.376221,2350.580078 3185.717041,2359.742676 3188.234619,2374.422607 
	C3189.465332,2381.597168 3189.736084,2389.006348 3189.743896,2396.310059 
	C3189.821045,2469.605469 3189.752930,2542.901123 3189.635010,2617.967285 
z"/>
<path fill="#F7F7F7" opacity="1.000000" stroke="none" 
	d="
M3119.427246,2262.471191 
	C3127.982666,2239.346924 3139.495361,2230.739502 3158.873291,2231.658447 
	C3178.698730,2232.598877 3195.062012,2249.708496 3194.999512,2269.433594 
	C3194.940918,2287.925781 3179.356445,2305.287598 3160.812744,2307.520020 
	C3141.219971,2309.878662 3122.548340,2295.690674 3119.437256,2275.813477 
	C3118.830811,2271.939453 3119.271729,2267.901611 3119.427246,2262.471191 
z"/>
<path fill="#787878" opacity="1.000000" stroke="none" 
	d="
M957.209229,2356.371582 
	C959.496338,2355.062988 963.001099,2354.413330 967.659058,2353.034180 
	C971.167175,2353.792236 972.211060,2355.661865 969.882812,2358.906006 
	C965.609985,2358.674316 962.018372,2357.852539 957.209229,2356.371582 
z"/>
<path fill="#787878" opacity="1.000000" stroke="none" 
	d="
M1255.407593,1982.422852 
	C1255.706543,1984.180176 1255.446045,1984.997559 1254.529053,1986.922607 
	C1252.121216,1987.918457 1250.369995,1987.806641 1247.298096,1987.539062 
	C1248.934204,1985.416504 1251.891113,1983.449707 1255.407593,1982.422852 
z"/>
<path fill="#040404" opacity="1.000000" stroke="none" 
	d="
M3833.275879,2399.643555 
	C3843.860352,2420.892090 3845.568359,2441.705322 3839.992676,2463.059082 
	C3831.468262,2495.704346 3805.186035,2516.221924 3764.850098,2506.255615 
	C3742.642334,2500.768311 3730.466064,2484.084717 3725.615479,2462.650635 
	C3721.922607,2446.333496 3722.270508,2429.679199 3727.428223,2413.384033 
	C3734.212402,2391.950684 3747.997070,2377.518799 3770.224121,2373.367676 
	C3793.160889,2369.083740 3813.950928,2373.687256 3829.141846,2393.401367 
	C3830.354248,2394.974365 3831.357666,2396.708252 3833.275879,2399.643555 
z"/>
<path fill="#040404" opacity="1.000000" stroke="none" 
	d="
M4097.024902,2375.344727 
	C4133.688965,2364.491455 4169.767090,2380.889893 4182.611328,2422.195312 
	C4185.948730,2432.928467 4187.786133,2444.234863 4189.277344,2455.416260 
	C4194.153320,2491.994141 4193.193359,2528.558105 4187.159180,2564.927490 
	C4185.861816,2572.743896 4183.279297,2580.427246 4180.581543,2587.916992 
	C4167.968750,2622.929688 4135.215332,2635.130371 4105.582031,2630.070068 
	C4081.054932,2625.882324 4064.936768,2611.550049 4055.679443,2588.864258 
	C4048.791504,2571.984375 4046.148682,2554.103271 4044.961426,2536.205811 
	C4042.930908,2505.599854 4042.442383,2474.902832 4048.085693,2444.518555 
	C4049.540283,2436.686523 4051.246338,2428.809814 4053.830811,2421.295654 
	C4061.086182,2400.200928 4073.798096,2383.818359 4097.024902,2375.344727 
z"/>
</svg>